<?xml version="1.0" encoding="UTF-8"?>
<svg id="Layer_1" data-name="Layer 1" xmlns="http://www.w3.org/2000/svg" viewBox="0 0 850.39 850.39">
  <defs>
    <style>
      .cls-1, .cls-2 {
        fill: #010101;
      }

      .cls-1, .cls-3, .cls-4 {
        stroke: #fff;
        stroke-miterlimit: 10;
      }

      .cls-1, .cls-4 {
        stroke-width: .5px;
      }

      .cls-3, .cls-4 {
        fill: none;
      }

      .cls-5 {
        fill: #fff;
      }
    </style>
  </defs>
  <g id="_Фон_и_лишние_штуки" data-name="Фон и лишние штуки">
    <rect id="_Фон" data-name="Фон" class="cls-2" width="850.39" height="850.39"/>
  </g>
  <g id="_Декор" data-name="Декор">
    <g id="_Стороны_розы_ветров_на_англ" data-name="Стороны розы ветров на англ">
      <g id="compass_rose_names" data-name="compass rose names">
        <g>
          <path class="cls-5" d="M173.45,175.83l3.73,3.65-.85.87-3.6-.3,1.99,1.94-1.01,1.03-3.73-3.64.85-.87,3.6.3-1.99-1.94,1.01-1.03Z"/>
          <path class="cls-5" d="M180.65,174.48l.79.82-3.02,2.9-3.61-3.76,2.95-2.83.79.82-1.9,1.82.61.63,1.67-1.6.76.8-1.67,1.6.66.69,1.97-1.89Z"/>
        </g>
        <g>
          <path class="cls-5" d="M182.16,675.83c.21.35.34.68.4.98l-1.11.44c-.06-.27-.17-.55-.32-.83-.15-.28-.34-.53-.55-.74-.4-.39-.71-.49-.9-.29-.1.11-.12.24-.06.41s.2.4.4.71c.22.33.39.63.51.88.12.25.17.52.16.81-.01.29-.15.56-.4.82-.22.23-.49.37-.79.43s-.63.03-.98-.11-.71-.38-1.06-.73c-.25-.24-.46-.5-.64-.79-.18-.29-.31-.57-.39-.86l1.09-.47c.17.54.42.97.75,1.3.21.2.39.32.55.35.16.03.28,0,.38-.1.1-.1.11-.23.05-.39-.07-.16-.2-.39-.4-.69-.22-.34-.4-.63-.52-.88-.12-.25-.17-.52-.16-.81.01-.28.14-.56.4-.81.22-.22.48-.37.78-.43.3-.06.63-.02.98.11.35.13.71.38,1.06.72.3.3.56.62.77.97Z"/>
          <path class="cls-5" d="M174.91,670.19l.8-.81,2.99,2.93-3.64,3.73-2.93-2.86.8-.81,1.88,1.84.61-.63-1.66-1.62.77-.79,1.66,1.62.67-.68-1.95-1.91Z"/>
        </g>
        <g>
          <path class="cls-5" d="M677.1,666.81c.35-.21.67-.35.97-.41l.45,1.1c-.27.06-.55.17-.83.32-.28.16-.53.34-.73.55-.39.41-.49.71-.29.91.11.1.24.12.41.06.17-.06.4-.2.71-.4.33-.22.63-.4.88-.52.25-.12.52-.18.81-.16.29.01.56.14.82.4.23.22.37.48.44.79.06.3.03.63-.1.98-.13.35-.37.71-.72,1.07-.24.25-.5.46-.79.65-.29.19-.57.32-.85.4l-.47-1.09c.54-.17.97-.42,1.3-.76.2-.21.32-.39.35-.55.03-.16,0-.28-.1-.38s-.23-.11-.39-.05c-.16.07-.39.2-.69.4-.34.23-.63.4-.88.52s-.52.18-.8.17c-.28-.01-.56-.14-.82-.39-.23-.22-.37-.48-.43-.78-.06-.3-.03-.63.11-.98.13-.36.37-.71.72-1.07.29-.3.62-.56.97-.77Z"/>
          <path class="cls-5" d="M671.6,679.77l-2.55-4.85,1.1-1.13,2.97,1.5-1.54-2.96,1.1-1.13,4.91,2.43-1.06,1.09-3.11-1.58,1.61,3.12-.95.97-3.14-1.6,1.64,3.13-.99,1.01Z"/>
        </g>
        <g>
          <path class="cls-5" d="M673.08,172.09l-3.62,3.75-.87-.84.28-3.6-1.93,2-1.04-1.01,3.62-3.75.87.84-.28,3.6,1.93-2,1.04,1.01Z"/>
          <path class="cls-5" d="M680.14,179.27l-4.93,2.39-1.09-1.14,1.6-2.92-3.01,1.44-1.09-1.14,2.59-4.83,1.05,1.1-1.68,3.06,3.17-1.51.94.98-1.7,3.08,3.18-1.54.97,1.02Z"/>
        </g>
        <g>
          <path class="cls-5" d="M103.49,563.5l1.04-.46,1.68,3.84-4.78,2.09-1.64-3.75,1.04-.46,1.05,2.41.81-.35-.93-2.12,1.01-.44.93,2.12.87-.38-1.09-2.5Z"/>
          <path class="cls-5" d="M103.66,561.09c.06.41.06.76,0,1.05l-1.19-.02c.05-.28.06-.57.02-.89-.03-.32-.11-.62-.23-.89-.22-.52-.46-.72-.72-.61-.14.06-.21.18-.21.35,0,.18.03.45.1.81.08.39.12.73.14,1.01.01.28-.04.55-.16.81-.12.26-.35.46-.68.6-.29.12-.59.16-.89.1-.3-.06-.59-.22-.86-.48-.27-.26-.51-.62-.7-1.08-.13-.31-.23-.64-.29-.98-.06-.34-.07-.65-.03-.94h1.19c-.05.55.01,1.05.2,1.47.12.27.24.45.37.54.13.09.26.11.39.05s.19-.17.19-.34c0-.17-.03-.44-.1-.79-.08-.4-.12-.74-.14-1.01-.01-.28.04-.55.16-.81.12-.26.34-.46.68-.6.29-.12.58-.15.88-.09.3.06.59.22.87.48.28.26.51.62.71,1.08.17.39.28.78.34,1.19Z"/>
          <path class="cls-5" d="M99.22,553.06l1.06-.41,1.52,3.9-4.86,1.9-1.49-3.81,1.06-.41.96,2.45.82-.32-.84-2.16,1.03-.4.84,2.16.89-.35-.99-2.54Z"/>
        </g>
        <g>
          <path class="cls-5" d="M568,743.74c.41-.07.76-.07,1.06-.01v1.19c-.28-.05-.58-.05-.9-.01-.32.04-.62.12-.89.24-.52.23-.72.47-.6.73.06.14.18.21.36.21.18,0,.44-.04.8-.11.39-.08.73-.13,1.01-.15.28-.02.55.03.81.15.26.12.46.34.61.67.13.29.17.59.11.89-.05.3-.21.59-.47.87-.25.28-.61.52-1.07.72-.31.14-.64.24-.97.3-.34.06-.65.08-.94.05l-.03-1.18c.56.04,1.06-.03,1.48-.22.27-.12.45-.24.53-.38.09-.13.1-.26.05-.39-.06-.13-.17-.19-.34-.19-.17,0-.44.04-.79.11-.4.08-.73.13-1.01.15-.28.02-.55-.03-.81-.15-.26-.12-.46-.34-.61-.67-.13-.29-.16-.58-.11-.88.05-.3.21-.59.47-.87s.61-.52,1.06-.72c.39-.17.78-.29,1.19-.35Z"/>
          <path class="cls-5" d="M562.95,745.96c.41-.06.76-.06,1.05,0l-.02,1.19c-.27-.05-.57-.06-.89-.02-.32.03-.62.11-.89.23-.52.22-.73.46-.61.72.06.14.18.21.35.21.18,0,.45-.03.81-.1.39-.08.73-.12,1.01-.14.28-.02.55.04.81.16.26.12.46.35.6.68.13.29.16.59.1.89-.06.3-.22.59-.48.86-.26.27-.62.51-1.08.7-.31.14-.64.23-.98.29s-.65.07-.94.03v-1.19c.55.05,1.04-.01,1.47-.2.27-.12.45-.24.54-.37.09-.13.11-.26.05-.39-.06-.13-.17-.19-.34-.19-.17,0-.44.03-.79.1-.4.08-.74.12-1.01.14-.28.01-.55-.04-.8-.16s-.46-.34-.6-.68c-.12-.29-.15-.58-.09-.88.06-.3.22-.59.48-.87s.62-.51,1.08-.71c.39-.17.78-.28,1.19-.34Z"/>
          <path class="cls-5" d="M552.67,755.7l-.32-5.47,1.47-.57,2.08,2.59-.18-3.34,1.47-.57,3.47,4.24-1.42.55-2.19-2.72.18,3.5-1.26.49-2.2-2.75.2,3.53-1.31.51Z"/>
        </g>
        <g>
          <path class="cls-5" d="M750.47,284.8l-5.45.58-.64-1.44,2.49-2.2-3.32.34-.64-1.44,4.08-3.67.62,1.39-2.62,2.31,3.49-.35.55,1.24-2.64,2.33,3.51-.37.57,1.29Z"/>
          <path class="cls-5" d="M752.92,290.62l-4.79,2.05-.48-1.12,1.65-3.21-2.55,1.09-.57-1.33,4.8-2.05.48,1.12-1.65,3.21,2.55-1.09.57,1.33Z"/>
          <path class="cls-5" d="M756.6,299.98l-5.47.32-.57-1.47,2.59-2.08-3.34.18-.57-1.47,4.24-3.47.55,1.42-2.72,2.19,3.5-.18.49,1.26-2.75,2.2,3.53-.2.51,1.31Z"/>
        </g>
        <g>
          <path class="cls-5" d="M284.93,99.81l2.1,4.78-1.11.49-3.22-1.62,1.12,2.54-1.32.58-2.1-4.78,1.11-.49,3.22,1.62-1.12-2.54,1.32-.58Z"/>
          <path class="cls-5" d="M291.16,97.16l2.05,4.79-1.12.48-3.21-1.65,1.09,2.55-1.33.57-2.05-4.79,1.12-.48,3.21,1.65-1.09-2.55,1.33-.57Z"/>
          <path class="cls-5" d="M298.32,98.74l.41,1.06-3.9,1.52-1.89-4.86,3.81-1.48.41,1.06-2.45.95.32.82,2.16-.84.4,1.03-2.16.84.35.89,2.54-.99Z"/>
        </g>
        <g>
          <path class="cls-5" d="M299.11,750.82c.33.24.58.49.75.74l-.85.84c-.16-.23-.37-.44-.62-.64-.25-.2-.52-.36-.79-.46-.53-.21-.84-.18-.95.09-.06.14-.02.27.1.4.12.13.34.29.64.49.34.22.61.43.82.61.21.19.36.41.46.68.1.27.08.57-.05.91-.12.3-.3.53-.56.71-.25.17-.57.27-.94.28-.38.01-.8-.07-1.26-.26-.32-.12-.62-.28-.9-.48s-.51-.41-.7-.64l.82-.85c.37.43.76.73,1.2.9.27.11.49.14.64.11.16-.03.26-.11.31-.24.05-.13.01-.26-.11-.38-.12-.12-.33-.28-.64-.48-.34-.22-.61-.43-.82-.61-.21-.19-.36-.41-.46-.68-.1-.27-.09-.57.05-.91.11-.29.3-.52.55-.69.25-.17.57-.27.95-.28.38-.01.8.07,1.26.25.39.15.76.35,1.09.59Z"/>
          <path class="cls-5" d="M293.95,748.76c.33.25.58.49.74.75l-.85.83c-.16-.23-.36-.45-.62-.65-.25-.2-.51-.36-.79-.47-.53-.21-.84-.19-.95.08-.06.14-.02.27.1.4s.34.29.64.5c.33.22.6.43.81.62.21.19.36.42.46.68.1.27.08.57-.06.91-.12.29-.31.53-.56.7-.26.17-.57.26-.95.27-.38.01-.8-.08-1.26-.27-.32-.13-.62-.29-.9-.48-.28-.19-.51-.41-.69-.64l.83-.85c.36.43.76.74,1.19.91.27.11.49.15.64.12.16-.03.26-.11.31-.24.05-.13.02-.26-.11-.38-.12-.12-.33-.29-.63-.49-.34-.23-.61-.43-.81-.62-.21-.19-.36-.41-.46-.68-.1-.27-.08-.57.05-.9.12-.29.3-.52.56-.69.26-.17.57-.26.95-.27.38-.01.8.07,1.26.26.39.16.75.36,1.08.6Z"/>
          <path class="cls-5" d="M285.13,746.23l.46-1.04,3.83,1.68-2.1,4.78-3.74-1.65.46-1.04,2.41,1.06.35-.81-2.12-.93.44-1.01,2.12.93.38-.87-2.5-1.09Z"/>
        </g>
        <g>
          <path class="cls-5" d="M754.15,556.59l-4.26-3.46.57-1.47,3.32.21-2.59-2.12.57-1.47,5.47.3-.55,1.42-3.49-.22,2.71,2.23-.49,1.27-3.51-.23,2.74,2.23-.51,1.31Z"/>
          <path class="cls-5" d="M748.61,556.46c.24-.33.49-.58.75-.74l.83.85c-.23.16-.45.36-.65.62s-.36.51-.47.79c-.21.52-.18.84.08.95.14.06.27.02.4-.1.13-.12.29-.34.5-.64.22-.33.43-.6.62-.81.19-.21.42-.36.68-.46s.57-.08.91.06c.29.12.53.3.7.56.17.26.26.57.27.95.01.38-.08.8-.26,1.26-.13.32-.29.62-.49.9-.19.28-.41.51-.64.69l-.85-.83c.43-.36.74-.76.91-1.19.11-.27.15-.49.12-.64-.03-.16-.11-.26-.24-.31-.13-.05-.26-.02-.38.1-.13.12-.29.33-.49.63-.23.34-.43.61-.62.82-.19.21-.41.36-.68.46-.27.1-.57.08-.9-.05-.29-.12-.52-.3-.69-.56-.17-.26-.26-.57-.27-.95-.01-.38.07-.8.26-1.26.16-.39.36-.75.6-1.08Z"/>
          <path class="cls-5" d="M748.21,570.58l-4.1-3.64.64-1.45,3.31.36-2.49-2.23.63-1.45,5.46.55-.61,1.39-3.47-.38,2.61,2.35-.55,1.24-3.5-.39,2.64,2.35-.57,1.29Z"/>
        </g>
        <g>
          <path class="cls-5" d="M554.2,95.26l-1.87,4.87-1.13-.44-1.15-3.42-1,2.59-1.35-.52,1.87-4.87,1.13.44,1.15,3.42,1-2.59,1.35.52Z"/>
          <path class="cls-5" d="M560.5,97.79l-1.94,4.84-1.13-.45-1.1-3.44-1.03,2.58-1.34-.54,1.94-4.84,1.13.45,1.1,3.44,1.03-2.58,1.34.54Z"/>
          <path class="cls-5" d="M569.76,101.79l-3.64,4.09-1.45-.63.36-3.31-2.23,2.49-1.45-.63.55-5.46,1.39.61-.38,3.47,2.35-2.61,1.24.55-.39,3.5,2.35-2.64,1.29.57Z"/>
        </g>
        <g>
          <path class="cls-5" d="M99.64,296.09l1.06.41-1.52,3.9-4.86-1.9,1.49-3.81,1.06.41-.95,2.45.82.32.84-2.16,1.03.4-.84,2.16.89.35.99-2.54Z"/>
          <path class="cls-5" d="M98.29,288.54l4.84,1.94-.45,1.13-3.44,1.1,2.58,1.03-.54,1.34-4.84-1.94.45-1.13,3.44-1.1-2.58-1.03.54-1.34Z"/>
          <path class="cls-5" d="M104.46,284.58l1.04.46-1.68,3.83-4.77-2.1,1.64-3.74,1.04.46-1.06,2.41.8.35.93-2.12,1.01.44-.93,2.12.87.38,1.1-2.5Z"/>
        </g>
        <g>
          <path class="cls-5" d="M413.57,71.08l.2,5.21-1.21.05-2.41-2.69.11,2.78-1.44.06-.2-5.21,1.21-.05,2.41,2.69-.11-2.78,1.44-.06Z"/>
          <path class="cls-5" d="M416.67,75.97c-.44-.22-.8-.54-1.05-.95-.26-.41-.39-.87-.4-1.38-.01-.52.11-.98.35-1.4.24-.42.58-.75,1.02-.99.43-.24.93-.37,1.48-.38.55-.01,1.05.1,1.49.32s.8.54,1.05.95c.26.41.39.87.4,1.39.01.52-.11.98-.35,1.4-.24.42-.58.75-1.02.99-.43.24-.93.37-1.48.38-.55.01-1.05-.1-1.49-.32ZM418.85,74.87c.21-.13.38-.31.5-.54.12-.23.18-.49.17-.78,0-.29-.07-.55-.2-.77-.13-.22-.3-.4-.52-.51s-.46-.18-.72-.17c-.26,0-.5.07-.71.2-.21.13-.38.31-.5.54-.12.23-.18.49-.17.78,0,.29.07.55.2.77.13.22.3.4.52.52.22.12.46.18.72.17.26,0,.5-.07.71-.2Z"/>
          <path class="cls-5" d="M424.84,74.74h-.8s.02,1.39.02,1.39l-1.48.02-.06-5.21,2.38-.03c.47,0,.88.07,1.23.22.35.15.62.37.81.66.19.29.29.63.3,1.02,0,.38-.08.71-.25.99-.17.28-.42.51-.75.67l1.14,1.63-1.58.02-.96-1.37ZM425.51,72.26c-.16-.13-.38-.2-.69-.19h-.82s.02,1.54.02,1.54h.82c.3-.01.53-.08.68-.21s.23-.32.22-.57c0-.24-.08-.43-.24-.56Z"/>
          <path class="cls-5" d="M429.91,72.1l-1.6-.03.02-1.17,4.67.1-.02,1.17-1.59-.03-.09,4.04-1.47-.03.09-4.04Z"/>
          <path class="cls-5" d="M439.28,71.17l-.17,5.21-1.47-.05.06-2.03-2.01-.07-.07,2.03-1.47-.05.17-5.21,1.47.05-.06,1.96,2.01.06.06-1.96,1.47.05Z"/>
        </g>
        <g>
          <path class="cls-5" d="M75.11,433.02l1.14-.03.12,4.19-5.21.15-.11-4.09,1.14-.03.07,2.63.88-.02-.06-2.32,1.1-.03.07,2.32.95-.03-.08-2.73Z"/>
          <path class="cls-5" d="M75.17,427.98l.03,2.21,1.02.4.02,1.5-5.24-2.24-.02-1.45,5.19-2.37.02,1.53-1.01.42ZM74.09,428.42l-1.66.69,1.68.65-.02-1.34Z"/>
          <path class="cls-5" d="M76.1,424.31c-.11.4-.26.72-.44.96l-1.08-.51c.16-.23.29-.5.39-.8.1-.31.16-.61.16-.91.01-.57-.12-.85-.41-.86-.15,0-.26.08-.34.24-.08.16-.16.42-.24.77-.09.39-.19.72-.29.98-.1.26-.26.48-.48.67-.22.18-.51.27-.87.26-.32,0-.6-.1-.85-.28-.25-.18-.45-.44-.59-.79-.14-.35-.21-.77-.2-1.28,0-.34.05-.68.14-1.01.08-.33.2-.62.36-.87l1.09.48c-.28.49-.42.97-.43,1.44,0,.29.03.51.12.64s.2.21.33.21c.14,0,.24-.07.32-.23.07-.16.15-.41.23-.76.09-.4.19-.72.29-.98.1-.26.26-.48.48-.67.21-.19.5-.28.87-.27.31,0,.59.1.84.28.25.18.45.44.59.79.14.35.21.77.2,1.27,0,.42-.07.83-.18,1.23Z"/>
          <path class="cls-5" d="M72.2,418.21l-.03,1.6-1.17-.03.1-4.67,1.17.02-.03,1.59,4.04.09-.03,1.48-4.04-.09Z"/>
        </g>
        <g>
          <path class="cls-5" d="M440.57,774.02c.4.09.73.21.98.38l-.44,1.11c-.24-.14-.51-.26-.83-.34-.31-.08-.62-.12-.91-.11-.57.02-.84.18-.83.46,0,.15.09.26.26.32s.43.13.79.2c.4.07.73.15.99.23.27.09.5.23.7.44.2.21.3.49.32.85.01.32-.06.61-.23.87-.16.26-.41.47-.75.64-.34.16-.76.25-1.26.27-.34.01-.68-.01-1.02-.08-.33-.06-.63-.16-.89-.3l.41-1.11c.51.25.99.36,1.46.35.29-.01.5-.06.64-.16.13-.09.19-.21.19-.35,0-.14-.09-.24-.25-.3-.16-.06-.42-.13-.77-.19-.4-.07-.73-.15-1-.23-.26-.09-.5-.23-.7-.43s-.31-.49-.32-.85c-.01-.31.06-.6.23-.86.16-.26.42-.47.76-.64.34-.16.76-.26,1.26-.28.42-.02.83.02,1.24.11Z"/>
          <path class="cls-5" d="M434.51,774.42c.44.22.8.54,1.06.95.26.41.39.87.41,1.38.01.52-.1.98-.35,1.4-.24.42-.58.75-1.01.99-.43.24-.93.37-1.48.38-.55.01-1.05-.09-1.49-.32-.44-.22-.8-.54-1.06-.95-.26-.41-.39-.87-.41-1.39,0-.52.11-.98.35-1.4.24-.42.58-.75,1.01-.99.43-.24.93-.37,1.48-.38.55-.01,1.05.09,1.49.32ZM432.33,775.53c-.21.13-.38.31-.49.54-.12.23-.18.49-.17.78,0,.29.07.55.2.77.13.22.3.39.52.51s.46.18.72.17c.26,0,.5-.07.71-.2.21-.13.38-.31.5-.54.12-.23.18-.49.17-.78,0-.29-.07-.55-.2-.77-.13-.22-.3-.39-.52-.51-.22-.12-.46-.18-.72-.17-.26,0-.5.07-.71.2Z"/>
          <path class="cls-5" d="M428.01,774.8c.44.42.66,1.01.67,1.79l.03,2.89-1.48.02-.03-2.85c0-.83-.34-1.25-1-1.24-.66,0-.98.43-.97,1.26l.03,2.85-1.45.02-.03-2.89c0-.77.2-1.38.62-1.8s1.02-.64,1.8-.65c.77,0,1.38.2,1.81.61Z"/>
          <path class="cls-5" d="M420.96,778.32l1.6.03-.02,1.17-4.67-.1.02-1.17,1.59.03.09-4.04,1.47.03-.09,4.04Z"/>
          <path class="cls-5" d="M411.55,779.25l.16-5.21,1.47.05-.06,2.03,2.01.06.06-2.03,1.47.04-.16,5.21-1.47-.04.06-1.96-2.01-.06-.06,1.96-1.47-.05Z"/>
        </g>
        <g>
          <path class="cls-5" d="M779.43,419.86l-5.26-1.55-.04-1.58,3.15-1.08-3.2-.96-.04-1.58,5.17-1.83.04,1.52-3.3,1.14,3.36,1.01.04,1.36-3.33,1.14,3.39,1.01.04,1.41Z"/>
          <path class="cls-5" d="M775.39,425.42h-1.14s-.05-4.17-.05-4.17l5.21-.06.05,4.09h-1.14s-.03-2.62-.03-2.62h-.88s.03,2.33.03,2.33h-1.1s-.03-2.3-.03-2.3h-.95s.03,2.74.03,2.74Z"/>
          <path class="cls-5" d="M774.29,427.55c.11-.4.26-.72.44-.96l1.08.51c-.16.23-.29.5-.39.8-.1.31-.15.61-.16.91-.01.57.12.85.41.86.15,0,.26-.08.34-.24.08-.16.16-.42.24-.77.09-.39.19-.72.29-.98.1-.26.26-.48.48-.67s.51-.27.87-.26c.32,0,.6.1.85.28.25.18.45.44.59.79.14.35.21.77.2,1.27,0,.34-.05.68-.14,1.01s-.2.62-.36.87l-1.09-.48c.28-.49.42-.97.43-1.44,0-.29-.03-.51-.12-.64-.08-.14-.2-.21-.33-.21-.14,0-.24.07-.32.23-.07.16-.15.41-.23.76-.09.4-.19.72-.29.98-.1.26-.26.48-.48.67-.21.19-.5.28-.87.27-.31,0-.59-.1-.84-.28-.25-.18-.45-.44-.59-.8s-.21-.77-.2-1.27c0-.42.07-.83.18-1.23Z"/>
          <path class="cls-5" d="M778.18,433.62l.04-1.6,1.17.03-.12,4.67-1.17-.03.04-1.59-4.04-.1.04-1.47,4.04.1Z"/>
        </g>
      </g>
      <g>
        <path class="cls-5" d="M93.19,493.5l-4.15.82c5.87,28.28,15.35,56.01,28.46,82.6,6.35,12.87,13.42,25.23,21.17,37.04l3.5-2.34c-23.55-35.83-40.24-75.95-48.99-118.13Z"/>
        <path class="cls-5" d="M356.89,93.19l-.82-4.15c-28.28,5.87-56.01,15.35-82.6,28.46-12.87,6.35-25.23,13.42-37.04,21.17l2.34,3.5c35.83-23.55,75.95-40.24,118.13-48.99Z"/>
        <path class="cls-5" d="M92.23,361.23l-3.97-.79c-8.37,43.05-8.37,86.88-.1,129.53l4.15-.83c-8.03-41.44-8.39-84.77-.08-127.91Z"/>
        <path class="cls-5" d="M235.06,144.65l-2.33-3.49c-36.36,24.53-67.35,55.52-91.66,91.52l3.44,2.3c24.47-36.08,55.37-66.54,90.55-90.33Z"/>
        <path class="cls-5" d="M361.23,758.16l-.79,3.97c43.05,8.37,86.89,8.37,129.53.1l-.83-4.15c-41.44,8.03-84.77,8.39-127.91.08Z"/>
        <path class="cls-5" d="M489.16,92.23l.79-3.97c-43.05-8.37-86.88-8.37-129.53-.1l.83,4.15c41.44-8.03,84.77-8.39,127.91-.08Z"/>
        <path class="cls-5" d="M144.64,615.33l-3.49,2.33c24.53,36.36,55.52,67.35,91.52,91.66l2.3-3.44c-36.08-24.46-66.54-55.37-90.33-90.55Z"/>
        <path class="cls-5" d="M615.32,705.74l2.33,3.49c36.36-24.53,67.35-55.52,91.66-91.52l-3.44-2.3c-24.46,36.08-55.37,66.54-90.55,90.33Z"/>
        <path class="cls-5" d="M757.2,356.89l4.15-.82c-5.87-28.28-15.35-56.01-28.46-82.6-6.35-12.87-13.42-25.23-21.17-37.04l-3.5,2.34c23.55,35.83,40.24,75.95,48.99,118.12Z"/>
        <path class="cls-5" d="M316.21,746.26c-28-9.5-53.94-22.34-77.55-37.89l-2.28,3.41c24.15,15.85,50.46,28.75,78.54,38.28,13.59,4.61,27.33,8.35,41.16,11.22l.79-3.97c-13.6-2.81-27.18-6.47-40.66-11.05Z"/>
        <path class="cls-5" d="M758.16,489.16l3.97.79c8.37-43.05,8.37-86.88.1-129.53l-4.15.82c8.03,41.44,8.39,84.77.08,127.91Z"/>
        <path class="cls-5" d="M493.5,757.2l.82,4.15c28.28-5.87,56.01-15.35,82.6-28.46,12.87-6.35,25.23-13.42,37.04-21.17l-2.34-3.5c-35.83,23.55-75.95,40.24-118.13,48.99Z"/>
        <path class="cls-5" d="M534.18,104.14c28,9.5,53.94,22.34,77.55,37.9l2.28-3.41c-24.15-15.85-50.46-28.75-78.54-38.28-13.59-4.61-27.33-8.35-41.16-11.22l-.79,3.97c13.6,2.81,27.18,6.47,40.66,11.05Z"/>
        <path class="cls-5" d="M104.13,316.21c9.5-28,22.34-53.94,37.9-77.55l-3.41-2.28c-15.85,24.15-28.75,50.46-38.28,78.54-4.61,13.59-8.35,27.33-11.22,41.16l3.98.79c2.81-13.6,6.47-27.18,11.05-40.66Z"/>
        <path class="cls-5" d="M705.74,235.07l3.49-2.33c-24.53-36.36-55.52-67.35-91.52-91.66l-2.3,3.44c36.08,24.46,66.54,55.37,90.33,90.55Z"/>
        <path class="cls-5" d="M746.25,534.18c-9.5,28-22.34,53.94-37.9,77.55l3.41,2.28c15.85-24.15,28.75-50.46,38.28-78.54,4.61-13.59,8.35-27.33,11.22-41.16l-3.98-.79c-2.81,13.6-6.47,27.18-11.05,40.66Z"/>
      </g>
    </g>
    <circle id="_Круг_над_градусами" data-name="Круг над градусами" class="cls-3" cx="425.19" cy="425.2" r="334.48"/>
    <g id="_Отметки_0_10_20_30_40...360_градусов" data-name="Отметки 0, 10, 20, 30, 40...360 градусов">
      <g>
        <path class="cls-5" d="M263.3,147.07c.26.06.46.22.6.47.11.18.16.37.15.56,0,.2-.07.39-.2.58-.13.19-.32.36-.58.51-.22.13-.46.22-.7.28-.24.05-.47.06-.67.02v-.47c.16.04.35.04.55,0,.2-.04.4-.11.59-.22.23-.14.38-.29.46-.47.07-.17.06-.35-.05-.52-.1-.17-.24-.27-.43-.29-.18-.02-.41.05-.66.2l-.25.15-.18-.31.22-1.43-1.51.89-.23-.39,2.06-1.22.18.3-.22,1.49c.32-.15.61-.19.87-.13Z"/>
        <path class="cls-5" d="M265.83,147.47c-.27-.01-.53-.11-.78-.29-.25-.18-.48-.43-.67-.76-.2-.33-.31-.65-.34-.96-.03-.31.01-.58.13-.82.12-.24.3-.43.55-.58.24-.14.5-.21.77-.2.27.01.53.11.78.28.25.18.47.43.67.76.2.33.31.65.34.96.03.3-.01.58-.13.82-.12.24-.3.43-.54.57-.25.15-.5.21-.77.2ZM266.79,146.21c.03-.29-.07-.64-.3-1.03-.23-.39-.48-.64-.75-.76-.27-.12-.53-.1-.78.05-.25.15-.39.37-.42.67-.03.3.07.64.3,1.03.23.39.48.64.75.76.27.12.53.1.79-.05.25-.15.39-.37.42-.66Z"/>
      </g>
      <g>
        <path class="cls-5" d="M145.59,265.23c.17-.12.36-.19.55-.2.2-.01.39.04.58.15.2.11.35.26.44.44.1.18.14.38.12.6-.01.22-.08.43-.2.64-.24.42-.56.67-.97.75-.4.08-.86-.03-1.36-.31-.35-.2-.62-.43-.79-.7s-.27-.55-.27-.84c0-.3.08-.59.25-.89.09-.15.18-.29.29-.41.11-.12.22-.21.34-.28l.26.37c-.19.09-.35.27-.49.52-.19.33-.23.64-.13.95.1.3.34.56.73.78.05.03.09.05.11.06-.09-.17-.12-.35-.1-.55.02-.2.09-.4.2-.59.12-.21.26-.37.43-.49ZM146.83,266.08c-.04-.19-.15-.34-.34-.45-.19-.11-.37-.12-.56-.06-.18.07-.34.21-.46.43-.08.14-.12.28-.13.42,0,.14.02.27.07.38.06.11.15.2.26.27.11.06.23.09.35.09.12,0,.25-.05.37-.13s.22-.2.31-.36c.12-.21.16-.41.12-.6Z"/>
        <path class="cls-5" d="M148.36,264.24c-.24.12-.51.17-.82.14-.31-.03-.63-.13-.96-.32-.33-.19-.59-.41-.77-.66-.18-.25-.28-.51-.3-.77-.02-.27.04-.52.19-.77.14-.25.33-.43.57-.55.24-.12.51-.17.82-.14.31.03.63.13.96.32.33.19.59.41.77.66.18.25.28.51.3.77.02.27-.04.52-.18.77-.14.25-.33.44-.57.56ZM148.56,262.67c-.12-.27-.38-.52-.77-.74-.39-.22-.74-.32-1.03-.28-.29.03-.51.18-.65.43-.15.26-.16.52-.04.79.12.27.38.52.77.74.39.22.74.32,1.03.28.29-.03.51-.18.66-.44.14-.25.15-.51.03-.78Z"/>
      </g>
      <g>
        <path class="cls-5" d="M101.9,426.38c.31-.27.76-.4,1.33-.41.4,0,.75.07,1.04.21.29.14.5.34.65.6.15.26.22.56.23.9,0,.18-.02.34-.05.5-.04.16-.09.29-.16.41l-.41-.19c.11-.18.17-.41.17-.7,0-.38-.12-.67-.36-.88s-.58-.31-1.02-.31h-.13c.16.1.28.25.36.43.08.18.13.39.13.62,0,.24-.04.45-.13.64-.09.19-.22.34-.38.44-.17.11-.36.16-.58.16-.23,0-.43-.05-.6-.16-.17-.11-.31-.26-.41-.46-.1-.19-.15-.41-.15-.65,0-.49.15-.86.46-1.13ZM103.16,427.02c-.06-.13-.15-.23-.26-.3-.11-.07-.23-.1-.36-.1-.13,0-.24.04-.35.1-.11.07-.19.17-.25.3-.06.13-.09.29-.09.47,0,.24.07.43.2.58.13.15.3.22.52.22s.38-.08.51-.23c.12-.15.19-.35.18-.6,0-.16-.03-.31-.1-.43Z"/>
        <path class="cls-5" d="M104.93,424.23c-.14.22-.36.4-.64.53-.28.13-.61.2-.99.2-.38,0-.72-.06-1-.18-.28-.13-.5-.3-.64-.52s-.22-.48-.23-.76c0-.28.07-.54.21-.76.14-.22.36-.4.64-.53.28-.13.61-.2.99-.2.38,0,.72.06,1,.18.28.13.5.3.65.52.15.22.22.48.23.76,0,.29-.07.54-.21.77ZM104.32,422.77c-.24-.17-.59-.26-1.04-.25-.45,0-.8.09-1.04.27-.24.18-.35.41-.35.7,0,.29.12.53.36.7.24.17.59.26,1.04.25s.8-.09,1.04-.27c.24-.18.35-.41.35-.71,0-.29-.12-.52-.36-.69Z"/>
      </g>
      <g>
        <path class="cls-5" d="M146.64,590.06l3.12-1.85.26.44-2.74,1.62.42.71-.39.23-.68-1.15Z"/>
        <path class="cls-5" d="M147.42,585.11l.39-.23,1.32,2.25-.3.18-1.98-.55c-.24-.07-.43-.1-.57-.08-.14,0-.27.05-.38.11-.16.1-.26.23-.28.4-.02.17.03.36.15.57.2.35.47.55.81.6l-.09.46c-.22-.03-.43-.13-.63-.27-.2-.15-.37-.35-.52-.59-.19-.33-.27-.64-.23-.92.04-.29.2-.51.47-.67.17-.1.35-.15.54-.17.19-.02.44.02.75.11l1.49.41-.94-1.6Z"/>
        <path class="cls-5" d="M146.85,583.57c-.02.27-.13.52-.31.77-.19.25-.45.46-.78.65-.34.18-.66.29-.97.31-.31.02-.58-.03-.81-.15s-.42-.31-.56-.57c-.14-.25-.19-.51-.17-.77.02-.27.12-.52.31-.77.19-.25.45-.46.78-.64.34-.19.66-.29.97-.31.31-.02.58.03.81.16.24.13.42.31.56.56.14.25.19.51.17.78ZM145.62,582.57c-.29-.04-.64.05-1.04.27-.4.22-.66.46-.79.73-.13.27-.12.53.02.78.14.26.36.41.65.45.29.04.64-.05,1.04-.27.4-.22.66-.46.79-.73.13-.27.12-.53-.02-.79-.14-.26-.36-.4-.65-.44Z"/>
      </g>
      <g>
        <path class="cls-5" d="M266.4,707.26l1.78-3.17.45.25-1.56,2.77.71.4-.22.39-1.16-.65Z"/>
        <path class="cls-5" d="M264.2,704.02c-.12-.29-.09-.58.08-.88.11-.19.25-.33.42-.43.17-.1.37-.14.6-.12.23.02.47.1.73.25.22.13.42.28.59.47.17.18.29.38.35.57l-.41.24c-.05-.16-.14-.32-.28-.48-.13-.16-.29-.29-.48-.39-.24-.13-.45-.19-.64-.16-.19.03-.33.13-.43.3-.11.19-.12.37-.03.55.09.18.31.37.66.57l.72.41-1.1,1.56-1.78-1.01.22-.39,1.4.8.58-.82-.35-.2c-.45-.26-.73-.53-.85-.82Z"/>
        <path class="cls-5" d="M263.3,701.52c.12.24.15.52.12.82-.04.3-.15.62-.35.95-.2.33-.43.58-.68.75s-.51.26-.78.27-.52-.06-.77-.21c-.24-.15-.42-.34-.53-.58-.11-.24-.15-.52-.12-.82s.15-.62.35-.95c.2-.33.43-.58.68-.75.26-.17.52-.26.78-.27.27,0,.52.06.76.21.25.15.42.34.54.59ZM261.74,701.27c-.27.11-.53.36-.76.75-.24.39-.34.73-.32,1.02.03.29.16.52.41.67.25.15.51.17.79.06.27-.11.53-.36.76-.75.24-.39.34-.73.32-1.02-.02-.3-.16-.52-.41-.67-.25-.15-.51-.17-.78-.06Z"/>
      </g>
      <g>
        <path class="cls-5" d="M428.83,748.88l-.04-3.63h.51s.04,3.17.04,3.17h.82s0,.44,0,.44l-1.33.02Z"/>
        <path class="cls-5" d="M424.81,746.84c-.11-.15-.17-.32-.17-.53,0-.22.05-.41.17-.57.12-.16.28-.29.5-.38.22-.09.47-.13.77-.14.29,0,.55.04.76.12.22.08.39.21.5.37.12.16.18.35.18.57,0,.21-.05.38-.16.54-.11.15-.27.27-.47.35.17.08.3.18.38.31.09.13.13.29.13.47,0,.2-.05.38-.16.53s-.26.27-.46.35c-.2.08-.42.12-.68.13-.26,0-.49-.04-.69-.11-.2-.08-.35-.19-.46-.34-.11-.15-.17-.32-.17-.52,0-.18.04-.33.13-.47.09-.13.21-.24.38-.32-.21-.08-.37-.19-.48-.34ZM425.41,745.83c-.17.12-.25.28-.25.49,0,.2.09.36.25.47s.39.17.68.17c.29,0,.51-.06.67-.18.16-.12.24-.28.24-.48,0-.2-.08-.37-.25-.48s-.39-.17-.68-.17c-.29,0-.51.06-.68.19ZM426.69,748.36c.14-.11.21-.25.21-.43s-.07-.32-.21-.42c-.14-.1-.34-.15-.58-.15-.25,0-.45.05-.59.16-.14.11-.21.25-.21.43,0,.18.08.32.22.43.15.1.34.15.59.15.25,0,.44-.06.58-.16Z"/>
        <path class="cls-5" d="M422.92,745.45c.22.15.39.37.51.65.12.28.18.62.17,1,0,.38-.08.71-.22.99-.13.28-.32.49-.54.63-.23.14-.48.21-.77.2-.28,0-.53-.09-.75-.24-.22-.15-.39-.37-.51-.65-.12-.28-.18-.62-.17-1,0-.38.08-.72.21-.99.13-.28.32-.49.54-.63.23-.14.48-.21.77-.2.29,0,.54.09.76.24ZM421.44,746.01c-.18.23-.28.58-.29,1.03-.01.45.07.8.24,1.04.17.24.4.37.69.38.29,0,.53-.11.71-.34.18-.23.28-.58.29-1.03.01-.45-.07-.8-.24-1.04-.17-.24-.4-.37-.69-.38-.29,0-.53.11-.71.34Z"/>
      </g>
      <g>
        <path class="cls-5" d="M587.23,701.77l-.23-.39,2.25-1.33.18.3-.55,1.98c-.07.24-.09.43-.08.57.01.14.05.27.11.38.1.16.23.26.4.28.17.02.36-.03.57-.16.35-.2.55-.47.6-.81l.46.08c-.03.22-.13.43-.27.63-.15.2-.35.37-.59.52-.33.19-.63.27-.92.23-.29-.04-.51-.2-.67-.47-.1-.17-.16-.35-.17-.54-.02-.19.02-.44.1-.75l.41-1.49-1.6.95Z"/>
        <path class="cls-5" d="M587.05,705.56l-1.84-3.13.44-.26,1.61,2.74.71-.42.23.39-1.15.68Z"/>
        <path class="cls-5" d="M583.57,703.58c.27.02.52.13.77.31s.46.45.65.78c.18.34.29.66.31.97.02.31-.03.58-.15.81-.13.24-.31.42-.57.56-.25.14-.51.19-.77.17-.27-.02-.52-.13-.77-.31-.25-.19-.46-.45-.65-.78-.18-.34-.29-.66-.31-.97-.02-.31.03-.58.15-.81s.31-.42.56-.56c.25-.14.51-.2.78-.17ZM582.57,704.81c-.04.29.05.64.27,1.04.22.4.46.66.73.78.27.13.53.12.79-.02.26-.14.41-.36.45-.65.04-.29-.05-.64-.27-1.04-.22-.4-.46-.66-.73-.79-.27-.13-.53-.12-.79.02-.25.14-.4.36-.44.65Z"/>
      </g>
      <g>
        <path class="cls-5" d="M704.15,583.05l-.39-.22,1.28-2.27.31.17.52,1.99c.06.24.13.42.21.54.08.12.17.21.29.27.17.09.33.11.48.04.16-.06.3-.21.42-.42.2-.35.23-.68.11-1l.44-.16c.08.21.11.44.08.68-.03.25-.11.5-.25.74-.19.33-.41.55-.68.66-.27.11-.54.08-.81-.07-.17-.1-.31-.22-.42-.38-.11-.16-.21-.39-.29-.7l-.39-1.49-.91,1.62Z"/>
        <path class="cls-5" d="M702.55,586.75l.34-.6-.78-.44.25-.44.78.44.99-1.76.32.18,1.15,2.79-.28.49-1.12-2.68-.69,1.21.69.39-.24.42-.69-.39-.34.6-.39-.22Z"/>
        <path class="cls-5" d="M701.14,587.74c.24-.11.52-.15.82-.12.31.04.62.16.95.36.33.2.58.43.75.68.17.25.26.52.27.78s-.06.52-.21.77c-.15.24-.34.42-.58.53-.24.11-.52.15-.82.12s-.62-.15-.95-.35c-.33-.2-.58-.43-.75-.68-.17-.26-.26-.52-.27-.78,0-.27.06-.52.21-.76.15-.24.35-.42.59-.54ZM700.89,589.3c.11.27.36.53.75.76.39.24.73.34,1.02.32.29-.02.52-.16.67-.41.15-.25.17-.51.06-.79-.11-.27-.36-.53-.75-.76-.39-.24-.73-.34-1.02-.32s-.52.16-.67.41c-.15.25-.17.51-.06.78Z"/>
      </g>
      <g>
        <path class="cls-5" d="M745.67,422.63h-.45s-.03-2.6-.03-2.6h.35s1.44,1.46,1.44,1.46c.18.18.33.3.45.36.13.06.25.09.38.09.19,0,.34-.07.44-.21.1-.13.15-.33.15-.58,0-.4-.14-.71-.41-.92l.3-.36c.17.14.31.32.41.55.1.23.15.48.15.77,0,.38-.08.68-.26.91-.18.23-.42.34-.74.35-.19,0-.38-.04-.55-.12-.17-.08-.37-.24-.6-.47l-1.08-1.1.02,1.86Z"/>
        <path class="cls-5" d="M748.87,426.19h-.35s-3.29-1.44-3.29-1.44v-.55s3.19,1.41,3.19,1.41v-1.66s-.66,0-.66,0v-.5s1.09,0,1.09,0l.02,2.74Z"/>
        <path class="cls-5" d="M745.41,427.8c.15-.22.37-.39.65-.51.28-.12.62-.18,1-.17.38,0,.71.08.99.22s.49.32.63.54c.14.23.21.48.2.77,0,.28-.09.54-.24.75-.15.22-.37.39-.65.51-.28.12-.62.18-1,.17-.38,0-.72-.08-.99-.22-.28-.13-.49-.32-.63-.54-.14-.23-.21-.48-.2-.77,0-.29.09-.54.24-.76ZM745.97,429.28c.23.18.58.28,1.03.29.45.01.8-.07,1.04-.24.24-.17.37-.4.38-.69,0-.29-.11-.53-.34-.71-.23-.18-.58-.28-1.03-.29-.45-.01-.8.07-1.04.24-.24.17-.37.4-.38.69,0,.29.11.53.34.71Z"/>
      </g>
      <g>
        <path class="cls-5" d="M702.35,261.57c-.06.26-.22.46-.47.6-.18.11-.37.16-.56.15-.2,0-.39-.07-.58-.2-.19-.13-.36-.32-.51-.57-.13-.22-.23-.46-.28-.7-.05-.25-.06-.47-.02-.67h.47c-.04.16-.04.35,0,.55.04.2.11.4.22.58.14.23.3.38.47.46.18.07.35.05.52-.05.17-.1.27-.25.29-.43.02-.18-.05-.41-.2-.67l-.15-.25.31-.19,1.43.21-.89-1.5.39-.23,1.23,2.06-.3.18-1.49-.22c.15.32.2.61.13.87Z"/>
        <path class="cls-5" d="M701.99,264.12c.01-.27.11-.53.29-.78s.43-.48.76-.67.65-.31.96-.34c.31-.03.58.01.82.13.24.12.43.3.58.55.14.25.21.5.19.77-.01.27-.11.53-.28.78-.18.25-.43.48-.76.67s-.65.31-.96.34c-.31.03-.58-.01-.82-.13-.24-.12-.43-.3-.58-.54-.14-.25-.21-.5-.2-.77ZM703.24,265.08c.3.03.64-.07,1.03-.3.39-.23.64-.48.76-.75.12-.27.1-.53-.05-.78-.15-.25-.37-.39-.66-.42-.29-.03-.64.07-1.03.3-.39.23-.64.48-.76.75-.12.27-.1.53.05.79.15.25.37.39.66.42Z"/>
        <path class="cls-5" d="M703.97,267.54c.02-.27.13-.52.31-.77.18-.25.45-.46.78-.65.34-.18.66-.29.97-.31.31-.02.58.03.81.15.24.13.42.31.56.57.14.25.19.51.17.77-.02.27-.13.52-.31.77-.18.25-.45.46-.78.65-.34.18-.66.29-.97.31s-.58-.03-.81-.16c-.24-.12-.42-.31-.56-.56-.14-.25-.2-.51-.17-.78ZM705.19,268.54c.29.04.64-.05,1.04-.27.4-.22.66-.46.79-.73.13-.27.12-.53-.02-.78-.14-.26-.36-.41-.65-.45s-.64.05-1.04.27c-.4.22-.66.46-.79.73-.13.27-.12.53.02.79.14.26.35.4.65.44Z"/>
      </g>
      <g>
        <path class="cls-5" d="M583.6,145.04c.07.25.04.5-.1.75-.1.18-.24.32-.41.41-.17.1-.37.14-.6.12-.23-.02-.47-.1-.73-.24-.23-.13-.42-.28-.59-.47-.17-.19-.29-.38-.35-.57l.41-.24c.05.16.14.32.28.48.13.16.3.29.49.4.23.13.45.18.63.16.19-.03.33-.13.43-.3.1-.17.11-.35.04-.52-.08-.17-.24-.33-.51-.48l-.25-.14.18-.32,1.34-.53-1.52-.86.22-.39,2.09,1.17-.17.31-1.4.56c.29.2.48.43.55.69Z"/>
        <path class="cls-5" d="M586.6,146.75c.07.25.04.5-.11.75-.1.18-.24.32-.41.41s-.37.13-.6.12c-.23-.02-.47-.1-.73-.24-.23-.13-.42-.28-.59-.47s-.29-.38-.35-.57l.41-.24c.05.16.14.32.28.48s.3.29.48.4c.23.13.45.19.63.16.19-.03.33-.12.43-.3.1-.17.11-.35.04-.52-.07-.17-.24-.33-.51-.48l-.25-.14.18-.32,1.35-.52-1.52-.86.22-.39,2.09,1.18-.17.31-1.4.55c.29.21.48.44.55.69Z"/>
        <path class="cls-5" d="M587.54,149.14c-.11-.24-.15-.52-.12-.82.04-.31.15-.62.36-.95.2-.33.43-.58.68-.75.26-.17.52-.26.78-.27s.52.06.77.21c.24.15.42.34.53.58.11.24.15.51.12.82-.04.31-.15.62-.36.95-.2.33-.43.58-.68.75-.26.17-.52.26-.78.27-.27.01-.52-.06-.76-.21-.24-.15-.42-.35-.54-.59ZM589.1,149.39c.27-.11.53-.36.76-.75.24-.39.34-.73.32-1.02-.03-.29-.16-.52-.41-.67-.25-.15-.51-.17-.79-.06-.27.11-.53.36-.76.75-.24.39-.34.73-.32,1.02.03.3.16.52.42.67.25.15.51.17.78.06Z"/>
      </g>
      <path class="cls-5" d="M424.26,104.97c-.22-.14-.4-.36-.53-.64-.13-.28-.2-.61-.2-.99,0-.38.06-.72.18-1,.13-.28.3-.5.52-.64.22-.15.48-.22.76-.23.28,0,.54.07.76.21.22.14.4.36.53.64.13.28.2.61.2.99,0,.38-.06.72-.18,1-.12.28-.3.5-.52.65-.22.15-.47.22-.76.23-.29,0-.54-.07-.77-.21ZM425.72,104.36c.17-.24.26-.59.25-1.04,0-.45-.09-.8-.27-1.04-.18-.24-.41-.35-.7-.35-.29,0-.53.12-.7.36-.17.24-.26.59-.25,1.04,0,.45.09.8.27,1.04.18.24.41.35.71.35.29,0,.52-.12.69-.36Z"/>
      <g>
        <path class="cls-5" d="M218.52,179.63l-.52.45.58.68-.38.33-.58-.68-1.54,1.31-.24-.28-.13-3.01.43-.36.13,2.9,1.06-.91-.51-.6.37-.32.51.6.52-.45.29.34Z"/>
        <path class="cls-5" d="M220.2,179.17c-.27.03-.54-.02-.82-.15-.28-.13-.54-.34-.79-.63-.25-.29-.42-.59-.5-.88-.08-.3-.09-.57-.02-.83.07-.26.22-.48.44-.66.22-.18.46-.29.72-.33.27-.03.54.02.82.14.28.13.54.34.79.63.25.29.42.59.5.88.08.3.09.57.02.83-.08.26-.22.48-.44.66-.22.19-.46.3-.72.33ZM220.92,177.77c-.02-.3-.18-.61-.47-.96-.29-.34-.59-.55-.87-.62-.29-.07-.54,0-.76.18-.22.19-.32.43-.3.73s.18.61.47.96c.29.34.59.55.87.62.29.07.54,0,.77-.18.22-.19.32-.43.3-.72Z"/>
      </g>
      <g>
        <path class="cls-5" d="M120.77,315.22l.33.12,2.6,2.48-.18.52-2.52-2.42-.56,1.56.61.22-.17.47-1.04-.37.92-2.58Z"/>
        <path class="cls-5" d="M124.59,314.87c-.21.16-.47.26-.78.28-.31.03-.64-.02-1-.15-.36-.13-.65-.3-.87-.51-.22-.21-.36-.45-.43-.71-.06-.26-.05-.52.05-.79.09-.27.25-.48.46-.64.21-.16.47-.26.78-.28.31-.03.64.02,1,.15s.65.3.87.51c.22.21.37.45.43.71.06.26.05.52-.05.79-.1.27-.25.49-.46.65ZM124.52,313.29c-.17-.25-.46-.44-.89-.59-.43-.15-.78-.18-1.07-.1-.28.09-.47.26-.57.54-.1.28-.06.54.1.78.17.24.46.44.89.59.43.15.78.18,1.07.1.28-.09.47-.27.57-.54.1-.27.06-.53-.1-.78Z"/>
      </g>
      <g>
        <path class="cls-5" d="M107.07,485.07l3.57-.67.1.5-3.12.59.15.81-.44.08-.25-1.31Z"/>
        <path class="cls-5" d="M110.11,482.45c-.1.25-.28.46-.53.63-.25.18-.57.3-.94.37-.38.07-.72.07-1.01,0-.3-.08-.54-.21-.73-.4-.19-.19-.3-.43-.36-.71-.05-.28-.03-.54.08-.79.1-.25.28-.46.53-.63.25-.18.57-.3.94-.37.38-.07.72-.07,1.01,0,.3.07.54.21.73.4.19.19.3.43.35.71.05.28.03.55-.08.79ZM109.25,481.12c-.27-.13-.62-.15-1.07-.07s-.77.23-.97.45c-.2.21-.28.47-.23.75.05.29.21.5.48.63.27.13.62.15,1.07.07.44-.08.77-.23.97-.45.2-.22.28-.47.22-.76-.05-.29-.21-.49-.48-.62Z"/>
        <path class="cls-5" d="M109.41,478.56c-.11.24-.3.45-.55.62-.26.17-.58.28-.96.34-.38.06-.72.04-1.01-.04-.3-.08-.53-.23-.71-.42-.18-.2-.29-.44-.33-.72-.04-.28,0-.54.1-.78.11-.24.3-.45.55-.62.26-.17.58-.28.96-.34.38-.06.72-.04,1.01.04.3.08.53.23.71.42.18.2.29.44.33.72.04.28,0,.55-.1.79ZM108.6,477.2c-.26-.14-.62-.17-1.07-.1-.45.07-.78.21-.99.41-.21.21-.29.46-.25.74.04.29.2.5.46.64.26.14.62.17,1.06.1.45-.07.78-.21.99-.41.21-.21.29-.46.25-.75-.04-.29-.2-.5-.46-.64Z"/>
      </g>
      <g>
        <path class="cls-5" d="M179.47,635.91l2.76-2.37.33.39-2.41,2.07.53.62-.34.29-.87-1.01Z"/>
        <path class="cls-5" d="M178.61,632.04c.02-.26.14-.49.36-.67.16-.13.33-.22.53-.25.2-.03.4,0,.6.09.21.09.41.25.6.48.17.2.3.41.4.64s.14.45.13.66l-.47.09c0-.17-.02-.35-.1-.55-.07-.19-.18-.37-.32-.54-.17-.2-.35-.33-.54-.37-.18-.04-.35,0-.51.13-.15.13-.22.29-.21.47.01.18.12.39.31.62l.19.22-.28.24-1.44.03,1.14,1.33-.34.29-1.56-1.82.27-.23,1.51-.04c-.21-.29-.3-.57-.28-.83Z"/>
        <path class="cls-5" d="M178.55,629.47c.02.27-.03.54-.17.81-.14.27-.36.53-.66.77-.3.24-.6.4-.9.47-.3.08-.58.07-.83-.01-.25-.08-.47-.24-.65-.46-.18-.22-.28-.47-.3-.73-.03-.27.03-.54.17-.81.14-.28.36-.53.66-.77.3-.24.6-.4.9-.47.3-.08.58-.07.83.01.25.08.47.23.65.46.18.23.28.47.31.74ZM177.17,628.71c-.3.01-.62.16-.97.44-.35.28-.57.57-.65.85-.08.29-.03.54.16.77.18.23.42.34.72.33.3-.01.62-.16.97-.44.35-.28.57-.57.65-.85.08-.29.02-.54-.16-.77-.18-.23-.42-.33-.71-.32Z"/>
      </g>
      <g>
        <path class="cls-5" d="M317.9,730.61l1.2-3.43.49.17-1.05,3,.77.27-.15.43-1.26-.44Z"/>
        <path class="cls-5" d="M315.11,727.95c-.15-.15-.24-.32-.29-.51-.05-.2-.03-.39.04-.6.08-.21.2-.38.36-.51.16-.13.35-.2.57-.22.22-.02.44,0,.67.08.46.16.76.44.91.82.14.38.12.85-.07,1.39-.13.38-.32.68-.55.9-.23.22-.49.36-.78.41-.29.05-.6.02-.92-.09-.17-.06-.32-.13-.45-.22-.13-.09-.24-.18-.33-.28l.32-.32c.12.17.32.3.6.39.36.13.67.12.95-.03.28-.15.5-.43.65-.85.02-.05.03-.09.04-.12-.15.11-.32.18-.52.19-.2.02-.41-.01-.62-.09-.23-.08-.41-.19-.56-.34ZM315.72,726.58c-.18.07-.31.21-.38.41-.07.2-.06.39.04.56.1.17.27.3.51.38.15.05.3.07.44.06.14-.02.26-.06.36-.14.1-.08.18-.18.22-.3.04-.12.05-.24.02-.36-.03-.12-.09-.23-.19-.34-.1-.1-.24-.19-.41-.25-.22-.08-.43-.08-.61-.01Z"/>
        <path class="cls-5" d="M313.64,725.4c.15.22.24.48.26.79.02.31-.04.64-.18,1s-.32.64-.54.86c-.22.21-.46.35-.72.41-.26.05-.53.03-.79-.07-.26-.1-.47-.26-.63-.48-.16-.22-.24-.48-.26-.79-.02-.31.04-.64.18-1,.14-.36.32-.64.54-.86.22-.21.46-.35.72-.4.26-.06.53-.03.79.07.27.11.48.27.63.48ZM312.06,725.43c-.25.16-.46.45-.62.87-.16.42-.21.78-.13,1.06.08.29.25.48.52.59.27.11.53.08.78-.08s.46-.45.62-.87c.17-.42.21-.78.13-1.06-.08-.29-.25-.48-.52-.59-.27-.11-.53-.08-.78.08Z"/>
      </g>
      <g>
        <path class="cls-5" d="M484.94,743.32l-.67-3.57.5-.09.59,3.12.81-.15.08.44-1.31.25Z"/>
        <path class="cls-5" d="M481.31,743.55c-.32-.26-.53-.68-.63-1.24-.07-.4-.06-.75.02-1.06.09-.31.25-.56.47-.75.23-.19.51-.32.85-.38.17-.03.34-.04.5-.04.16,0,.3.04.43.08l-.12.43c-.19-.08-.43-.09-.72-.04-.37.07-.64.24-.81.5-.17.27-.21.62-.13,1.06l.02.13c.07-.17.19-.31.36-.43.17-.11.36-.19.59-.23.23-.04.45-.04.65.02.2.05.37.15.5.3.14.15.22.33.26.54.04.22.02.43-.06.62-.08.19-.21.35-.38.48-.17.13-.38.21-.62.26-.48.09-.88,0-1.2-.26ZM481.71,742.19c-.12.08-.2.19-.25.3-.05.12-.06.24-.04.37.02.13.08.23.16.33.08.09.2.16.34.2.14.04.3.04.48,0,.23-.04.41-.14.53-.3.12-.15.16-.33.12-.54-.04-.21-.14-.37-.31-.46-.17-.1-.38-.12-.63-.08-.16.03-.3.09-.41.17Z"/>
        <path class="cls-5" d="M478.65,740.95c.24.11.45.3.62.55.17.26.28.58.34.96.06.38.04.72-.04,1.01-.08.3-.23.53-.42.71-.2.18-.44.29-.72.33-.28.04-.54,0-.78-.1s-.45-.3-.62-.55c-.17-.26-.28-.58-.34-.96-.06-.38-.04-.72.04-1.01.08-.3.23-.53.42-.71.2-.18.44-.29.72-.33.29-.04.55,0,.79.1ZM477.29,741.76c-.14.26-.17.62-.1,1.06.07.45.21.78.41.99.21.21.46.29.74.25.29-.04.5-.2.64-.46s.17-.62.1-1.06c-.07-.45-.21-.78-.41-.99-.21-.21-.46-.29-.75-.25-.29.04-.5.2-.64.46Z"/>
      </g>
      <g>
        <path class="cls-5" d="M633.16,669.08l-.29-.34,1.98-1.7.23.27-.19,2.05c-.02.25-.02.44.02.58s.09.25.18.35c.12.14.27.21.44.21.17,0,.35-.09.54-.25.3-.26.45-.56.45-.9h.47c0,.23-.05.45-.16.67-.11.22-.27.43-.49.61-.29.25-.58.38-.87.39-.29,0-.54-.1-.74-.34-.13-.15-.21-.31-.26-.5-.05-.19-.06-.44-.03-.76l.14-1.53-1.41,1.21Z"/>
        <path class="cls-5" d="M630.5,671.34l-.29-.34,1.99-1.69.23.27-.2,2.05c-.02.25-.02.44.01.58.04.14.09.25.18.35.12.14.27.21.44.21.17,0,.35-.09.54-.25.3-.26.46-.56.45-.9h.47c0,.23-.05.45-.16.67-.11.22-.28.43-.49.61-.29.25-.58.38-.87.38-.29,0-.53-.11-.74-.34-.13-.15-.21-.31-.26-.5-.05-.19-.06-.44-.02-.76l.15-1.53-1.42,1.21Z"/>
        <path class="cls-5" d="M629.08,672.16c.27-.03.54.03.81.17.28.14.53.36.77.66.24.3.4.6.47.9.07.3.07.57-.01.83-.08.25-.24.47-.46.65-.22.18-.47.28-.73.3s-.54-.03-.81-.17c-.27-.14-.53-.36-.77-.66-.24-.3-.4-.6-.47-.9-.08-.3-.07-.58.01-.83.08-.25.23-.47.46-.65.22-.18.47-.28.74-.3ZM628.31,673.54c.01.3.16.62.44.97.28.36.57.57.85.65.29.08.54.03.77-.16.23-.18.34-.42.33-.72-.01-.3-.16-.62-.44-.97-.28-.35-.57-.57-.85-.65s-.54-.02-.77.16c-.23.18-.33.42-.32.72Z"/>
      </g>
      <g>
        <path class="cls-5" d="M727.28,532.42l-.42-.15.86-2.46.33.12.86,1.87c.1.23.2.39.3.49.1.1.21.17.33.21.18.06.34.05.48-.04.14-.09.26-.25.34-.49.13-.38.11-.71-.06-1.01l.4-.23c.12.19.18.41.2.66.01.25-.02.51-.12.77-.13.36-.31.61-.56.77-.25.15-.52.18-.81.07-.18-.06-.34-.16-.48-.3-.14-.13-.27-.35-.4-.64l-.64-1.4-.62,1.76Z"/>
        <path class="cls-5" d="M727.57,535.86c-.27.16-.56.19-.88.08-.2-.07-.37-.18-.49-.34s-.2-.34-.23-.57c-.03-.23.01-.48.11-.77.08-.24.2-.46.36-.66.15-.2.32-.35.5-.45l.31.36c-.15.08-.3.2-.43.36-.13.16-.23.34-.3.54-.09.26-.11.48-.05.66.06.18.18.3.37.37.21.07.39.05.55-.07.16-.12.31-.37.44-.75l.28-.78,1.73.82-.69,1.93-.43-.15.54-1.52-.91-.43-.13.38c-.17.49-.39.82-.66.98Z"/>
        <path class="cls-5" d="M725.26,537.19c.22-.15.48-.24.79-.26.31-.02.64.04,1,.18.36.14.64.32.86.54.21.22.35.46.4.72.06.26.03.53-.07.79-.1.26-.26.47-.48.63-.22.15-.48.24-.79.26-.31.02-.64-.04-1-.18-.36-.14-.64-.32-.86-.54-.21-.22-.35-.46-.41-.72-.05-.26-.03-.52.07-.79.11-.27.27-.48.48-.63ZM725.28,538.76c.16.25.45.46.87.62.42.16.78.21,1.06.13.29-.08.48-.25.59-.52.11-.27.08-.54-.08-.79-.16-.25-.45-.46-.87-.62-.42-.17-.78-.21-1.06-.13-.29.08-.48.25-.59.52-.11.27-.08.53.08.78Z"/>
      </g>
      <g>
        <path class="cls-5" d="M740.35,366.84l-.44.09-.48-2.56.35-.07,1.68,1.19c.2.15.37.24.51.27.14.04.27.04.39.02.19-.03.32-.13.4-.28.08-.15.1-.35.05-.59-.07-.39-.26-.67-.56-.84l.24-.4c.2.11.36.26.5.47.14.21.23.45.29.73.07.37.04.69-.1.94-.14.26-.36.41-.66.47-.19.04-.38.03-.56-.02s-.41-.17-.67-.35l-1.26-.89.35,1.83Z"/>
        <path class="cls-5" d="M742.09,370.22c-.13.14-.29.22-.49.26-.21.04-.41.02-.59-.07-.18-.09-.33-.23-.46-.43-.12-.2-.21-.44-.27-.73-.05-.29-.06-.54-.01-.77.04-.23.14-.41.27-.56.14-.15.31-.24.53-.28.2-.04.39-.02.55.06.17.08.31.22.42.41.05-.18.13-.32.24-.43.11-.11.26-.18.44-.21.2-.04.38-.02.55.07.17.08.31.21.42.39s.2.4.24.65c.05.26.05.49,0,.7-.04.21-.13.38-.25.52-.13.13-.29.22-.48.26-.17.03-.33.02-.48-.05-.15-.06-.27-.17-.38-.32-.04.22-.12.39-.25.53ZM741,369.81c.15.14.32.19.52.16.2-.04.34-.15.42-.33.08-.18.1-.42.05-.7s-.15-.49-.29-.63c-.14-.14-.31-.19-.51-.15-.2.04-.34.15-.43.33-.09.18-.11.41-.05.7.05.28.15.49.3.64ZM743.26,368.11c-.13-.12-.28-.17-.46-.13-.18.03-.3.13-.38.28-.08.16-.09.36-.05.6.04.25.13.43.26.55.13.12.28.17.46.13.18-.03.3-.13.38-.29.08-.16.09-.37.05-.61-.05-.24-.13-.42-.26-.54Z"/>
        <path class="cls-5" d="M741.04,372.3c.11-.24.3-.45.55-.62.26-.17.58-.28.96-.34s.72-.04,1.01.04c.3.08.53.23.71.42.18.2.29.44.33.72.04.28,0,.54-.1.78-.11.24-.3.45-.55.62-.26.17-.58.28-.96.34-.38.06-.72.04-1.01-.04-.3-.08-.53-.23-.71-.42-.18-.2-.29-.44-.33-.72-.04-.28,0-.55.1-.79ZM741.85,373.65c.26.14.62.17,1.06.1.45-.07.78-.21.99-.41.21-.21.29-.46.25-.74-.04-.29-.2-.51-.46-.64-.26-.14-.62-.17-1.07-.1-.45.07-.78.21-.99.41-.21.21-.29.46-.25.75.04.29.2.5.46.64Z"/>
      </g>
      <g>
        <path class="cls-5" d="M670.2,216.5c-.02.26-.14.49-.36.67-.16.13-.33.22-.53.25s-.4,0-.61-.09c-.21-.09-.41-.25-.6-.48-.17-.2-.3-.41-.4-.64-.1-.23-.14-.45-.13-.66l.47-.09c0,.17.02.35.1.55.07.19.18.37.32.54.18.21.36.33.54.37.19.04.35,0,.51-.14s.22-.29.21-.47c-.01-.18-.12-.39-.31-.62l-.19-.22.28-.24,1.45-.04-1.14-1.33.34-.29,1.56,1.82-.27.23-1.51.04c.21.29.3.57.28.83Z"/>
        <path class="cls-5" d="M673.17,217.14l-2.76,2.36-.33-.39,2.42-2.06-.53-.62.34-.29.87,1.02Z"/>
        <path class="cls-5" d="M671.84,220.91c-.03-.27.03-.54.17-.81.14-.27.36-.53.66-.77.3-.24.6-.4.9-.47.3-.08.58-.07.83.01.25.08.47.24.65.46.18.22.28.47.3.73.03.27-.03.54-.17.81-.14.27-.36.53-.66.77-.3.24-.6.4-.9.47-.3.07-.58.07-.83-.01-.25-.08-.47-.24-.65-.46-.18-.22-.28-.47-.3-.73ZM673.22,221.68c.3-.01.62-.16.97-.44.36-.28.57-.57.65-.85.08-.29.03-.54-.16-.77-.18-.23-.42-.34-.72-.33-.3.01-.62.16-.97.44-.35.28-.57.57-.65.85-.08.29-.03.54.16.77.18.23.42.33.72.32Z"/>
      </g>
      <g>
        <path class="cls-5" d="M532.32,121.72c.12.24.12.49.03.76-.07.2-.18.36-.33.48-.15.12-.34.2-.57.22-.23.02-.48-.01-.76-.11-.24-.09-.47-.2-.67-.36-.2-.15-.35-.32-.45-.5l.36-.31c.08.15.2.29.36.42.16.13.34.23.55.3.26.09.47.11.65.05.18-.06.3-.18.37-.37.07-.19.05-.36-.06-.51-.1-.15-.3-.28-.58-.38l-.27-.1.12-.34,1.23-.76-1.65-.58.15-.43,2.26.79-.12.33-1.28.79c.33.15.54.34.66.58Z"/>
        <path class="cls-5" d="M536.22,124.05l-.65-.23-.3.84-.47-.17.3-.84-1.9-.67.12-.34,2.55-1.62.53.19-2.44,1.57,1.31.47.26-.74.46.16-.26.74.65.23-.15.42Z"/>
        <path class="cls-5" d="M537.4,125.25c-.16-.22-.24-.48-.26-.79-.02-.31.04-.64.18-1,.14-.36.32-.64.54-.86.22-.21.46-.35.72-.4.26-.05.53-.03.79.07.26.1.47.26.63.48.15.22.24.48.26.79.02.31-.04.64-.18,1-.14.36-.32.64-.54.86-.22.21-.46.35-.72.4-.26.06-.52.03-.79-.07-.27-.11-.48-.27-.63-.48ZM538.98,125.23c.25-.16.46-.45.62-.87.17-.42.21-.78.13-1.06-.08-.29-.25-.48-.52-.59-.27-.11-.54-.08-.78.08-.25.16-.46.45-.62.87-.17.42-.21.78-.14,1.06.08.29.25.48.52.59.27.11.53.08.78-.08Z"/>
      </g>
      <g>
        <path class="cls-5" d="M367.28,106.71l.66,3.57-.51.09-.58-3.13-.81.15-.08-.44,1.31-.24Z"/>
        <path class="cls-5" d="M369.9,109.76c-.25-.1-.46-.28-.63-.53-.18-.25-.3-.57-.37-.94-.07-.38-.07-.72,0-1.01.08-.3.21-.54.4-.73.19-.18.43-.3.71-.36.28-.05.54-.03.79.08.25.11.46.28.63.53.18.25.3.57.37.94.07.38.07.72,0,1.01-.08.3-.21.54-.4.73-.19.18-.43.3-.71.35-.28.05-.55.03-.79-.08ZM371.23,108.91c.13-.27.15-.62.07-1.07-.08-.45-.23-.77-.45-.97-.22-.2-.47-.28-.75-.23-.29.05-.5.21-.63.48-.13.27-.15.62-.07,1.07.08.45.23.77.45.97.22.2.47.28.76.22.28-.05.49-.21.62-.48Z"/>
      </g>
      <g>
        <path class="cls-5" d="M177.76,219.11c.31-.06.59.01.85.23.17.14.28.3.35.49.07.19.07.39.02.61-.05.22-.18.45-.37.68-.16.2-.35.36-.56.5-.21.13-.42.22-.63.25l-.17-.45c.17-.02.34-.08.52-.19.18-.1.33-.24.47-.4.17-.21.26-.41.27-.6,0-.19-.07-.35-.22-.48-.17-.14-.35-.18-.54-.12-.19.06-.42.24-.67.55l-.53.64-1.34-1.36,1.3-1.58.35.29-1.03,1.24.71.71.26-.31c.33-.4.65-.63.95-.7Z"/>
        <path class="cls-5" d="M180.38,218.67c-.26.08-.53.08-.83,0-.3-.08-.6-.24-.89-.49-.3-.24-.51-.51-.65-.78s-.19-.55-.16-.81c.03-.27.13-.51.32-.73.18-.22.4-.37.65-.45.25-.08.53-.08.83,0,.3.08.59.24.89.49.3.24.51.51.65.78.13.28.19.55.16.81-.03.27-.13.51-.31.73-.18.22-.4.37-.66.45ZM180.85,217.16c-.07-.29-.28-.57-.63-.86-.35-.29-.67-.44-.97-.46-.3-.02-.54.09-.72.31-.19.23-.24.48-.17.77.07.29.28.57.63.86.35.29.67.44.97.46.3.02.54-.09.72-.31.18-.22.24-.48.17-.77Z"/>
      </g>
      <g>
        <path class="cls-5" d="M108.27,370.15c.17-.08.35-.11.55-.07.21.04.39.12.53.27s.23.33.28.56c.05.23.05.49,0,.78-.05.29-.13.53-.25.73-.12.2-.27.34-.45.43-.18.09-.37.12-.59.08-.2-.03-.37-.12-.5-.25-.13-.13-.22-.31-.26-.52-.11.15-.23.26-.38.32-.14.06-.3.08-.48.05-.2-.03-.36-.12-.49-.25-.13-.13-.22-.3-.26-.51-.05-.21-.05-.44,0-.69.04-.26.12-.48.23-.66.11-.18.25-.32.41-.4.17-.08.35-.11.54-.07.17.03.32.1.44.21.12.11.2.25.25.43.11-.19.25-.33.42-.41ZM106.46,371.73c.08.16.21.25.39.28.18.03.33-.02.46-.14.12-.12.21-.3.25-.55.04-.25.02-.45-.06-.61-.08-.16-.21-.25-.38-.28-.18-.03-.33.02-.46.15-.13.13-.21.31-.25.55-.04.24-.02.44.06.6ZM109.17,370.91c-.09-.18-.24-.29-.44-.33-.2-.03-.37.02-.51.17-.14.14-.24.36-.28.64-.05.28-.03.51.06.69.09.18.23.29.43.32.2.03.37-.02.52-.16.14-.14.24-.35.29-.64.05-.28.03-.52-.06-.7Z"/>
        <path class="cls-5" d="M109.98,368.54c-.18.2-.42.33-.72.41-.3.08-.64.09-1.01.03-.38-.06-.7-.18-.95-.35-.26-.17-.44-.38-.55-.63-.11-.24-.14-.51-.09-.79.05-.28.16-.52.34-.71.18-.2.42-.33.72-.41.3-.08.64-.09,1.01-.02.38.06.7.18.95.35.26.17.44.38.54.63.11.24.14.51.09.79-.05.28-.16.52-.34.72ZM109.63,367c-.21-.21-.53-.36-.98-.43-.45-.08-.8-.05-1.07.09-.27.13-.42.34-.47.63-.05.29.03.54.24.75.21.21.53.36.98.43.45.07.8.05,1.07-.09.26-.13.42-.34.47-.63.05-.29-.03-.54-.24-.75Z"/>
      </g>
      <g>
        <path class="cls-5" d="M122.04,538.68l3.4-1.28.18.48-2.98,1.12.29.77-.42.16-.47-1.25Z"/>
        <path class="cls-5" d="M121.2,536.4l3.4-1.27.18.48-2.98,1.11.29.77-.42.16-.47-1.25Z"/>
        <path class="cls-5" d="M123.75,533.26c-.06.26-.2.5-.42.72-.22.22-.51.39-.87.53-.36.13-.69.19-1,.17s-.57-.11-.78-.27c-.22-.16-.37-.37-.47-.64-.1-.27-.12-.53-.06-.79.06-.26.2-.5.42-.72s.51-.39.87-.53c.36-.13.69-.19,1-.17s.57.11.78.27c.22.16.37.37.47.64.1.27.12.53.06.79ZM122.68,532.1c-.28-.08-.64-.04-1.06.12-.42.16-.72.36-.88.61-.16.25-.19.51-.09.78.1.27.3.45.58.53.28.08.64.04,1.06-.12.42-.16.72-.36.88-.61.16-.25.19-.51.09-.78-.1-.27-.3-.45-.58-.53Z"/>
      </g>
      <g>
        <path class="cls-5" d="M219.96,675.5l2.3-2.81.4.32-2.01,2.46.63.52-.29.35-1.03-.84Z"/>
        <path class="cls-5" d="M218.26,670.54l.53.44.57-.69.39.32-.57.69,1.56,1.28-.23.28-2.95.65-.43-.36,2.83-.64-1.08-.89-.5.61-.38-.31.5-.61-.53-.44.28-.34Z"/>
        <path class="cls-5" d="M217.53,668.99c.07.26.06.53-.03.83-.09.3-.26.59-.52.87-.25.29-.52.49-.8.62-.28.13-.55.17-.82.13-.27-.04-.5-.15-.72-.34-.21-.19-.35-.41-.42-.67-.07-.26-.06-.53.03-.83s.26-.59.51-.87c.25-.29.52-.49.8-.62.28-.13.55-.17.82-.13.26.04.5.15.72.34.22.19.36.41.43.67ZM216.04,668.47c-.29.06-.58.26-.88.61-.3.34-.46.66-.49.95-.03.3.07.54.29.73.22.19.47.26.76.2s.58-.26.88-.6.46-.66.49-.95c.03-.3-.07-.54-.29-.73-.22-.19-.47-.26-.76-.19Z"/>
      </g>
      <g>
        <path class="cls-5" d="M372.41,744.53l.59-3.58.51.08-.51,3.14.81.13-.07.45-1.31-.22Z"/>
        <path class="cls-5" d="M368.5,743.87l.06-.35,1.99-2.99.54.09-1.94,2.9,1.64.27.11-.64.49.08-.18,1.08-2.7-.45Z"/>
        <path class="cls-5" d="M367.51,740.19c.19.19.32.43.39.73.07.3.07.64,0,1.01-.08.38-.2.69-.39.94-.18.25-.39.42-.64.52-.25.1-.51.12-.79.07-.28-.06-.51-.18-.7-.37-.19-.19-.32-.43-.39-.73-.07-.3-.07-.64,0-1.01.08-.38.2-.69.38-.94.18-.25.39-.42.64-.52.25-.1.51-.12.79-.07.28.06.52.18.71.37ZM365.95,740.49c-.22.2-.37.52-.46.97-.09.44-.07.8.05,1.07.12.27.33.43.61.49.29.06.54-.01.76-.21s.37-.52.46-.97c.09-.44.07-.8-.05-1.07-.13-.27-.33-.43-.62-.49-.28-.06-.54.01-.75.21Z"/>
      </g>
      <g>
        <path class="cls-5" d="M537.45,725.42l-.16-.42,2.44-.92.12.33-.88,1.86c-.11.22-.17.41-.18.55-.01.14,0,.27.05.39.07.18.18.29.34.35.16.05.36.03.59-.06.38-.14.62-.37.73-.7l.44.16c-.07.21-.2.4-.38.57-.18.17-.4.31-.67.41-.36.13-.67.16-.95.07-.27-.09-.47-.28-.58-.57-.07-.18-.09-.37-.08-.56s.09-.43.23-.72l.66-1.39-1.74.66Z"/>
        <path class="cls-5" d="M535.79,725.73c.26.06.5.2.72.42.22.22.39.51.53.87.13.36.19.69.17,1-.02.31-.11.57-.27.79-.16.21-.37.37-.64.47-.27.1-.53.12-.79.06-.26-.06-.5-.2-.72-.42-.22-.22-.39-.51-.53-.87s-.19-.69-.17-1c.02-.31.11-.57.27-.78s.37-.37.64-.47c.27-.1.53-.12.79-.06ZM534.62,726.81c-.08.29-.04.64.12,1.06.16.43.36.72.61.88.25.16.51.19.78.09.28-.1.45-.3.53-.58.08-.28.04-.64-.12-1.06-.16-.42-.36-.72-.61-.88-.25-.16-.51-.19-.78-.09-.27.1-.45.29-.53.58Z"/>
        <path class="cls-5" d="M532.07,727.09c.26.07.49.21.7.44.21.22.38.52.5.88.12.36.17.7.14,1.01-.03.31-.13.56-.29.77-.16.21-.38.36-.65.45-.27.09-.53.1-.79.03-.26-.07-.49-.21-.7-.44-.21-.22-.38-.52-.5-.88s-.17-.7-.14-1.01c.03-.31.13-.56.29-.78.16-.21.38-.36.65-.45.27-.09.54-.1.8-.04ZM530.88,728.12c-.09.28-.06.64.08,1.07s.34.73.58.9c.24.17.5.21.78.12.28-.09.46-.28.55-.56.09-.28.06-.64-.08-1.07-.14-.43-.34-.73-.58-.9-.24-.17-.5-.21-.78-.12-.27.09-.46.28-.55.56Z"/>
      </g>
      <g>
        <path class="cls-5" d="M672.31,629.22l-.35-.29,1.65-2.02.27.22.17,2.05c.02.25.06.44.12.56.06.13.14.23.24.31.15.12.3.16.47.13.17-.04.33-.15.49-.34.25-.31.35-.63.28-.97l.46-.08c.04.22.03.45-.04.69s-.2.47-.38.69c-.24.3-.5.47-.79.53-.28.06-.54,0-.79-.21-.15-.12-.26-.27-.35-.45-.08-.17-.13-.42-.16-.74l-.12-1.54-1.18,1.44Z"/>
        <path class="cls-5" d="M671.32,632.48c-.26.03-.5-.05-.72-.23-.16-.13-.27-.29-.34-.48-.06-.19-.07-.39-.01-.61.05-.22.18-.45.37-.68.17-.2.35-.37.57-.5.21-.13.42-.22.62-.25l.16.44c-.17.02-.34.08-.52.19-.18.1-.34.24-.47.41-.17.21-.26.41-.27.6,0,.19.06.35.22.47.15.13.32.17.5.13.18-.04.37-.18.56-.41l.18-.22.28.23.28,1.42,1.11-1.35.35.29-1.52,1.85-.27-.22-.3-1.48c-.25.25-.51.39-.77.42Z"/>
        <path class="cls-5" d="M668.82,632.96c.26-.07.53-.06.83.03.29.09.59.26.87.51.29.25.49.52.62.8.12.28.17.55.13.82-.04.26-.15.5-.34.72-.19.21-.41.35-.67.42-.26.07-.53.06-.83-.03-.3-.09-.59-.26-.88-.51-.29-.25-.49-.52-.62-.8-.13-.28-.17-.55-.13-.82.04-.26.15-.5.34-.72.19-.22.41-.36.67-.43ZM668.31,634.46c.06.29.26.58.61.88.34.3.66.46.95.49.29.03.54-.07.73-.29.19-.22.26-.48.2-.76s-.27-.58-.61-.88c-.34-.3-.66-.46-.95-.49-.3-.03-.54.07-.73.29-.19.22-.26.47-.19.76Z"/>
      </g>
      <g>
        <path class="cls-5" d="M741.27,478.19l-.45-.07.42-2.58.35.06,1.17,1.69c.14.21.27.35.38.43s.23.13.36.15c.19.03.34-.01.47-.12.13-.11.21-.29.25-.54.06-.4-.02-.72-.24-.98l.36-.3c.15.17.25.37.31.62s.06.5.02.78c-.06.38-.2.66-.41.85-.22.19-.48.26-.79.21-.19-.03-.37-.1-.52-.21-.16-.11-.33-.3-.51-.56l-.88-1.27-.3,1.84Z"/>
        <path class="cls-5" d="M742.33,481.57c-.12.17-.27.3-.45.37-.18.08-.38.1-.6.06-.23-.04-.41-.13-.57-.27-.15-.14-.26-.31-.32-.52-.06-.21-.07-.43-.03-.67.08-.48.3-.83.65-1.03.35-.21.82-.26,1.39-.17.4.07.73.19.99.38.26.19.44.42.54.7s.12.59.07.92c-.03.17-.07.33-.14.48-.06.15-.14.27-.22.37l-.37-.26c.14-.15.24-.37.28-.66.06-.37,0-.68-.2-.93-.2-.25-.51-.41-.95-.48-.05,0-.1-.02-.13-.02.14.13.23.29.28.48.05.19.05.4.02.63-.04.24-.12.44-.24.61ZM740.87,481.21c.1.17.26.27.47.31.21.04.39-.01.54-.14.15-.13.24-.32.29-.56.03-.16.02-.31-.02-.44-.04-.14-.11-.25-.2-.33-.09-.09-.21-.14-.34-.16-.13-.02-.25,0-.36.04-.12.05-.21.13-.3.25-.09.12-.14.26-.17.44-.04.24,0,.44.09.6Z"/>
        <path class="cls-5" d="M740.07,483.43c.19-.19.43-.32.73-.39.3-.07.64-.07,1.01,0s.69.2.94.39c.25.18.42.39.52.64.1.25.12.51.07.79-.06.28-.18.51-.37.7-.19.19-.43.32-.73.39-.3.07-.64.07-1.01,0-.38-.08-.69-.2-.94-.38-.25-.18-.42-.39-.53-.64-.1-.25-.12-.51-.07-.79.06-.28.18-.52.37-.71ZM740.37,484.98c.2.22.52.37.97.46.44.09.8.07,1.07-.05.27-.12.43-.33.49-.61.06-.29-.01-.54-.21-.76-.2-.22-.52-.37-.97-.46-.44-.09-.8-.07-1.07.05-.27.12-.43.33-.49.62-.06.28.01.54.21.75Z"/>
      </g>
      <g>
        <path class="cls-5" d="M725.46,313.07l-.42.16-.92-2.44.33-.12,1.86.88c.22.11.41.17.55.18.14.01.27,0,.39-.05.18-.07.29-.18.34-.34.05-.16.03-.36-.05-.59-.14-.38-.37-.62-.7-.73l.16-.44c.21.07.4.2.58.38.17.18.31.4.41.67.13.36.16.67.07.95-.09.27-.28.47-.57.58-.18.07-.37.09-.56.08-.19-.02-.43-.09-.72-.23l-1.39-.66.66,1.74Z"/>
        <path class="cls-5" d="M729.17,315.16c-.2.36-.57.64-1.11.84-.38.14-.73.2-1.05.16-.32-.03-.59-.15-.82-.34-.23-.19-.4-.45-.52-.77-.06-.17-.1-.33-.12-.49-.02-.16-.02-.3,0-.43l.45.04c-.04.21-.02.44.08.72.13.35.35.59.64.7.29.12.65.1,1.07-.06l.12-.04c-.18-.04-.34-.14-.48-.28-.14-.14-.25-.32-.33-.54-.08-.22-.12-.44-.1-.65.02-.21.09-.39.21-.55.12-.16.28-.27.49-.35.21-.08.42-.1.62-.05.2.04.38.14.54.29.16.15.28.34.36.56.17.46.15.86-.05,1.22ZM727.76,315c.1.1.22.16.34.19.13.03.25.02.37-.03.12-.04.22-.12.29-.22.08-.1.12-.22.13-.37.01-.14,0-.3-.07-.47-.08-.22-.21-.38-.38-.47-.17-.09-.36-.1-.56-.03-.2.08-.33.2-.4.39-.07.18-.05.39.03.63.06.15.14.28.24.38Z"/>
        <path class="cls-5" d="M727.05,318.2c.07-.26.21-.49.44-.7.22-.21.52-.38.88-.5.36-.12.7-.17,1-.14.31.03.56.13.78.29.21.17.36.38.45.66.09.27.1.53.03.79-.07.26-.21.49-.44.7-.22.21-.52.38-.88.5-.36.12-.7.17-1.01.14-.31-.03-.56-.13-.78-.3-.21-.16-.36-.38-.45-.65-.09-.27-.1-.54-.03-.8ZM728.08,319.4c.28.09.64.06,1.07-.08.43-.14.73-.34.9-.58.17-.24.21-.5.12-.78-.09-.28-.28-.46-.56-.55-.28-.09-.64-.06-1.07.08-.43.14-.73.34-.9.58-.17.24-.21.5-.11.78.09.28.28.46.56.55Z"/>
      </g>
      <g>
        <path class="cls-5" d="M629.8,176.76c.03.26-.05.5-.23.73-.13.16-.29.27-.48.34-.19.06-.39.07-.61.02-.22-.05-.45-.18-.68-.36-.2-.17-.37-.35-.5-.56-.14-.21-.22-.42-.25-.62l.44-.17c.02.17.08.34.19.52.1.18.24.34.41.47.21.17.41.26.6.27.19,0,.35-.07.47-.22.13-.15.17-.32.13-.5-.04-.18-.18-.37-.42-.56l-.22-.18.23-.28,1.42-.29-1.35-1.11.29-.35,1.85,1.52-.22.27-1.48.3c.25.25.39.51.42.77Z"/>
        <path class="cls-5" d="M631.88,180.2l-.29.35-2.01-1.66.22-.27,2.05-.16c.25-.02.44-.06.57-.11.13-.06.23-.14.31-.24.12-.15.17-.3.13-.47s-.15-.33-.34-.49c-.31-.26-.63-.35-.97-.29l-.08-.46c.22-.04.45-.03.69.04.24.07.47.2.69.38.29.24.47.5.53.79.06.28-.01.54-.21.79-.12.15-.27.26-.45.34-.17.08-.42.13-.74.16l-1.54.12,1.44,1.19Z"/>
        <path class="cls-5" d="M632.97,181.48c-.07-.26-.06-.53.03-.83.09-.3.26-.59.52-.87.25-.29.52-.5.8-.62.28-.13.55-.17.82-.13s.5.15.72.34c.21.19.35.41.42.67.07.26.06.53-.03.83-.09.29-.26.59-.51.87-.25.29-.52.5-.8.62-.28.13-.55.17-.82.13-.26-.04-.5-.15-.72-.34-.22-.19-.36-.41-.43-.67ZM634.46,182c.29-.06.58-.26.88-.61.3-.34.46-.66.49-.95.03-.29-.07-.54-.29-.73-.22-.19-.47-.26-.76-.2-.29.06-.58.26-.88.61-.3.34-.46.66-.49.95-.03.29.07.54.29.73.22.19.47.26.76.19Z"/>
      </g>
      <g>
        <path class="cls-5" d="M478.2,107.73c.15.21.21.46.16.74-.03.21-.12.38-.24.53-.13.15-.3.26-.52.32-.22.06-.47.07-.77.02-.26-.04-.5-.12-.72-.24-.22-.12-.4-.25-.53-.42l.3-.37c.1.14.24.25.42.36.18.1.38.17.59.21.27.04.48.02.65-.07.17-.09.27-.23.3-.43.03-.2-.02-.36-.14-.5s-.34-.22-.64-.27l-.29-.05.06-.36,1.08-.96-1.73-.28.07-.45,2.37.39-.06.35-1.13,1c.34.09.6.24.75.46Z"/>
        <path class="cls-5" d="M481.6,108.19c.21.23.29.52.23.85-.04.21-.12.39-.25.55-.13.15-.3.26-.52.32-.22.06-.48.07-.77.02-.25-.04-.49-.12-.71-.24-.22-.12-.4-.26-.53-.42l.3-.36c.1.14.24.26.42.36.18.1.38.17.59.21.27.04.49.02.66-.07.17-.09.27-.23.3-.43.04-.21-.02-.39-.16-.53-.14-.14-.41-.24-.81-.31l-.81-.14.5-1.84,2.02.34-.07.45-1.59-.27-.26.97.4.07c.51.09.87.24,1.08.48Z"/>
        <path class="cls-5" d="M483.27,110.23c-.19-.19-.32-.43-.39-.73-.07-.3-.07-.64,0-1.01.07-.38.2-.69.39-.94.18-.25.39-.42.64-.52.25-.1.51-.12.79-.07.28.06.51.18.7.37.19.19.32.43.39.73s.07.64,0,1.01c-.07.38-.2.69-.39.94-.18.25-.39.42-.64.52s-.51.12-.79.07c-.28-.06-.52-.18-.71-.37ZM484.82,109.93c.22-.2.37-.52.46-.97.09-.44.07-.8-.05-1.07-.12-.27-.33-.43-.61-.49-.29-.06-.54.01-.76.21-.22.2-.37.52-.46.97-.09.44-.07.8.05,1.07.12.27.33.43.62.49.29.06.54-.01.76-.21Z"/>
      </g>
      <g>
        <path class="cls-5" d="M314.82,124.28l.16.42-2.44.91-.12-.33.89-1.85c.11-.22.17-.41.18-.55.01-.14,0-.27-.05-.39-.07-.18-.18-.29-.34-.35-.16-.05-.36-.03-.59.05-.38.14-.62.37-.73.69l-.44-.16c.07-.21.2-.4.38-.57.18-.17.41-.31.67-.41.36-.13.67-.15.95-.06.27.09.47.28.57.57.07.18.09.37.08.56s-.1.43-.24.72l-.67,1.39,1.74-.65Z"/>
        <path class="cls-5" d="M316.46,123.99c-.26-.06-.5-.2-.72-.42-.22-.22-.39-.51-.53-.87-.13-.36-.19-.69-.17-1,.02-.31.11-.57.27-.78.16-.22.37-.37.64-.47.27-.1.53-.12.79-.06.26.06.5.2.72.42.22.22.39.51.53.87.13.36.19.69.17,1-.02.31-.11.57-.27.78-.16.22-.37.37-.63.47-.27.1-.53.12-.79.06ZM317.62,122.92c.08-.28.04-.64-.12-1.06-.16-.42-.36-.72-.61-.88-.25-.16-.51-.19-.78-.09-.28.1-.45.3-.53.58-.08.29-.04.64.12,1.06.16.42.36.72.61.88.25.16.51.19.78.09.27-.1.45-.29.53-.58Z"/>
      </g>
    </g>
    <g id="_360_градусов" data-name="360 градусов">
      <path class="cls-5" d="M425.05,113.85c42.12,0,82.97,8.25,121.43,24.52,37.15,15.71,70.51,38.21,99.16,66.86,28.65,28.65,51.15,62.01,66.86,99.16,16.27,38.46,24.52,79.32,24.52,121.43s-8.25,82.97-24.52,121.43c-15.71,37.15-38.21,70.51-66.86,99.16-28.65,28.65-62.02,51.15-99.16,66.86-38.46,16.27-79.32,24.52-121.43,24.52s-82.97-8.25-121.43-24.52c-37.15-15.71-70.51-38.21-99.16-66.86-28.65-28.65-51.15-62.01-66.86-99.16-16.27-38.46-24.52-79.32-24.52-121.43s8.25-82.97,24.52-121.43c15.71-37.15,38.21-70.51,66.86-99.16,28.65-28.65,62.01-51.15,99.16-66.86,38.46-16.27,79.32-24.52,121.43-24.52M425.05,113.29c-172.61,0-312.53,139.93-312.53,312.53s139.93,312.53,312.53,312.53,312.53-139.93,312.53-312.53S597.66,113.29,425.05,113.29h0Z"/>
      <g>
        <g>
          <g>
            <g>
              <g>
                <g>
                  <line class="cls-4" x1="446.83" y1="737.56" x2="403.23" y2="114.05"/>
                  <line class="cls-4" x1="452.27" y1="737.13" x2="397.79" y2="114.48"/>
                  <line class="cls-4" x1="457.7" y1="736.61" x2="392.36" y2="115"/>
                  <line class="cls-4" x1="463.12" y1="735.99" x2="386.95" y2="115.62"/>
                </g>
                <g>
                  <line class="cls-4" x1="468.53" y1="735.28" x2="381.54" y2="116.33"/>
                  <line class="cls-4" x1="473.92" y1="734.47" x2="376.14" y2="117.13"/>
                  <line class="cls-4" x1="480.13" y1="738.3" x2="369.93" y2="113.3"/>
                  <line class="cls-4" x1="484.66" y1="732.58" x2="365.4" y2="119.03"/>
                </g>
              </g>
              <g>
                <g>
                  <line class="cls-4" x1="490.01" y1="731.49" x2="360.06" y2="120.12"/>
                  <line class="cls-4" x1="495.33" y1="730.31" x2="354.73" y2="121.3"/>
                  <line class="cls-4" x1="500.64" y1="729.04" x2="349.43" y2="122.57"/>
                  <line class="cls-4" x1="505.92" y1="727.67" x2="344.15" y2="123.94"/>
                </g>
                <g>
                  <line class="cls-4" x1="511.17" y1="726.21" x2="338.89" y2="125.39"/>
                  <line class="cls-4" x1="516.4" y1="724.66" x2="333.66" y2="126.94"/>
                  <line class="cls-4" x1="521.61" y1="723.02" x2="328.46" y2="128.58"/>
                  <line class="cls-4" x1="526.78" y1="721.29" x2="323.29" y2="130.31"/>
                </g>
              </g>
            </g>
            <g>
              <g>
                <g>
                  <line class="cls-4" x1="533.57" y1="724.02" x2="316.49" y2="127.59"/>
                  <line class="cls-4" x1="537.03" y1="717.56" x2="313.04" y2="134.04"/>
                  <line class="cls-4" x1="542.1" y1="715.56" x2="307.96" y2="136.04"/>
                  <line class="cls-4" x1="547.14" y1="713.48" x2="302.92" y2="138.13"/>
                </g>
                <g>
                  <line class="cls-4" x1="552.14" y1="711.3" x2="297.92" y2="140.31"/>
                  <line class="cls-4" x1="557.11" y1="709.04" x2="292.96" y2="142.57"/>
                  <line class="cls-4" x1="562.03" y1="706.69" x2="288.03" y2="144.92"/>
                  <line class="cls-4" x1="566.91" y1="704.26" x2="283.15" y2="147.35"/>
                </g>
              </g>
              <g>
                <g>
                  <line class="cls-4" x1="571.75" y1="701.74" x2="278.31" y2="149.87"/>
                  <line class="cls-4" x1="576.54" y1="699.14" x2="273.52" y2="152.47"/>
                  <line class="cls-4" x1="583.69" y1="700.61" x2="266.37" y2="151"/>
                  <line class="cls-4" x1="585.99" y1="693.68" x2="264.07" y2="157.92"/>
                </g>
                <g>
                  <line class="cls-4" x1="590.64" y1="690.83" x2="259.42" y2="160.77"/>
                  <line class="cls-4" x1="595.24" y1="687.9" x2="254.82" y2="163.71"/>
                  <line class="cls-4" x1="599.79" y1="684.89" x2="250.27" y2="166.72"/>
                  <line class="cls-4" x1="604.28" y1="681.8" x2="245.78" y2="169.81"/>
                </g>
              </g>
            </g>
          </g>
          <g>
            <g>
              <g>
                <g>
                  <line class="cls-4" x1="608.73" y1="678.63" x2="241.34" y2="172.97"/>
                  <line class="cls-4" x1="613.11" y1="675.39" x2="236.95" y2="176.22"/>
                  <line class="cls-4" x1="617.44" y1="672.07" x2="232.63" y2="179.54"/>
                  <line class="cls-4" x1="621.71" y1="668.67" x2="228.36" y2="182.93"/>
                </g>
                <g>
                  <line class="cls-4" x1="628.97" y1="668.85" x2="221.09" y2="182.76"/>
                  <line class="cls-4" x1="630.06" y1="661.66" x2="220" y2="189.94"/>
                  <line class="cls-4" x1="634.15" y1="658.05" x2="215.92" y2="193.56"/>
                  <line class="cls-4" x1="638.17" y1="654.36" x2="211.89" y2="197.24"/>
                </g>
              </g>
              <g>
                <g>
                  <line class="cls-4" x1="642.13" y1="650.61" x2="207.94" y2="201"/>
                  <line class="cls-4" x1="646.02" y1="646.79" x2="204.05" y2="204.82"/>
                  <line class="cls-4" x1="649.84" y1="642.89" x2="200.22" y2="208.71"/>
                  <line class="cls-4" x1="653.59" y1="638.94" x2="196.47" y2="212.67"/>
                </g>
                <g>
                  <line class="cls-4" x1="657.28" y1="634.92" x2="192.79" y2="216.69"/>
                  <line class="cls-4" x1="660.89" y1="630.83" x2="189.17" y2="220.77"/>
                  <line class="cls-4" x1="668.08" y1="629.74" x2="181.99" y2="221.87"/>
                  <line class="cls-4" x1="667.9" y1="622.48" x2="182.16" y2="229.13"/>
                </g>
              </g>
            </g>
            <g>
              <g>
                <g>
                  <line class="cls-4" x1="671.3" y1="618.21" x2="178.76" y2="233.4"/>
                  <line class="cls-4" x1="674.62" y1="613.88" x2="175.44" y2="237.73"/>
                  <line class="cls-4" x1="677.86" y1="609.5" x2="172.2" y2="242.11"/>
                  <line class="cls-4" x1="681.03" y1="605.05" x2="169.03" y2="246.55"/>
                </g>
                <g>
                  <line class="cls-4" x1="684.12" y1="600.56" x2="165.94" y2="251.05"/>
                  <line class="cls-4" x1="687.13" y1="596.01" x2="162.93" y2="255.59"/>
                  <line class="cls-4" x1="690.06" y1="591.41" x2="160" y2="260.19"/>
                  <line class="cls-4" x1="692.91" y1="586.76" x2="157.15" y2="264.85"/>
                </g>
              </g>
              <g>
                <g>
                  <line class="cls-4" x1="699.84" y1="584.46" x2="150.23" y2="267.15"/>
                  <line class="cls-4" x1="698.37" y1="577.31" x2="151.7" y2="274.29"/>
                  <line class="cls-4" x1="700.97" y1="572.52" x2="149.09" y2="279.09"/>
                  <line class="cls-4" x1="703.49" y1="567.68" x2="146.58" y2="283.92"/>
                </g>
                <g>
                  <line class="cls-4" x1="705.92" y1="562.8" x2="144.14" y2="288.81"/>
                  <line class="cls-4" x1="708.27" y1="557.88" x2="141.79" y2="293.73"/>
                  <line class="cls-4" x1="710.53" y1="552.91" x2="139.53" y2="298.69"/>
                  <line class="cls-4" x1="712.71" y1="547.91" x2="137.36" y2="303.69"/>
                </g>
              </g>
            </g>
          </g>
        </g>
        <g>
          <g>
            <g>
              <g>
                <g>
                  <line class="cls-4" x1="714.79" y1="542.87" x2="135.27" y2="308.73"/>
                  <line class="cls-4" x1="716.79" y1="537.8" x2="133.27" y2="313.81"/>
                  <line class="cls-4" x1="723.25" y1="534.34" x2="126.82" y2="317.26"/>
                  <line class="cls-4" x1="720.52" y1="527.55" x2="129.54" y2="324.06"/>
                </g>
                <g>
                  <line class="cls-4" x1="722.25" y1="522.38" x2="127.81" y2="329.23"/>
                  <line class="cls-4" x1="723.89" y1="517.17" x2="126.17" y2="334.43"/>
                  <line class="cls-4" x1="725.44" y1="511.94" x2="124.62" y2="339.66"/>
                  <line class="cls-4" x1="726.9" y1="506.69" x2="123.16" y2="344.92"/>
                </g>
              </g>
              <g>
                <g>
                  <line class="cls-4" x1="728.27" y1="501.41" x2="121.8" y2="350.2"/>
                  <line class="cls-4" x1="729.54" y1="496.1" x2="120.52" y2="355.5"/>
                  <line class="cls-4" x1="730.72" y1="490.78" x2="119.34" y2="360.83"/>
                  <line class="cls-4" x1="731.81" y1="485.43" x2="118.26" y2="366.17"/>
                </g>
                <g>
                  <line class="cls-4" x1="737.46" y1="480.89" x2="112.61" y2="370.71"/>
                  <line class="cls-4" x1="733.7" y1="474.69" x2="116.36" y2="376.91"/>
                  <line class="cls-4" x1="734.51" y1="469.3" x2="115.55" y2="382.31"/>
                  <line class="cls-4" x1="735.22" y1="463.89" x2="114.84" y2="387.72"/>
                </g>
              </g>
            </g>
            <g>
              <g>
                <g>
                  <line class="cls-4" x1="735.84" y1="458.47" x2="114.23" y2="393.14"/>
                  <line class="cls-4" x1="736.36" y1="453.04" x2="113.7" y2="398.57"/>
                  <line class="cls-4" x1="736.79" y1="447.6" x2="113.27" y2="404"/>
                  <line class="cls-4" x1="737.12" y1="442.16" x2="112.94" y2="409.45"/>
                </g>
                <g>
                  <line class="cls-4" x1="737.36" y1="436.71" x2="112.7" y2="414.9"/>
                  <line class="cls-4" x1="737.5" y1="431.26" x2="112.56" y2="420.35"/>
                  <line class="cls-4" x1="742.31" y1="425.8" x2="107.76" y2="425.8"/>
                  <line class="cls-4" x1="737.5" y1="420.35" x2="112.56" y2="431.26"/>
                </g>
              </g>
              <g>
                <g>
                  <line class="cls-4" x1="737.36" y1="414.9" x2="112.7" y2="436.71"/>
                  <line class="cls-4" x1="737.12" y1="409.45" x2="112.94" y2="442.16"/>
                  <line class="cls-4" x1="736.79" y1="404" x2="113.27" y2="447.6"/>
                  <line class="cls-4" x1="736.36" y1="398.57" x2="113.7" y2="453.04"/>
                </g>
                <g>
                  <line class="cls-4" x1="735.84" y1="393.14" x2="114.23" y2="458.47"/>
                  <line class="cls-4" x1="735.22" y1="387.72" x2="114.84" y2="463.89"/>
                  <line class="cls-4" x1="734.51" y1="382.31" x2="115.55" y2="469.3"/>
                  <line class="cls-4" x1="733.7" y1="376.91" x2="116.36" y2="474.69"/>
                </g>
              </g>
            </g>
          </g>
          <g>
            <g>
              <g>
                <g>
                  <line class="cls-4" x1="112.61" y1="480.89" x2="737.46" y2="370.71"/>
                  <line class="cls-4" x1="731.81" y1="366.17" x2="118.26" y2="485.43"/>
                  <line class="cls-4" x1="730.72" y1="360.83" x2="119.34" y2="490.78"/>
                  <line class="cls-4" x1="729.54" y1="355.5" x2="120.52" y2="496.1"/>
                </g>
                <g>
                  <line class="cls-4" x1="728.27" y1="350.2" x2="121.8" y2="501.41"/>
                  <line class="cls-4" x1="726.9" y1="344.92" x2="123.16" y2="506.69"/>
                  <line class="cls-4" x1="725.44" y1="339.66" x2="124.62" y2="511.94"/>
                  <line class="cls-4" x1="723.89" y1="334.43" x2="126.17" y2="517.17"/>
                </g>
              </g>
              <g>
                <g>
                  <line class="cls-4" x1="722.25" y1="329.23" x2="127.81" y2="522.38"/>
                  <line class="cls-4" x1="720.52" y1="324.06" x2="129.54" y2="527.55"/>
                  <line class="cls-4" x1="126.8" y1="534.35" x2="723.26" y2="317.26"/>
                  <line class="cls-4" x1="716.79" y1="313.81" x2="133.27" y2="537.8"/>
                </g>
                <g>
                  <line class="cls-4" x1="714.79" y1="308.73" x2="135.27" y2="542.87"/>
                  <line class="cls-4" x1="712.71" y1="303.69" x2="137.36" y2="547.91"/>
                  <line class="cls-4" x1="710.53" y1="298.69" x2="139.53" y2="552.91"/>
                  <line class="cls-4" x1="708.27" y1="293.73" x2="141.79" y2="557.88"/>
                </g>
              </g>
            </g>
            <g>
              <g>
                <g>
                  <line class="cls-4" x1="705.92" y1="288.81" x2="144.14" y2="562.8"/>
                  <line class="cls-4" x1="703.49" y1="283.92" x2="146.58" y2="567.68"/>
                  <line class="cls-4" x1="700.97" y1="279.09" x2="149.09" y2="572.52"/>
                  <line class="cls-4" x1="698.37" y1="274.29" x2="151.7" y2="577.31"/>
                </g>
                <g>
                  <line class="cls-4" x1="150.21" y1="584.47" x2="699.86" y2="267.13"/>
                  <line class="cls-4" x1="692.91" y1="264.85" x2="157.15" y2="586.76"/>
                  <line class="cls-4" x1="690.06" y1="260.19" x2="160" y2="591.41"/>
                  <line class="cls-4" x1="687.13" y1="255.59" x2="162.93" y2="596.01"/>
                </g>
              </g>
              <g>
                <g>
                  <line class="cls-4" x1="684.12" y1="251.05" x2="165.94" y2="600.56"/>
                  <line class="cls-4" x1="681.03" y1="246.55" x2="169.03" y2="605.05"/>
                  <line class="cls-4" x1="677.86" y1="242.11" x2="172.2" y2="609.5"/>
                  <line class="cls-4" x1="674.62" y1="237.73" x2="175.44" y2="613.88"/>
                </g>
                <g>
                  <line class="cls-4" x1="671.3" y1="233.4" x2="178.76" y2="618.21"/>
                  <line class="cls-4" x1="667.9" y1="229.13" x2="182.16" y2="622.48"/>
                  <line class="cls-4" x1="181.97" y1="629.76" x2="668.1" y2="221.85"/>
                  <line class="cls-4" x1="660.89" y1="220.77" x2="189.17" y2="630.83"/>
                </g>
              </g>
            </g>
          </g>
        </g>
        <g>
          <g>
            <g>
              <g>
                <g>
                  <line class="cls-4" x1="657.28" y1="216.69" x2="192.79" y2="634.92"/>
                  <line class="cls-4" x1="653.59" y1="212.67" x2="196.47" y2="638.94"/>
                  <line class="cls-4" x1="649.84" y1="208.71" x2="200.22" y2="642.89"/>
                  <line class="cls-4" x1="646.02" y1="204.82" x2="204.05" y2="646.79"/>
                </g>
                <g>
                  <line class="cls-4" x1="642.13" y1="201" x2="207.94" y2="650.61"/>
                  <line class="cls-4" x1="638.17" y1="197.24" x2="211.89" y2="654.36"/>
                  <line class="cls-4" x1="634.15" y1="193.56" x2="215.92" y2="658.05"/>
                  <line class="cls-4" x1="630.06" y1="189.94" x2="220" y2="661.66"/>
                </g>
              </g>
              <g>
                <g>
                  <line class="cls-4" x1="628.99" y1="182.74" x2="221.07" y2="668.87"/>
                  <line class="cls-4" x1="621.71" y1="182.93" x2="228.36" y2="668.67"/>
                  <line class="cls-4" x1="617.44" y1="179.54" x2="232.63" y2="672.07"/>
                  <line class="cls-4" x1="613.11" y1="176.22" x2="236.95" y2="675.39"/>
                </g>
                <g>
                  <line class="cls-4" x1="608.73" y1="172.97" x2="241.34" y2="678.63"/>
                  <line class="cls-4" x1="604.28" y1="169.81" x2="245.78" y2="681.8"/>
                  <line class="cls-4" x1="599.79" y1="166.72" x2="250.27" y2="684.89"/>
                  <line class="cls-4" x1="595.24" y1="163.71" x2="254.82" y2="687.9"/>
                </g>
              </g>
            </g>
            <g>
              <g>
                <g>
                  <line class="cls-4" x1="590.64" y1="160.77" x2="259.42" y2="690.83"/>
                  <line class="cls-4" x1="585.99" y1="157.92" x2="264.07" y2="693.68"/>
                  <line class="cls-4" x1="583.7" y1="150.98" x2="266.36" y2="700.63"/>
                  <line class="cls-4" x1="576.54" y1="152.47" x2="273.52" y2="699.14"/>
                </g>
                <g>
                  <line class="cls-4" x1="571.75" y1="149.87" x2="278.31" y2="701.74"/>
                  <line class="cls-4" x1="566.91" y1="147.35" x2="283.15" y2="704.26"/>
                  <line class="cls-4" x1="562.03" y1="144.92" x2="288.03" y2="706.69"/>
                  <line class="cls-4" x1="557.11" y1="142.57" x2="292.96" y2="709.04"/>
                </g>
              </g>
              <g>
                <g>
                  <line class="cls-4" x1="552.14" y1="140.31" x2="297.92" y2="711.3"/>
                  <line class="cls-4" x1="547.14" y1="138.13" x2="302.92" y2="713.48"/>
                  <line class="cls-4" x1="542.1" y1="136.04" x2="307.96" y2="715.56"/>
                  <line class="cls-4" x1="537.03" y1="134.04" x2="313.04" y2="717.56"/>
                </g>
                <g>
                  <line class="cls-4" x1="533.58" y1="127.58" x2="316.49" y2="724.03"/>
                  <line class="cls-4" x1="526.78" y1="130.31" x2="323.29" y2="721.29"/>
                  <line class="cls-4" x1="521.61" y1="128.58" x2="328.46" y2="723.02"/>
                  <line class="cls-4" x1="516.4" y1="126.94" x2="333.66" y2="724.66"/>
                </g>
              </g>
            </g>
          </g>
          <g>
            <g>
              <g>
                <g>
                  <line class="cls-4" x1="511.17" y1="125.39" x2="338.89" y2="726.21"/>
                  <line class="cls-4" x1="505.92" y1="123.94" x2="344.15" y2="727.67"/>
                  <line class="cls-4" x1="500.64" y1="122.57" x2="349.43" y2="729.04"/>
                  <line class="cls-4" x1="495.33" y1="121.3" x2="354.73" y2="730.31"/>
                </g>
                <g>
                  <line class="cls-4" x1="490.01" y1="120.12" x2="360.06" y2="731.49"/>
                  <line class="cls-4" x1="484.66" y1="119.03" x2="365.4" y2="732.58"/>
                  <line class="cls-4" x1="480.12" y1="113.38" x2="369.94" y2="738.23"/>
                  <line class="cls-4" x1="473.92" y1="117.13" x2="376.14" y2="734.47"/>
                </g>
              </g>
              <g>
                <g>
                  <line class="cls-4" x1="468.53" y1="116.33" x2="381.54" y2="735.28"/>
                  <line class="cls-4" x1="463.12" y1="115.62" x2="386.95" y2="735.99"/>
                  <line class="cls-4" x1="457.7" y1="115" x2="392.36" y2="736.61"/>
                  <line class="cls-4" x1="452.27" y1="114.48" x2="397.79" y2="737.13"/>
                </g>
                <g>
                  <line class="cls-4" x1="446.83" y1="114.05" x2="403.23" y2="737.56"/>
                  <line class="cls-4" x1="441.39" y1="113.72" x2="408.68" y2="737.89"/>
                  <line class="cls-4" x1="435.94" y1="113.48" x2="414.12" y2="738.13"/>
                  <line class="cls-4" x1="430.49" y1="113.34" x2="419.58" y2="738.27"/>
                </g>
              </g>
            </g>
            <g>
              <line class="cls-4" x1="425.03" y1="108.53" x2="425.03" y2="743.08"/>
              <line class="cls-4" x1="419.58" y1="113.34" x2="430.49" y2="738.27"/>
              <line class="cls-4" x1="414.12" y1="113.48" x2="435.94" y2="738.13"/>
              <line class="cls-4" x1="408.68" y1="113.72" x2="441.39" y2="737.89"/>
            </g>
          </g>
        </g>
      </g>
      <circle class="cls-4" cx="425.05" cy="425.82" r="317.3"/>
      <circle class="cls-1" cx="424.92" cy="425.82" r="305.18"/>
    </g>
    <g id="_Внутренний_круг" data-name="Внутренний круг">
      <path class="cls-5" d="M425.19,122.53c167.16,0,302.67,135.51,302.67,302.67s-135.51,302.67-302.67,302.67S122.52,592.36,122.52,425.2,258.03,122.53,425.19,122.53M425.19,120.47c-41.14,0-81.04,8.06-118.61,23.95-36.29,15.35-68.87,37.32-96.86,65.3-27.99,27.99-49.96,60.57-65.3,96.86-15.89,37.57-23.95,77.48-23.95,118.61s8.06,81.04,23.95,118.61c15.35,36.29,37.32,68.87,65.3,96.86,27.99,27.99,60.57,49.96,96.86,65.3,37.57,15.89,77.48,23.95,118.61,23.95s81.04-8.06,118.61-23.95c36.29-15.35,68.87-37.32,96.86-65.3,27.99-27.99,49.96-60.57,65.3-96.86,15.89-37.57,23.95-77.48,23.95-118.61s-8.06-81.04-23.95-118.61c-15.35-36.29-37.32-68.87-65.3-96.86-27.99-27.99-60.57-49.96-96.86-65.3-37.57-15.89-77.48-23.95-118.61-23.95h0Z"/>
    </g>
  </g>
</svg>