<?xml version="1.0" encoding="UTF-8"?>
<svg xmlns="http://www.w3.org/2000/svg" xmlns:xlink="http://www.w3.org/1999/xlink" width="4000" height="4000" viewBox="0 0 4000 4000">

<path fill-rule="evenodd" fill="rgb(98.242188%, 84.179688%, 0%)" fill-opacity="1" d="M 542.566406 300 C 542.566406 300 560.652344 357.960938 577.816406 412.96875 C 597.042969 474.589844 642.019531 524.851562 701.125 550.789062 C 743.832031 569.53125 785.136719 587.648438 785.136719 587.648438 C 785.136719 587.648438 743.832031 605.78125 701.125 624.519531 C 642.019531 650.460938 597.042969 700.71875 577.816406 762.339844 C 560.652344 817.351562 542.566406 875.308594 542.566406 875.308594 C 542.566406 875.308594 524.484375 817.351562 507.316406 762.339844 C 488.089844 700.71875 443.117188 650.460938 384.011719 624.519531 C 341.304688 605.78125 300 587.648438 300 587.648438 C 300 587.648438 341.304688 569.53125 384.011719 550.789062 C 443.117188 524.851562 488.089844 474.589844 507.316406 412.96875 C 524.484375 357.960938 542.566406 300 542.566406 300 "/>
<path fill-rule="evenodd" fill="rgb(99.021912%, 89.646912%, 78.125%)" fill-opacity="1" d="M 551.09375 327.328125 L 519.773438 427.710938 C 502.679688 482.488281 462.6875 527.191406 410.132812 550.25 C 367.726562 568.859375 324.898438 587.648438 324.898438 587.648438 C 324.898438 587.648438 367.726562 606.449219 410.132812 625.058594 C 462.6875 648.121094 502.679688 692.820312 519.773438 747.601562 L 551.09375 847.980469 L 542.566406 875.308594 C 542.566406 875.308594 522.039062 809.519531 503.964844 751.589844 C 486.867188 696.800781 446.878906 652.109375 394.324219 629.039062 C 348.214844 608.808594 300 587.648438 300 587.648438 C 300 587.648438 348.214844 566.5 394.324219 546.261719 C 446.878906 523.199219 486.867188 478.511719 503.964844 423.71875 C 522.039062 365.789062 542.566406 300 542.566406 300 Z M 785.136719 587.648438 L 699.898438 625.058594 C 742.304688 606.449219 785.136719 587.648438 785.136719 587.648438 L 715.511719 557.101562 L 785.136719 587.648438 "/>
<path fill-rule="evenodd" fill="rgb(100%, 90.818787%, 36.009216%)" fill-opacity="1" d="M 349.851562 710.230469 C 349.851562 710.230469 354.070312 729.109375 357.785156 745.730469 C 361.296875 761.449219 369.515625 774.269531 380.316406 780.890625 C 389.792969 786.699219 399.699219 792.769531 399.699219 792.769531 C 399.699219 792.769531 389.792969 798.839844 380.316406 804.640625 C 369.515625 811.261719 361.296875 824.089844 357.785156 839.808594 C 354.070312 856.429688 349.851562 875.308594 349.851562 875.308594 C 349.851562 875.308594 345.632812 856.429688 341.917969 839.808594 C 338.402344 824.089844 330.183594 811.261719 319.382812 804.640625 C 309.910156 798.839844 300 792.769531 300 792.769531 C 300 792.769531 309.910156 786.699219 319.382812 780.890625 C 330.183594 774.269531 338.402344 761.449219 341.917969 745.730469 C 345.632812 729.109375 349.851562 710.230469 349.851562 710.230469 "/>
<path fill-rule="evenodd" fill="rgb(99.021912%, 89.646912%, 78.125%)" fill-opacity="1" d="M 351.601562 718.070312 L 345.164062 746.871094 C 341.652344 762.589844 333.433594 775.421875 322.632812 782.039062 C 313.917969 787.371094 305.117188 792.769531 305.117188 792.769531 C 305.117188 792.769531 313.917969 798.160156 322.632812 803.5 C 333.433594 810.121094 341.652344 822.941406 345.164062 838.660156 L 351.601562 867.46875 L 349.851562 875.308594 C 349.851562 875.308594 345.632812 856.429688 341.917969 839.808594 C 338.402344 824.089844 330.183594 811.261719 319.382812 804.640625 C 309.910156 798.839844 300 792.769531 300 792.769531 C 300 792.769531 309.910156 786.699219 319.382812 780.890625 C 330.183594 774.269531 338.402344 761.449219 341.917969 745.730469 C 345.632812 729.109375 349.851562 710.230469 349.851562 710.230469 Z M 399.699219 792.769531 L 382.183594 803.5 C 390.898438 798.160156 399.699219 792.769531 399.699219 792.769531 L 385.390625 784 L 399.699219 792.769531 "/>
<path fill-rule="evenodd" fill="rgb(98.242188%, 84.179688%, 0%)" fill-opacity="1" d="M 735.285156 300 C 735.285156 300 739.503906 318.878906 743.21875 335.5 C 746.730469 351.21875 754.949219 364.050781 765.75 370.660156 C 775.226562 376.46875 785.136719 382.539062 785.136719 382.539062 C 785.136719 382.539062 775.226562 388.609375 765.75 394.421875 C 754.949219 401.03125 746.730469 413.859375 743.21875 429.578125 C 739.503906 446.199219 735.285156 465.078125 735.285156 465.078125 C 735.285156 465.078125 731.066406 446.199219 727.351562 429.578125 C 723.835938 413.859375 715.617188 401.03125 704.816406 394.421875 C 695.34375 388.609375 685.433594 382.539062 685.433594 382.539062 C 685.433594 382.539062 695.34375 376.46875 704.816406 370.660156 C 715.617188 364.050781 723.835938 351.21875 727.351562 335.5 C 731.066406 318.878906 735.285156 300 735.285156 300 "/>
<path fill-rule="evenodd" fill="rgb(99.021912%, 89.646912%, 78.125%)" fill-opacity="1" d="M 737.035156 307.839844 L 730.601562 336.640625 C 727.085938 352.359375 718.867188 365.191406 708.066406 371.808594 C 699.351562 377.148438 690.550781 382.539062 690.550781 382.539062 C 690.550781 382.539062 699.351562 387.929688 708.066406 393.269531 C 718.867188 399.890625 727.085938 412.71875 730.601562 428.441406 L 737.035156 457.238281 L 735.285156 465.078125 C 735.285156 465.078125 731.066406 446.199219 727.351562 429.578125 C 723.835938 413.859375 715.617188 401.03125 704.816406 394.421875 C 695.34375 388.609375 685.433594 382.539062 685.433594 382.539062 C 685.433594 382.539062 695.34375 376.46875 704.816406 370.660156 C 715.617188 364.050781 723.835938 351.21875 727.351562 335.5 C 731.066406 318.878906 735.285156 300 735.285156 300 Z M 785.136719 382.539062 L 767.617188 393.269531 C 776.332031 387.929688 785.136719 382.539062 785.136719 382.539062 L 770.824219 373.769531 L 785.136719 382.539062 "/>
<path fill-rule="evenodd" fill="rgb(98.242188%, 84.179688%, 0%)" fill-opacity="1" d="M 1463.398438 379.070312 C 1463.398438 379.070312 1474.710938 460.648438 1483.03125 520.691406 C 1488.351562 559.050781 1514.980469 591.058594 1551.71875 603.289062 C 1586.539062 614.871094 1623.578125 627.191406 1623.578125 627.191406 C 1623.578125 627.191406 1586.539062 639.511719 1551.71875 651.089844 C 1514.980469 663.308594 1488.351562 695.328125 1483.03125 733.691406 C 1474.710938 793.730469 1463.398438 875.308594 1463.398438 875.308594 C 1463.398438 875.308594 1452.089844 793.730469 1443.769531 733.691406 C 1438.449219 695.328125 1411.828125 663.308594 1375.078125 651.089844 C 1340.261719 639.511719 1303.21875 627.191406 1303.21875 627.191406 C 1303.21875 627.191406 1340.261719 614.871094 1375.078125 603.289062 C 1411.828125 591.058594 1438.449219 559.050781 1443.769531 520.691406 C 1452.089844 460.648438 1463.398438 379.070312 1463.398438 379.070312 "/>
<path fill-rule="evenodd" fill="rgb(99.021912%, 89.646912%, 78.125%)" fill-opacity="1" d="M 1466.320312 400.148438 L 1449.390625 522.300781 C 1444.210938 559.671875 1418.269531 590.859375 1382.46875 602.769531 C 1347.210938 614.5 1309.070312 627.191406 1309.070312 627.191406 C 1309.070312 627.191406 1347.210938 639.878906 1382.46875 651.601562 C 1418.269531 663.511719 1444.210938 694.710938 1449.390625 732.078125 L 1466.320312 854.21875 L 1463.398438 875.308594 C 1463.398438 875.308594 1451.890625 792.261719 1443.539062 732.078125 C 1438.359375 694.710938 1412.421875 663.511719 1376.621094 651.601562 C 1341.371094 639.878906 1303.21875 627.191406 1303.21875 627.191406 C 1303.21875 627.191406 1341.371094 614.5 1376.621094 602.769531 C 1412.421875 590.859375 1438.359375 559.671875 1443.539062 522.300781 C 1451.890625 462.109375 1463.398438 379.070312 1463.398438 379.070312 L 1466.320312 400.148438 "/>
<path fill-rule="evenodd" fill="rgb(100%, 93.164062%, 51.951599%)" fill-opacity="1" d="M 1612.519531 409.5 C 1612.519531 409.5 1614.140625 419.191406 1615.859375 429.441406 C 1618.28125 443.941406 1628.910156 455.71875 1643.089844 459.628906 C 1649.089844 461.289062 1653.898438 462.609375 1653.898438 462.609375 C 1653.898438 462.609375 1649.089844 463.941406 1643.089844 465.589844 C 1628.910156 469.5 1618.28125 481.28125 1615.859375 495.789062 C 1614.140625 506.039062 1612.519531 515.71875 1612.519531 515.71875 C 1612.519531 515.71875 1610.898438 506.039062 1609.191406 495.789062 C 1606.761719 481.28125 1596.128906 469.5 1581.949219 465.589844 C 1575.949219 463.941406 1571.140625 462.609375 1571.140625 462.609375 C 1571.140625 462.609375 1575.949219 461.289062 1581.949219 459.628906 C 1596.128906 455.71875 1606.761719 443.941406 1609.191406 429.441406 C 1610.898438 419.191406 1612.519531 409.5 1612.519531 409.5 "/>
<path fill-rule="evenodd" fill="rgb(100%, 93.164062%, 51.951599%)" fill-opacity="1" d="M 1593.988281 787.761719 C 1593.988281 787.761719 1595.148438 794.679688 1596.378906 802.011719 C 1598.109375 812.390625 1605.710938 820.808594 1615.851562 823.609375 C 1620.140625 824.789062 1623.578125 825.738281 1623.578125 825.738281 C 1623.578125 825.738281 1620.140625 826.691406 1615.851562 827.871094 C 1605.710938 830.660156 1598.109375 839.089844 1596.378906 849.460938 C 1595.148438 856.789062 1593.988281 863.71875 1593.988281 863.71875 C 1593.988281 863.71875 1592.828125 856.789062 1591.609375 849.460938 C 1589.871094 839.089844 1582.269531 830.660156 1572.128906 827.871094 C 1567.839844 826.691406 1564.398438 825.738281 1564.398438 825.738281 C 1564.398438 825.738281 1567.839844 824.789062 1572.128906 823.609375 C 1582.269531 820.808594 1589.871094 812.390625 1591.609375 802.011719 C 1592.828125 794.679688 1593.988281 787.761719 1593.988281 787.761719 "/>
<path fill-rule="evenodd" fill="rgb(100%, 93.164062%, 51.951599%)" fill-opacity="1" d="M 1328.78125 787.761719 C 1328.78125 787.761719 1329.941406 794.679688 1331.171875 802.011719 C 1332.898438 812.390625 1340.5 820.808594 1350.640625 823.609375 C 1354.929688 824.789062 1358.371094 825.738281 1358.371094 825.738281 C 1358.371094 825.738281 1354.929688 826.691406 1350.640625 827.871094 C 1340.5 830.660156 1332.898438 839.089844 1331.171875 849.460938 C 1329.941406 856.789062 1328.78125 863.71875 1328.78125 863.71875 C 1328.78125 863.71875 1327.621094 856.789062 1326.398438 849.460938 C 1324.660156 839.089844 1317.058594 830.660156 1306.921875 827.871094 C 1302.628906 826.691406 1299.191406 825.738281 1299.191406 825.738281 C 1299.191406 825.738281 1302.628906 824.789062 1306.921875 823.609375 C 1317.058594 820.808594 1324.660156 812.390625 1326.398438 802.011719 C 1327.621094 794.679688 1328.78125 787.761719 1328.78125 787.761719 "/>
<path fill-rule="evenodd" fill="rgb(100%, 93.164062%, 51.951599%)" fill-opacity="1" d="M 1538.140625 365.089844 C 1538.140625 365.089844 1538.910156 369.710938 1539.730469 374.601562 C 1540.890625 381.519531 1545.960938 387.140625 1552.71875 389 C 1555.578125 389.789062 1557.878906 390.429688 1557.878906 390.429688 C 1557.878906 390.429688 1555.578125 391.058594 1552.71875 391.851562 C 1545.960938 393.710938 1540.890625 399.328125 1539.730469 406.25 C 1538.910156 411.140625 1538.140625 415.761719 1538.140625 415.761719 C 1538.140625 415.761719 1537.371094 411.140625 1536.550781 406.25 C 1535.390625 399.328125 1530.320312 393.710938 1523.558594 391.851562 C 1520.699219 391.058594 1518.398438 390.429688 1518.398438 390.429688 C 1518.398438 390.429688 1520.699219 389.789062 1523.558594 389 C 1530.320312 387.140625 1535.390625 381.519531 1536.550781 374.601562 C 1537.371094 369.710938 1538.140625 365.089844 1538.140625 365.089844 "/>
<path fill-rule="evenodd" fill="rgb(100%, 93.164062%, 51.951599%)" fill-opacity="1" d="M 1376.300781 300 C 1376.300781 300 1377.289062 305.929688 1378.339844 312.210938 C 1379.828125 321.109375 1386.339844 328.320312 1395.03125 330.71875 C 1398.710938 331.738281 1401.660156 332.550781 1401.660156 332.550781 C 1401.660156 332.550781 1398.710938 333.359375 1395.03125 334.371094 C 1386.339844 336.769531 1379.828125 343.988281 1378.339844 352.878906 C 1377.289062 359.160156 1376.300781 365.089844 1376.300781 365.089844 C 1376.300781 365.089844 1375.308594 359.160156 1374.261719 352.878906 C 1372.769531 343.988281 1366.261719 336.769531 1357.570312 334.371094 C 1353.890625 333.359375 1350.941406 332.550781 1350.941406 332.550781 C 1350.941406 332.550781 1353.890625 331.738281 1357.570312 330.71875 C 1366.261719 328.320312 1372.769531 321.109375 1374.261719 312.210938 C 1375.308594 305.929688 1376.300781 300 1376.300781 300 "/>
<path fill-rule="evenodd" fill="rgb(100%, 93.164062%, 51.951599%)" fill-opacity="1" d="M 1304.660156 439.761719 C 1304.660156 439.761719 1305.820312 446.691406 1307.050781 454.019531 C 1308.78125 464.390625 1316.378906 472.820312 1326.519531 475.609375 C 1330.808594 476.800781 1334.25 477.738281 1334.25 477.738281 C 1334.25 477.738281 1330.808594 478.691406 1326.519531 479.871094 C 1316.378906 482.671875 1308.78125 491.089844 1307.050781 501.46875 C 1305.820312 508.800781 1304.660156 515.71875 1304.660156 515.71875 C 1304.660156 515.71875 1303.511719 508.800781 1302.28125 501.46875 C 1300.539062 491.089844 1292.941406 482.671875 1282.800781 479.871094 C 1278.511719 478.691406 1275.070312 477.738281 1275.070312 477.738281 C 1275.070312 477.738281 1278.511719 476.800781 1282.800781 475.609375 C 1292.941406 472.820312 1300.539062 464.390625 1302.28125 454.019531 C 1303.511719 446.691406 1304.660156 439.761719 1304.660156 439.761719 "/>
<path fill-rule="evenodd" fill="rgb(98.242188%, 84.179688%, 0%)" fill-opacity="1" d="M 2492.519531 324.011719 L 2510.25 556.351562 L 2639.320312 588.261719 L 2510.25 620.179688 L 2492.519531 852.519531 L 2474.789062 620.179688 L 2345.710938 588.261719 L 2474.789062 556.351562 L 2492.519531 324.011719 "/>
<path fill-rule="evenodd" fill="rgb(99.021912%, 89.646912%, 78.125%)" fill-opacity="1" d="M 2494.230469 346.449219 L 2478.210938 556.351562 L 2349.128906 588.261719 L 2478.210938 620.179688 L 2494.230469 830.070312 L 2492.519531 852.519531 L 2474.789062 620.179688 L 2345.710938 588.261719 L 2474.789062 556.351562 L 2492.519531 324.011719 L 2494.230469 346.449219 "/>
<path fill-rule="evenodd" fill="rgb(100%, 93.164062%, 51.951599%)" fill-opacity="1" d="M 2636.628906 300 L 2642.53125 387.050781 L 2685.449219 399 L 2642.53125 410.960938 L 2636.628906 498.011719 L 2630.738281 410.960938 L 2587.820312 399 L 2630.738281 387.050781 L 2636.628906 300 "/>
<path fill-rule="evenodd" fill="rgb(100%, 93.164062%, 51.951599%)" fill-opacity="1" d="M 2637.199219 308.410156 L 2631.878906 387.050781 L 2588.960938 399 L 2631.878906 410.960938 L 2637.199219 489.601562 L 2636.628906 498.011719 L 2630.738281 410.960938 L 2587.820312 399 L 2630.738281 387.050781 L 2636.628906 300 L 2637.199219 308.410156 "/>
<path fill-rule="evenodd" fill="rgb(100%, 93.164062%, 51.951599%)" fill-opacity="1" d="M 2326.871094 677.300781 L 2332.769531 764.351562 L 2375.691406 776.308594 L 2332.769531 788.261719 L 2326.871094 875.308594 L 2320.96875 788.261719 L 2278.050781 776.308594 L 2320.96875 764.351562 L 2326.871094 677.300781 "/>
<path fill-rule="evenodd" fill="rgb(100%, 93.164062%, 51.951599%)" fill-opacity="1" d="M 2327.441406 685.710938 L 2322.109375 764.351562 L 2279.191406 776.308594 L 2322.109375 788.261719 L 2327.441406 866.898438 L 2326.871094 875.308594 L 2320.96875 788.261719 L 2278.050781 776.308594 L 2320.96875 764.351562 L 2326.871094 677.300781 L 2327.441406 685.710938 "/>
<path fill-rule="evenodd" fill="rgb(100%, 93.164062%, 51.951599%)" fill-opacity="1" d="M 2375.691406 363.890625 L 2379.898438 419.101562 L 2410.570312 426.679688 L 2379.898438 434.261719 L 2375.691406 489.46875 L 2371.46875 434.261719 L 2340.808594 426.679688 L 2371.46875 419.101562 L 2375.691406 363.890625 "/>
<path fill-rule="evenodd" fill="rgb(100%, 93.164062%, 51.951599%)" fill-opacity="1" d="M 2376.089844 369.230469 L 2372.289062 419.101562 L 2341.621094 426.679688 L 2372.289062 434.261719 L 2376.089844 484.140625 L 2375.691406 489.46875 L 2371.46875 434.261719 L 2340.808594 426.679688 L 2371.46875 419.101562 L 2375.691406 363.890625 L 2376.089844 369.230469 "/>
<path fill-rule="evenodd" fill="rgb(100%, 93.164062%, 51.951599%)" fill-opacity="1" d="M 2650.570312 677.300781 L 2654.78125 732.511719 L 2685.449219 740.089844 L 2654.78125 747.671875 L 2650.570312 802.878906 L 2646.359375 747.671875 L 2615.691406 740.089844 L 2646.359375 732.511719 L 2650.570312 677.300781 "/>
<path fill-rule="evenodd" fill="rgb(100%, 93.164062%, 51.951599%)" fill-opacity="1" d="M 2650.980469 682.640625 L 2647.171875 732.511719 L 2616.5 740.089844 L 2647.171875 747.671875 L 2650.980469 797.550781 L 2650.570312 802.878906 L 2646.359375 747.671875 L 2615.691406 740.089844 L 2646.359375 732.511719 L 2650.570312 677.300781 L 2650.980469 682.640625 "/>
<path fill-rule="evenodd" fill="rgb(98.242188%, 84.179688%, 0%)" fill-opacity="1" d="M 3477.789062 416.980469 C 3477.789062 416.980469 3507.570312 486.730469 3523.878906 524.949219 C 3530.550781 540.589844 3543.011719 553.039062 3558.640625 559.710938 C 3596.859375 576.03125 3666.609375 605.800781 3666.609375 605.800781 C 3666.609375 605.800781 3596.859375 635.570312 3558.640625 651.878906 C 3543.011719 658.558594 3530.550781 671.011719 3523.878906 686.640625 C 3507.570312 724.871094 3477.789062 794.621094 3477.789062 794.621094 C 3477.789062 794.621094 3448.019531 724.871094 3431.710938 686.640625 C 3425.039062 671.011719 3412.578125 658.558594 3396.949219 651.878906 C 3358.730469 635.570312 3288.980469 605.800781 3288.980469 605.800781 C 3288.980469 605.800781 3358.730469 576.03125 3396.949219 559.710938 C 3412.578125 553.039062 3425.039062 540.589844 3431.710938 524.949219 C 3448.019531 486.730469 3477.789062 416.980469 3477.789062 416.980469 "/>
<path fill-rule="evenodd" fill="rgb(99.021912%, 89.646912%, 78.125%)" fill-opacity="1" d="M 3481.671875 426.058594 L 3441.148438 524.949219 C 3434.75 540.589844 3422.800781 553.039062 3407.789062 559.710938 C 3371.109375 576.03125 3304.160156 605.800781 3304.160156 605.800781 C 3304.160156 605.800781 3371.109375 635.570312 3407.789062 651.878906 C 3422.800781 658.558594 3434.75 671.011719 3441.148438 686.640625 L 3481.671875 785.539062 L 3477.789062 794.621094 C 3477.789062 794.621094 3448.019531 724.871094 3431.710938 686.640625 C 3425.039062 671.011719 3412.578125 658.558594 3396.949219 651.878906 C 3358.730469 635.570312 3288.980469 605.800781 3288.980469 605.800781 C 3288.980469 605.800781 3358.730469 576.03125 3396.949219 559.710938 C 3412.578125 553.039062 3425.039062 540.589844 3431.710938 524.949219 C 3448.019531 486.730469 3477.789062 416.980469 3477.789062 416.980469 L 3481.671875 426.058594 "/>
<path fill-rule="evenodd" fill="rgb(100%, 93.164062%, 51.951599%)" fill-opacity="1" d="M 3347.300781 358.21875 L 3351.699219 409.929688 L 3383.941406 416.980469 L 3351.699219 424.03125 L 3347.300781 475.738281 L 3342.910156 424.03125 L 3310.671875 416.980469 L 3342.910156 409.929688 L 3347.300781 358.21875 "/>
<path fill-rule="evenodd" fill="rgb(100%, 93.164062%, 51.951599%)" fill-opacity="1" d="M 3666.609375 410.511719 L 3670.621094 457.640625 L 3700 464.070312 L 3670.621094 470.488281 L 3666.609375 517.621094 L 3662.609375 470.488281 L 3633.230469 464.070312 L 3662.609375 457.640625 L 3666.609375 410.511719 "/>
<path fill-rule="evenodd" fill="rgb(100%, 93.164062%, 51.951599%)" fill-opacity="1" d="M 3586.101562 300 L 3589.261719 337.230469 L 3612.480469 342.308594 L 3589.261719 347.390625 L 3586.101562 384.621094 L 3582.929688 347.390625 L 3559.71875 342.308594 L 3582.929688 337.230469 L 3586.101562 300 "/>
<path fill-rule="evenodd" fill="rgb(100%, 93.164062%, 51.951599%)" fill-opacity="1" d="M 3651.941406 726.878906 L 3657.488281 792.191406 L 3698.199219 801.101562 L 3657.488281 810 L 3651.941406 875.308594 L 3646.378906 810 L 3605.671875 801.101562 L 3646.378906 792.191406 L 3651.941406 726.878906 "/>
<path fill-rule="evenodd" fill="rgb(100%, 93.164062%, 51.951599%)" fill-opacity="1" d="M 3290.871094 779.921875 L 3294.441406 821.890625 L 3320.609375 827.609375 L 3294.441406 833.339844 L 3290.871094 875.308594 L 3287.300781 833.339844 L 3261.140625 827.609375 L 3287.300781 821.890625 L 3290.871094 779.921875 "/>
<path fill-rule="evenodd" fill="rgb(100%, 90.818787%, 36.009216%)" fill-opacity="1" d="M 1533.851562 1537.019531 C 1533.980469 1539.679688 1535.441406 1542.011719 1537.609375 1543.03125 C 1539.769531 1544.050781 1542.261719 1543.570312 1544.011719 1541.800781 C 1564.46875 1521.070312 1611.03125 1473.910156 1611.03125 1473.910156 C 1611.03125 1473.910156 1569.441406 1526.710938 1551.160156 1549.910156 C 1549.601562 1551.890625 1549.179688 1554.710938 1550.078125 1557.171875 C 1550.96875 1559.628906 1553.03125 1561.28125 1555.371094 1561.429688 C 1599.058594 1564.21875 1740.878906 1573.289062 1740.878906 1573.289062 C 1740.878906 1573.289062 1599.058594 1582.351562 1555.371094 1585.140625 C 1553.03125 1585.289062 1550.96875 1586.949219 1550.078125 1589.410156 C 1549.179688 1591.859375 1549.601562 1594.691406 1551.160156 1596.671875 C 1569.441406 1619.871094 1611.03125 1672.660156 1611.03125 1672.660156 C 1611.03125 1672.660156 1564.46875 1625.5 1544.011719 1604.78125 C 1542.261719 1603.011719 1539.769531 1602.53125 1537.609375 1603.550781 C 1535.441406 1604.558594 1533.980469 1606.898438 1533.851562 1609.550781 C 1531.390625 1659.089844 1523.390625 1819.898438 1523.390625 1819.898438 C 1523.390625 1819.898438 1515.398438 1659.089844 1512.941406 1609.550781 C 1512.808594 1606.898438 1511.339844 1604.558594 1509.179688 1603.550781 C 1507.011719 1602.53125 1504.519531 1603.011719 1502.769531 1604.78125 C 1482.308594 1625.5 1435.75 1672.660156 1435.75 1672.660156 C 1435.75 1672.660156 1477.339844 1619.871094 1495.621094 1596.671875 C 1497.179688 1594.691406 1497.609375 1591.859375 1496.710938 1589.410156 C 1495.808594 1586.949219 1493.75 1585.289062 1491.410156 1585.140625 C 1447.71875 1582.351562 1305.910156 1573.289062 1305.910156 1573.289062 C 1305.910156 1573.289062 1447.71875 1564.21875 1491.410156 1561.429688 C 1493.75 1561.28125 1495.808594 1559.628906 1496.710938 1557.171875 C 1497.609375 1554.710938 1497.179688 1551.890625 1495.621094 1549.910156 C 1477.339844 1526.710938 1435.75 1473.910156 1435.75 1473.910156 C 1435.75 1473.910156 1482.308594 1521.070312 1502.769531 1541.800781 C 1504.519531 1543.570312 1507.011719 1544.050781 1509.179688 1543.03125 C 1511.339844 1542.011719 1512.808594 1539.679688 1512.941406 1537.019531 C 1515.398438 1487.488281 1523.390625 1326.671875 1523.390625 1326.671875 C 1523.390625 1326.671875 1531.390625 1487.488281 1533.851562 1537.019531 "/>
<path fill-rule="evenodd" fill="rgb(99.21875%, 89.451599%, 77.929688%)" fill-opacity="1" d="M 1507.371094 1603.039062 C 1508.328125 1602.949219 1509.308594 1603.109375 1510.230469 1603.550781 C 1512.378906 1604.558594 1513.839844 1606.898438 1513.96875 1609.550781 L 1523.890625 1809.980469 L 1523.390625 1819.898438 C 1523.390625 1819.898438 1515.398438 1659.089844 1512.941406 1609.550781 C 1512.808594 1606.898438 1511.339844 1604.558594 1509.179688 1603.550781 C 1508.589844 1603.269531 1507.980469 1603.109375 1507.371094 1603.039062 Z M 1540.398438 1603.039062 C 1542.019531 1602.898438 1543.648438 1603.5 1544.898438 1604.78125 L 1608.660156 1669.648438 L 1611.03125 1672.660156 C 1611.03125 1672.660156 1564.46875 1625.5 1544.011719 1604.78125 C 1542.988281 1603.738281 1541.710938 1603.148438 1540.398438 1603.039062 Z M 1442.46875 1480.71875 L 1496.730469 1549.910156 C 1498.289062 1551.890625 1498.710938 1554.710938 1497.808594 1557.171875 C 1496.921875 1559.628906 1494.871094 1561.28125 1492.539062 1561.429688 C 1449.050781 1564.21875 1307.871094 1573.289062 1307.871094 1573.289062 C 1307.871094 1573.289062 1449.050781 1582.351562 1492.539062 1585.140625 C 1494.871094 1585.289062 1496.921875 1586.949219 1497.808594 1589.410156 C 1498.710938 1591.859375 1498.289062 1594.691406 1496.730469 1596.671875 L 1442.46875 1665.859375 L 1435.75 1672.660156 C 1435.75 1672.660156 1477.339844 1619.871094 1495.621094 1596.671875 C 1497.179688 1594.691406 1497.609375 1591.859375 1496.710938 1589.410156 C 1495.808594 1586.949219 1493.75 1585.289062 1491.410156 1585.140625 C 1447.71875 1582.351562 1305.910156 1573.289062 1305.910156 1573.289062 C 1305.910156 1573.289062 1447.71875 1564.21875 1491.410156 1561.429688 C 1493.75 1561.28125 1495.808594 1559.628906 1496.710938 1557.171875 C 1497.609375 1554.710938 1497.179688 1551.890625 1495.621094 1549.910156 C 1477.339844 1526.710938 1435.75 1473.910156 1435.75 1473.910156 Z M 1740.878906 1573.289062 Z M 1608.660156 1476.929688 L 1544.898438 1541.800781 C 1543.648438 1543.070312 1542.019531 1543.679688 1540.398438 1543.539062 C 1541.710938 1543.429688 1542.988281 1542.828125 1544.011719 1541.800781 C 1564.46875 1521.070312 1611.03125 1473.910156 1611.03125 1473.910156 Z M 1523.890625 1336.601562 L 1513.96875 1537.019531 C 1513.839844 1539.679688 1512.378906 1542.011719 1510.230469 1543.03125 C 1509.308594 1543.460938 1508.328125 1543.628906 1507.371094 1543.53125 C 1507.980469 1543.46875 1508.589844 1543.308594 1509.179688 1543.03125 C 1511.339844 1542.011719 1512.808594 1539.679688 1512.941406 1537.019531 C 1515.398438 1487.488281 1523.390625 1326.671875 1523.390625 1326.671875 L 1523.890625 1336.601562 "/>
<path fill-rule="evenodd" fill="rgb(99.21875%, 89.451599%, 77.929688%)" fill-opacity="1" d="M 1679.648438 1425.238281 C 1679.671875 1426 1679.941406 1426.671875 1680.351562 1426.960938 C 1680.75 1427.25 1681.21875 1427.109375 1681.539062 1426.609375 C 1685.351562 1420.691406 1694.03125 1407.21875 1694.03125 1407.21875 C 1694.03125 1407.21875 1686.28125 1422.300781 1682.871094 1428.921875 C 1682.578125 1429.488281 1682.5 1430.289062 1682.671875 1430.988281 C 1682.839844 1431.699219 1683.21875 1432.171875 1683.660156 1432.210938 C 1691.800781 1433.011719 1718.230469 1435.601562 1718.230469 1435.601562 C 1718.230469 1435.601562 1691.800781 1438.191406 1683.660156 1438.980469 C 1683.21875 1439.019531 1682.839844 1439.5 1682.671875 1440.199219 C 1682.5 1440.898438 1682.578125 1441.710938 1682.871094 1442.269531 C 1686.28125 1448.898438 1694.03125 1463.96875 1694.03125 1463.96875 C 1694.03125 1463.96875 1685.351562 1450.511719 1681.539062 1444.589844 C 1681.21875 1444.078125 1680.75 1443.949219 1680.351562 1444.238281 C 1679.941406 1444.53125 1679.671875 1445.191406 1679.648438 1445.949219 C 1679.191406 1460.101562 1677.699219 1506.019531 1677.699219 1506.019531 C 1677.699219 1506.019531 1676.210938 1460.101562 1675.75 1445.949219 C 1675.730469 1445.191406 1675.449219 1444.53125 1675.050781 1444.238281 C 1674.648438 1443.949219 1674.179688 1444.078125 1673.859375 1444.589844 C 1670.039062 1450.511719 1661.371094 1463.96875 1661.371094 1463.96875 C 1661.371094 1463.96875 1669.121094 1448.898438 1672.519531 1442.269531 C 1672.808594 1441.710938 1672.890625 1440.898438 1672.730469 1440.199219 C 1672.558594 1439.5 1672.179688 1439.019531 1671.738281 1438.980469 C 1663.601562 1438.191406 1637.171875 1435.601562 1637.171875 1435.601562 C 1637.171875 1435.601562 1663.601562 1433.011719 1671.738281 1432.210938 C 1672.179688 1432.171875 1672.558594 1431.699219 1672.730469 1430.988281 C 1672.890625 1430.289062 1672.808594 1429.488281 1672.519531 1428.921875 C 1669.121094 1422.300781 1661.371094 1407.21875 1661.371094 1407.21875 C 1661.371094 1407.21875 1670.039062 1420.691406 1673.859375 1426.609375 C 1674.179688 1427.109375 1674.648438 1427.25 1675.050781 1426.960938 C 1675.449219 1426.671875 1675.730469 1426 1675.75 1425.238281 C 1676.210938 1411.101562 1677.699219 1365.179688 1677.699219 1365.179688 C 1677.699219 1365.179688 1679.191406 1411.101562 1679.648438 1425.238281 "/>
<path fill-rule="evenodd" fill="rgb(99.21875%, 89.451599%, 77.929688%)" fill-opacity="1" d="M 1383.289062 1342.171875 C 1383.320312 1342.929688 1383.589844 1343.589844 1383.988281 1343.890625 C 1384.398438 1344.179688 1384.859375 1344.039062 1385.191406 1343.53125 C 1389 1337.621094 1397.679688 1324.148438 1397.679688 1324.148438 C 1397.679688 1324.148438 1389.929688 1339.21875 1386.519531 1345.851562 C 1386.230469 1346.410156 1386.148438 1347.21875 1386.320312 1347.921875 C 1386.488281 1348.621094 1386.871094 1349.101562 1387.308594 1349.140625 C 1395.441406 1349.941406 1421.871094 1352.519531 1421.871094 1352.519531 C 1421.871094 1352.519531 1395.441406 1355.109375 1387.308594 1355.910156 C 1386.871094 1355.949219 1386.488281 1356.429688 1386.320312 1357.128906 C 1386.148438 1357.828125 1386.230469 1358.640625 1386.519531 1359.199219 C 1389.929688 1365.828125 1397.679688 1380.898438 1397.679688 1380.898438 C 1397.679688 1380.898438 1389 1367.441406 1385.191406 1361.519531 C 1384.859375 1361.011719 1384.398438 1360.871094 1383.988281 1361.160156 C 1383.589844 1361.460938 1383.320312 1362.121094 1383.289062 1362.878906 C 1382.839844 1377.019531 1381.339844 1422.941406 1381.339844 1422.941406 C 1381.339844 1422.941406 1379.859375 1377.019531 1379.398438 1362.878906 C 1379.371094 1362.121094 1379.101562 1361.460938 1378.699219 1361.160156 C 1378.289062 1360.871094 1377.828125 1361.011719 1377.5 1361.519531 C 1373.691406 1367.441406 1365.019531 1380.898438 1365.019531 1380.898438 C 1365.019531 1380.898438 1372.769531 1365.828125 1376.171875 1359.199219 C 1376.460938 1358.640625 1376.539062 1357.828125 1376.371094 1357.128906 C 1376.210938 1356.429688 1375.820312 1355.949219 1375.390625 1355.910156 C 1367.238281 1355.109375 1340.820312 1352.519531 1340.820312 1352.519531 C 1340.820312 1352.519531 1367.238281 1349.941406 1375.390625 1349.140625 C 1375.820312 1349.101562 1376.210938 1348.621094 1376.371094 1347.921875 C 1376.539062 1347.21875 1376.460938 1346.410156 1376.171875 1345.851562 C 1372.769531 1339.21875 1365.019531 1324.148438 1365.019531 1324.148438 C 1365.019531 1324.148438 1373.691406 1337.621094 1377.5 1343.53125 C 1377.828125 1344.039062 1378.289062 1344.179688 1378.699219 1343.890625 C 1379.101562 1343.589844 1379.371094 1342.929688 1379.398438 1342.171875 C 1379.859375 1328.019531 1381.339844 1282.109375 1381.339844 1282.109375 C 1381.339844 1282.109375 1382.839844 1328.019531 1383.289062 1342.171875 "/>
<path fill-rule="evenodd" fill="rgb(99.21875%, 89.451599%, 77.929688%)" fill-opacity="1" d="M 1590.871094 1298.25 C 1590.890625 1298.71875 1591.058594 1299.140625 1591.308594 1299.320312 C 1591.558594 1299.5 1591.851562 1299.410156 1592.050781 1299.101562 C 1594.421875 1295.410156 1599.828125 1287.03125 1599.828125 1287.03125 C 1599.828125 1287.03125 1595 1296.421875 1592.878906 1300.539062 C 1592.699219 1300.890625 1592.648438 1301.390625 1592.75 1301.828125 C 1592.859375 1302.269531 1593.101562 1302.558594 1593.371094 1302.589844 C 1598.441406 1303.078125 1614.890625 1304.699219 1614.890625 1304.699219 C 1614.890625 1304.699219 1598.441406 1306.308594 1593.371094 1306.800781 C 1593.101562 1306.828125 1592.859375 1307.121094 1592.75 1307.558594 C 1592.648438 1308 1592.699219 1308.5 1592.878906 1308.851562 C 1595 1312.980469 1599.828125 1322.359375 1599.828125 1322.359375 C 1599.828125 1322.359375 1594.421875 1313.980469 1592.050781 1310.289062 C 1591.851562 1309.980469 1591.558594 1309.890625 1591.308594 1310.070312 C 1591.058594 1310.261719 1590.890625 1310.671875 1590.871094 1311.140625 C 1590.589844 1319.949219 1589.660156 1348.53125 1589.660156 1348.53125 C 1589.660156 1348.53125 1588.730469 1319.949219 1588.449219 1311.140625 C 1588.429688 1310.671875 1588.261719 1310.261719 1588.011719 1310.070312 C 1587.761719 1309.890625 1587.46875 1309.980469 1587.269531 1310.289062 C 1584.890625 1313.980469 1579.488281 1322.359375 1579.488281 1322.359375 C 1579.488281 1322.359375 1584.320312 1312.980469 1586.441406 1308.851562 C 1586.621094 1308.5 1586.671875 1308 1586.558594 1307.558594 C 1586.460938 1307.121094 1586.21875 1306.828125 1585.949219 1306.800781 C 1580.878906 1306.308594 1564.429688 1304.699219 1564.429688 1304.699219 C 1564.429688 1304.699219 1580.878906 1303.078125 1585.949219 1302.589844 C 1586.21875 1302.558594 1586.460938 1302.269531 1586.558594 1301.828125 C 1586.671875 1301.390625 1586.621094 1300.890625 1586.441406 1300.539062 C 1584.320312 1296.421875 1579.488281 1287.03125 1579.488281 1287.03125 C 1579.488281 1287.03125 1584.890625 1295.410156 1587.269531 1299.101562 C 1587.46875 1299.410156 1587.761719 1299.5 1588.011719 1299.320312 C 1588.261719 1299.140625 1588.429688 1298.71875 1588.449219 1298.25 C 1588.730469 1289.441406 1589.660156 1260.859375 1589.660156 1260.859375 C 1589.660156 1260.859375 1590.589844 1289.441406 1590.871094 1298.25 "/>
<path fill-rule="evenodd" fill="rgb(99.21875%, 89.451599%, 77.929688%)" fill-opacity="1" d="M 1659.859375 1730.828125 C 1659.878906 1731.53125 1660.128906 1732.140625 1660.5 1732.398438 C 1660.871094 1732.671875 1661.289062 1732.539062 1661.589844 1732.078125 C 1665.078125 1726.671875 1673.011719 1714.359375 1673.011719 1714.359375 C 1673.011719 1714.359375 1665.921875 1728.140625 1662.808594 1734.199219 C 1662.539062 1734.71875 1662.46875 1735.449219 1662.621094 1736.089844 C 1662.78125 1736.738281 1663.128906 1737.171875 1663.519531 1737.210938 C 1670.96875 1737.941406 1695.140625 1740.300781 1695.140625 1740.300781 C 1695.140625 1740.300781 1670.96875 1742.671875 1663.519531 1743.398438 C 1663.128906 1743.441406 1662.78125 1743.871094 1662.621094 1744.511719 C 1662.46875 1745.160156 1662.539062 1745.890625 1662.808594 1746.410156 C 1665.921875 1752.46875 1673.011719 1766.25 1673.011719 1766.25 C 1673.011719 1766.25 1665.078125 1753.941406 1661.589844 1748.53125 C 1661.289062 1748.058594 1660.871094 1747.941406 1660.5 1748.210938 C 1660.128906 1748.46875 1659.878906 1749.078125 1659.859375 1749.769531 C 1659.441406 1762.710938 1658.070312 1804.699219 1658.070312 1804.699219 C 1658.070312 1804.699219 1656.710938 1762.710938 1656.289062 1749.769531 C 1656.269531 1749.078125 1656.019531 1748.46875 1655.648438 1748.210938 C 1655.28125 1747.941406 1654.859375 1748.058594 1654.558594 1748.53125 C 1651.070312 1753.941406 1643.140625 1766.25 1643.140625 1766.25 C 1643.140625 1766.25 1650.230469 1752.46875 1653.339844 1746.410156 C 1653.609375 1745.890625 1653.679688 1745.160156 1653.53125 1744.511719 C 1653.371094 1743.871094 1653.019531 1743.441406 1652.628906 1743.398438 C 1645.179688 1742.671875 1621.011719 1740.300781 1621.011719 1740.300781 C 1621.011719 1740.300781 1645.179688 1737.941406 1652.628906 1737.210938 C 1653.019531 1737.171875 1653.371094 1736.738281 1653.53125 1736.089844 C 1653.679688 1735.449219 1653.609375 1734.71875 1653.339844 1734.199219 C 1650.230469 1728.140625 1643.140625 1714.359375 1643.140625 1714.359375 C 1643.140625 1714.359375 1651.070312 1726.671875 1654.558594 1732.078125 C 1654.859375 1732.539062 1655.28125 1732.671875 1655.648438 1732.398438 C 1656.019531 1732.140625 1656.269531 1731.53125 1656.289062 1730.828125 C 1656.710938 1717.898438 1658.070312 1675.910156 1658.070312 1675.910156 C 1658.070312 1675.910156 1659.441406 1717.898438 1659.859375 1730.828125 "/>
<path fill-rule="evenodd" fill="rgb(99.21875%, 89.451599%, 77.929688%)" fill-opacity="1" d="M 1388.671875 1777.691406 C 1388.691406 1778.171875 1388.859375 1778.578125 1389.109375 1778.761719 C 1389.359375 1778.941406 1389.648438 1778.859375 1389.851562 1778.539062 C 1392.230469 1774.859375 1397.628906 1766.480469 1397.628906 1766.480469 C 1397.628906 1766.480469 1392.800781 1775.859375 1390.679688 1779.988281 C 1390.5 1780.339844 1390.449219 1780.839844 1390.558594 1781.28125 C 1390.660156 1781.710938 1390.898438 1782.011719 1391.171875 1782.03125 C 1396.238281 1782.53125 1412.691406 1784.140625 1412.691406 1784.140625 C 1412.691406 1784.140625 1396.238281 1785.75 1391.171875 1786.25 C 1390.898438 1786.28125 1390.660156 1786.570312 1390.558594 1787.011719 C 1390.449219 1787.441406 1390.5 1787.949219 1390.679688 1788.300781 C 1392.800781 1792.421875 1397.628906 1801.808594 1397.628906 1801.808594 C 1397.628906 1801.808594 1392.230469 1793.421875 1389.851562 1789.738281 C 1389.648438 1789.421875 1389.359375 1789.339844 1389.109375 1789.519531 C 1388.859375 1789.699219 1388.691406 1790.121094 1388.671875 1790.589844 C 1388.390625 1799.390625 1387.460938 1827.980469 1387.460938 1827.980469 C 1387.460938 1827.980469 1386.53125 1799.390625 1386.25 1790.589844 C 1386.230469 1790.121094 1386.058594 1789.699219 1385.808594 1789.519531 C 1385.558594 1789.339844 1385.269531 1789.421875 1385.070312 1789.738281 C 1382.691406 1793.421875 1377.289062 1801.808594 1377.289062 1801.808594 C 1377.289062 1801.808594 1382.121094 1792.421875 1384.238281 1788.300781 C 1384.421875 1787.949219 1384.46875 1787.441406 1384.359375 1787.011719 C 1384.261719 1786.570312 1384.019531 1786.28125 1383.75 1786.25 C 1378.679688 1785.75 1362.230469 1784.140625 1362.230469 1784.140625 C 1362.230469 1784.140625 1378.679688 1782.53125 1383.75 1782.03125 C 1384.019531 1782.011719 1384.261719 1781.710938 1384.359375 1781.28125 C 1384.46875 1780.839844 1384.421875 1780.339844 1384.238281 1779.988281 C 1382.121094 1775.859375 1377.289062 1766.480469 1377.289062 1766.480469 C 1377.289062 1766.480469 1382.691406 1774.859375 1385.070312 1778.539062 C 1385.269531 1778.859375 1385.558594 1778.941406 1385.808594 1778.761719 C 1386.058594 1778.578125 1386.230469 1778.171875 1386.25 1777.691406 C 1386.53125 1768.890625 1387.460938 1740.300781 1387.460938 1740.300781 C 1387.460938 1740.300781 1388.390625 1768.890625 1388.671875 1777.691406 "/>
<path fill-rule="evenodd" fill="rgb(98.242188%, 84.179688%, 0%)" fill-opacity="1" d="M 2525.210938 1455.988281 C 2525.820312 1463.730469 2530.71875 1470.46875 2537.890625 1473.441406 C 2545.058594 1476.410156 2553.300781 1475.109375 2559.199219 1470.070312 C 2610.550781 1426.210938 2708.039062 1342.949219 2708.039062 1342.949219 C 2708.039062 1342.949219 2625.101562 1440.058594 2582.460938 1489.988281 C 2577.550781 1495.738281 2576.179688 1503.71875 2578.890625 1510.789062 C 2581.601562 1517.859375 2587.960938 1522.871094 2595.460938 1523.871094 C 2645.058594 1530.429688 2726.070312 1541.140625 2726.070312 1541.140625 C 2726.070312 1541.140625 2645.769531 1551.761719 2597.589844 1558.140625 C 2590.28125 1559.101562 2584.039062 1563.890625 2581.21875 1570.710938 C 2578.398438 1577.519531 2579.421875 1585.308594 2583.910156 1591.171875 C 2613.46875 1629.738281 2662.738281 1694.03125 2662.738281 1694.03125 C 2662.738281 1694.03125 2597.890625 1644.328125 2558.171875 1613.890625 C 2552.160156 1609.289062 2544.121094 1608.339844 2537.199219 1611.421875 C 2530.289062 1614.5 2525.621094 1621.121094 2525.019531 1628.660156 C 2519.871094 1694.109375 2509.851562 1821.429688 2509.851562 1821.429688 C 2509.851562 1821.429688 2499.789062 1693.621094 2494.488281 1626.300781 C 2493.878906 1618.558594 2488.980469 1611.808594 2481.808594 1608.839844 C 2474.628906 1605.871094 2466.398438 1607.179688 2460.488281 1612.21875 C 2409.148438 1656.070312 2311.660156 1739.328125 2311.660156 1739.328125 C 2311.660156 1739.328125 2394.601562 1642.21875 2437.230469 1592.300781 C 2442.148438 1586.539062 2443.519531 1578.558594 2440.808594 1571.488281 C 2438.101562 1564.429688 2431.738281 1559.410156 2424.238281 1558.421875 C 2374.628906 1551.859375 2293.628906 1541.140625 2293.628906 1541.140625 C 2293.628906 1541.140625 2373.929688 1530.519531 2422.109375 1524.148438 C 2429.421875 1523.179688 2435.660156 1518.390625 2438.480469 1511.578125 C 2441.300781 1504.769531 2440.28125 1496.96875 2435.789062 1491.121094 C 2406.230469 1452.539062 2356.960938 1388.25 2356.960938 1388.25 C 2356.960938 1388.25 2421.808594 1437.949219 2461.53125 1468.390625 C 2467.539062 1472.988281 2475.578125 1473.941406 2482.488281 1470.859375 C 2489.410156 1467.78125 2494.078125 1461.171875 2494.679688 1453.621094 C 2499.828125 1388.171875 2509.851562 1260.859375 2509.851562 1260.859375 C 2509.851562 1260.859375 2519.910156 1388.671875 2525.210938 1455.988281 "/>
<path fill-rule="evenodd" fill="rgb(99.21875%, 89.451599%, 77.929688%)" fill-opacity="1" d="M 2475.558594 1607.339844 C 2478.71875 1607.078125 2481.949219 1607.570312 2484.988281 1608.839844 C 2492.058594 1611.808594 2496.898438 1618.558594 2497.5 1626.300781 L 2511.261719 1803.429688 L 2509.851562 1821.429688 C 2509.851562 1821.429688 2499.789062 1693.621094 2494.488281 1626.300781 C 2493.878906 1618.558594 2488.980469 1611.808594 2481.808594 1608.839844 C 2479.78125 1608.011719 2477.671875 1607.511719 2475.558594 1607.339844 Z M 2368.390625 1397.011719 L 2439.570312 1491.121094 C 2443.988281 1496.96875 2445.011719 1504.769531 2442.21875 1511.578125 C 2439.441406 1518.390625 2433.28125 1523.179688 2426.058594 1524.148438 C 2378.511719 1530.519531 2299.261719 1541.140625 2299.261719 1541.140625 C 2299.261719 1541.140625 2379.210938 1551.859375 2428.171875 1558.421875 C 2435.570312 1559.410156 2441.851562 1564.429688 2444.519531 1571.488281 C 2447.199219 1578.558594 2445.839844 1586.539062 2440.988281 1592.300781 L 2330.921875 1722.890625 L 2311.660156 1739.328125 C 2311.660156 1739.328125 2394.601562 1642.21875 2437.230469 1592.300781 C 2442.148438 1586.539062 2443.519531 1578.558594 2440.808594 1571.488281 C 2438.101562 1564.429688 2431.738281 1559.410156 2424.238281 1558.421875 C 2374.628906 1551.859375 2293.628906 1541.140625 2293.628906 1541.140625 C 2293.628906 1541.140625 2373.929688 1530.519531 2422.109375 1524.148438 C 2429.421875 1523.179688 2435.660156 1518.390625 2438.480469 1511.578125 C 2441.300781 1504.769531 2440.28125 1496.96875 2435.789062 1491.121094 C 2406.230469 1452.539062 2356.960938 1388.25 2356.960938 1388.25 Z M 2546.789062 1609.671875 C 2551.578125 1609.390625 2556.410156 1610.828125 2560.351562 1613.890625 L 2661.53125 1692.449219 L 2662.738281 1694.03125 C 2662.738281 1694.03125 2597.890625 1644.328125 2558.171875 1613.890625 C 2554.820312 1611.328125 2550.851562 1609.898438 2546.789062 1609.671875 Z M 2707.378906 1343.730469 L 2561.378906 1470.070312 C 2557.308594 1473.578125 2552.128906 1475.28125 2546.96875 1474.980469 C 2551.398438 1474.730469 2555.710938 1473.050781 2559.199219 1470.070312 C 2610.550781 1426.210938 2708.039062 1342.949219 2708.039062 1342.949219 Z M 2511.261719 1278.851562 L 2497.691406 1453.621094 C 2497.101562 1461.171875 2492.488281 1467.78125 2485.660156 1470.859375 C 2482.488281 1472.289062 2479.078125 1472.859375 2475.738281 1472.578125 C 2478.039062 1472.398438 2480.320312 1471.828125 2482.488281 1470.859375 C 2489.410156 1467.78125 2494.078125 1461.171875 2494.679688 1453.621094 C 2499.828125 1388.171875 2509.851562 1260.859375 2509.851562 1260.859375 L 2511.261719 1278.851562 "/>
<path fill-rule="evenodd" fill="rgb(99.21875%, 89.451599%, 77.929688%)" fill-opacity="1" d="M 2584.261719 1334.109375 L 2586.539062 1349.378906 L 2597.148438 1352.660156 L 2586.539062 1355.941406 L 2584.261719 1371.210938 L 2581.980469 1355.941406 L 2571.371094 1352.660156 L 2581.980469 1349.378906 L 2584.261719 1334.109375 "/>
<path fill-rule="evenodd" fill="rgb(100%, 90.818787%, 36.009216%)" fill-opacity="1" d="M 2652.5 1304.671875 L 2653.910156 1314.109375 L 2660.460938 1316.128906 L 2653.910156 1318.160156 L 2652.5 1327.589844 L 2651.089844 1318.160156 L 2644.539062 1316.128906 L 2651.089844 1314.109375 L 2652.5 1304.671875 "/>
<path fill-rule="evenodd" fill="rgb(99.21875%, 89.451599%, 77.929688%)" fill-opacity="1" d="M 2724.878906 1447.769531 L 2727.488281 1465.269531 L 2739.640625 1469.03125 L 2727.488281 1472.789062 L 2724.878906 1490.289062 L 2722.269531 1472.789062 L 2710.109375 1469.03125 L 2722.269531 1465.269531 L 2724.878906 1447.769531 "/>
<path fill-rule="evenodd" fill="rgb(99.21875%, 89.451599%, 77.929688%)" fill-opacity="1" d="M 2693.980469 1613.578125 L 2696.261719 1628.859375 L 2706.871094 1632.140625 L 2696.261719 1635.421875 L 2693.980469 1650.691406 L 2691.710938 1635.421875 L 2681.089844 1632.140625 L 2691.710938 1628.859375 L 2693.980469 1613.578125 "/>
<path fill-rule="evenodd" fill="rgb(99.21875%, 89.451599%, 77.929688%)" fill-opacity="1" d="M 2364.878906 1280.109375 L 2367.148438 1295.390625 L 2377.761719 1298.671875 L 2367.148438 1301.949219 L 2364.878906 1317.21875 L 2362.601562 1301.949219 L 2351.988281 1298.671875 L 2362.601562 1295.390625 L 2364.878906 1280.109375 "/>
<path fill-rule="evenodd" fill="rgb(100%, 90.818787%, 36.009216%)" fill-opacity="1" d="M 2447.890625 1342.019531 L 2450.171875 1357.300781 L 2460.78125 1360.578125 L 2450.171875 1363.859375 L 2447.890625 1379.128906 L 2445.609375 1363.859375 L 2435 1360.578125 L 2445.609375 1357.300781 L 2447.890625 1342.019531 "/>
<path fill-rule="evenodd" fill="rgb(99.21875%, 89.451599%, 77.929688%)" fill-opacity="1" d="M 2345.429688 1457.039062 L 2347.128906 1468.410156 L 2355.03125 1470.851562 L 2347.128906 1473.289062 L 2345.429688 1484.660156 L 2343.738281 1473.289062 L 2335.839844 1470.851562 L 2343.738281 1468.410156 L 2345.429688 1457.039062 "/>
<path fill-rule="evenodd" fill="rgb(99.21875%, 89.451599%, 77.929688%)" fill-opacity="1" d="M 2300.191406 1613.578125 L 2303.320312 1634.539062 L 2317.878906 1639.039062 L 2303.320312 1643.550781 L 2300.191406 1664.511719 L 2297.058594 1643.550781 L 2282.5 1639.039062 L 2297.058594 1634.539062 L 2300.191406 1613.578125 "/>
<path fill-rule="evenodd" fill="rgb(99.21875%, 89.451599%, 77.929688%)" fill-opacity="1" d="M 2428.078125 1744.449219 L 2430.359375 1759.730469 L 2440.96875 1763.011719 L 2430.359375 1766.289062 L 2428.078125 1781.558594 L 2425.800781 1766.289062 L 2415.191406 1763.011719 L 2425.800781 1759.730469 L 2428.078125 1744.449219 "/>
<path fill-rule="evenodd" fill="rgb(99.21875%, 89.451599%, 77.929688%)" fill-opacity="1" d="M 2571.53125 1795.121094 L 2573.550781 1808.640625 L 2582.941406 1811.550781 L 2573.550781 1814.449219 L 2571.53125 1827.980469 L 2569.511719 1814.449219 L 2560.121094 1811.550781 L 2569.511719 1808.640625 L 2571.53125 1795.121094 "/>
<path fill-rule="evenodd" fill="rgb(100%, 90.818787%, 36.009216%)" fill-opacity="1" d="M 2565.898438 1705.070312 L 2567.921875 1718.589844 L 2577.320312 1721.5 L 2567.921875 1724.398438 L 2565.898438 1737.929688 L 2563.878906 1724.398438 L 2554.488281 1721.5 L 2563.878906 1718.589844 L 2565.898438 1705.070312 "/>
<path fill-rule="evenodd" fill="rgb(100%, 90.818787%, 36.009216%)" fill-opacity="1" d="M 2633.128906 1737.929688 L 2635.140625 1751.460938 L 2644.539062 1754.359375 L 2635.140625 1757.261719 L 2633.128906 1770.789062 L 2631.109375 1757.261719 L 2621.710938 1754.359375 L 2631.109375 1751.460938 L 2633.128906 1737.929688 "/>
<path fill-rule="evenodd" fill="rgb(98.242188%, 84.179688%, 0%)" fill-opacity="1" d="M 3603.390625 1356.71875 C 3603.390625 1356.71875 3587.699219 1400.898438 3572.359375 1444.058594 C 3556.121094 1489.738281 3578.558594 1540.128906 3623.371094 1558.628906 C 3665.710938 1576.121094 3709.039062 1594.011719 3709.039062 1594.011719 C 3709.039062 1594.011719 3662.179688 1592.730469 3616.390625 1591.480469 C 3567.921875 1590.160156 3526.941406 1627.070312 3523.191406 1675.398438 C 3519.640625 1721.070312 3516.011719 1767.808594 3516.011719 1767.808594 C 3516.011719 1767.808594 3502.75 1722.851562 3489.789062 1678.910156 C 3476.070312 1632.410156 3428.300781 1604.839844 3381.171875 1616.210938 C 3336.640625 1626.949219 3291.070312 1637.941406 3291.070312 1637.941406 C 3291.070312 1637.941406 3329.730469 1611.429688 3367.511719 1585.53125 C 3407.5 1558.109375 3418.96875 1504.160156 3393.589844 1462.851562 C 3369.609375 1423.820312 3345.070312 1383.871094 3345.070312 1383.871094 C 3345.070312 1383.871094 3382.238281 1412.460938 3418.550781 1440.378906 C 3456.980469 1469.941406 3511.828125 1464.171875 3543.269531 1427.269531 C 3572.988281 1392.410156 3603.390625 1356.71875 3603.390625 1356.71875 "/>
<path fill-rule="evenodd" fill="rgb(99.21875%, 89.451599%, 77.929688%)" fill-opacity="1" d="M 3371.078125 1403.871094 L 3405.699219 1460.238281 C 3431.078125 1501.550781 3419.609375 1555.5 3379.628906 1582.910156 C 3343.980469 1607.351562 3308.351562 1631.78125 3308.351562 1631.78125 C 3308.351562 1631.78125 3350.351562 1621.648438 3392.359375 1611.519531 C 3439.488281 1600.148438 3487.261719 1627.730469 3500.980469 1674.21875 L 3518.628906 1734.078125 L 3516.011719 1767.808594 C 3516.011719 1767.808594 3502.75 1722.851562 3489.789062 1678.910156 C 3476.070312 1632.410156 3428.300781 1604.839844 3381.171875 1616.210938 C 3336.640625 1626.949219 3291.070312 1637.941406 3291.070312 1637.941406 C 3291.070312 1637.941406 3329.730469 1611.429688 3367.511719 1585.53125 C 3407.5 1558.109375 3418.96875 1504.160156 3393.589844 1462.851562 C 3369.609375 1423.820312 3345.070312 1383.871094 3345.070312 1383.871094 Z M 3577.898438 1598.859375 C 3591.878906 1590.898438 3608.128906 1586.558594 3625.320312 1587.03125 L 3696.871094 1588.988281 L 3709.039062 1594.011719 C 3709.039062 1594.011719 3662.179688 1592.730469 3616.390625 1591.480469 C 3602.738281 1591.109375 3589.691406 1593.769531 3577.898438 1598.859375 Z M 3596.609375 1375.828125 L 3553.699219 1426.179688 C 3536.761719 1446.050781 3513.03125 1456.898438 3488.730469 1458.050781 C 3509.28125 1454.691406 3528.769531 1444.289062 3543.269531 1427.269531 C 3572.988281 1392.410156 3603.390625 1356.71875 3603.390625 1356.71875 L 3596.609375 1375.828125 "/>
<path fill-rule="evenodd" fill="rgb(99.21875%, 89.451599%, 77.929688%)" fill-opacity="1" d="M 3685.730469 1408.75 L 3689.851562 1438.140625 L 3709.039062 1444.449219 L 3689.851562 1450.761719 L 3685.730469 1480.148438 L 3681.609375 1450.761719 L 3662.429688 1444.449219 L 3681.609375 1438.140625 L 3685.730469 1408.75 "/>
<path fill-rule="evenodd" fill="rgb(99.21875%, 89.451599%, 77.929688%)" fill-opacity="1" d="M 3500.058594 1321.019531 L 3504.179688 1350.410156 L 3523.359375 1356.71875 L 3504.179688 1363.03125 L 3500.058594 1392.421875 L 3495.941406 1363.03125 L 3476.75 1356.71875 L 3495.941406 1350.410156 L 3500.058594 1321.019531 "/>
<path fill-rule="evenodd" fill="rgb(99.21875%, 89.451599%, 77.929688%)" fill-opacity="1" d="M 3632.769531 1665.351562 L 3636.890625 1694.738281 L 3656.070312 1701.050781 L 3636.890625 1707.359375 L 3632.769531 1736.75 L 3628.648438 1707.359375 L 3609.460938 1701.050781 L 3628.648438 1694.738281 L 3632.769531 1665.351562 "/>
<path fill-rule="evenodd" fill="rgb(99.21875%, 89.451599%, 77.929688%)" fill-opacity="1" d="M 3406.800781 1670.730469 L 3410.921875 1700.121094 L 3430.109375 1706.429688 L 3410.921875 1712.738281 L 3406.800781 1742.128906 L 3402.679688 1712.738281 L 3383.488281 1706.429688 L 3402.679688 1700.121094 L 3406.800781 1670.730469 "/>
<path fill-rule="evenodd" fill="rgb(99.21875%, 89.451599%, 77.929688%)" fill-opacity="1" d="M 3304.578125 1471.671875 L 3308.699219 1501.058594 L 3327.890625 1507.371094 L 3308.699219 1513.679688 L 3304.578125 1543.070312 L 3300.460938 1513.679688 L 3281.269531 1507.371094 L 3300.460938 1501.058594 L 3304.578125 1471.671875 "/>
<path fill-rule="evenodd" fill="rgb(98.242188%, 84.179688%, 0%)" fill-opacity="1" d="M 515.089844 1431.261719 C 520.949219 1448.898438 536.371094 1461.640625 554.800781 1464.070312 C 573.230469 1466.488281 591.425781 1458.179688 601.648438 1442.660156 C 610.140625 1429.761719 616.152344 1420.628906 616.152344 1420.628906 C 616.152344 1420.628906 611.253906 1430.410156 604.335938 1444.210938 C 596.007812 1460.820312 597.902344 1480.738281 609.21875 1495.480469 C 620.53125 1510.230469 639.277344 1517.21875 657.484375 1513.46875 C 710.105469 1502.640625 764.28125 1491.5 764.28125 1491.5 C 764.28125 1491.5 711.789062 1508.929688 660.804688 1525.859375 C 643.164062 1531.71875 630.425781 1547.148438 627.996094 1565.570312 C 625.570312 1584 633.886719 1602.199219 649.410156 1612.421875 C 662.300781 1620.910156 671.429688 1626.929688 671.429688 1626.929688 C 671.429688 1626.929688 661.65625 1622.03125 647.859375 1615.109375 C 631.242188 1606.78125 611.328125 1608.679688 596.578125 1619.988281 C 581.835938 1631.308594 574.847656 1650.050781 578.59375 1668.261719 C 589.421875 1720.878906 600.566406 1775.058594 600.566406 1775.058594 C 600.566406 1775.058594 583.132812 1722.558594 566.199219 1671.578125 C 560.339844 1653.941406 544.917969 1641.199219 526.488281 1638.769531 C 508.0625 1636.351562 489.867188 1644.660156 479.640625 1660.179688 C 471.152344 1673.070312 465.136719 1682.199219 465.136719 1682.199219 C 465.136719 1682.199219 470.035156 1672.429688 476.953125 1658.628906 C 485.285156 1642.019531 483.390625 1622.101562 472.074219 1607.359375 C 460.757812 1592.609375 442.011719 1585.621094 423.804688 1589.371094 C 371.183594 1600.199219 317.007812 1611.339844 317.007812 1611.339844 C 317.007812 1611.339844 369.5 1593.910156 420.484375 1576.96875 C 438.125 1571.109375 450.867188 1555.691406 453.292969 1537.261719 C 455.71875 1518.828125 447.402344 1500.640625 431.878906 1490.421875 C 418.992188 1481.921875 409.859375 1475.910156 409.859375 1475.910156 C 409.859375 1475.910156 419.632812 1480.808594 433.433594 1487.730469 C 450.046875 1496.058594 469.964844 1494.160156 484.710938 1482.851562 C 499.457031 1471.53125 506.441406 1452.789062 502.695312 1434.578125 C 491.867188 1381.960938 480.722656 1327.78125 480.722656 1327.78125 C 480.722656 1327.78125 498.15625 1380.269531 515.089844 1431.261719 "/>
<path fill-rule="evenodd" fill="rgb(99.21875%, 89.451599%, 77.929688%)" fill-opacity="1" d="M 508.828125 1639.699219 C 515.171875 1637.820312 521.945312 1637.25 528.757812 1638.160156 C 547.039062 1640.628906 562.363281 1653.398438 568.214844 1671.039062 L 597.078125 1758.089844 L 600.566406 1775.058594 C 600.566406 1775.058594 583.132812 1722.558594 566.199219 1671.578125 C 560.339844 1653.941406 544.917969 1641.199219 526.488281 1638.769531 C 520.488281 1637.980469 514.515625 1638.328125 508.828125 1639.699219 Z M 426.191406 1484.101562 L 434.597656 1489.691406 C 450.015625 1499.941406 458.300781 1518.140625 455.9375 1536.558594 C 453.570312 1554.96875 440.96875 1570.351562 423.484375 1576.171875 C 372.953125 1592.980469 320.929688 1610.289062 320.929688 1610.289062 C 320.929688 1610.289062 374.636719 1599.269531 426.804688 1588.558594 C 444.855469 1584.859375 463.460938 1591.878906 474.71875 1606.648438 C 485.972656 1621.410156 487.894531 1641.320312 479.671875 1657.910156 L 475.183594 1666.949219 L 465.136719 1682.199219 C 465.136719 1682.199219 470.035156 1672.429688 476.953125 1658.628906 C 485.285156 1642.019531 483.390625 1622.101562 472.074219 1607.359375 C 460.757812 1592.609375 442.011719 1585.621094 423.804688 1589.371094 C 371.183594 1600.199219 317.007812 1611.339844 317.007812 1611.339844 C 317.007812 1611.339844 369.5 1593.910156 420.484375 1576.96875 C 438.125 1571.109375 450.867188 1555.691406 453.292969 1537.261719 C 455.71875 1518.828125 447.402344 1500.640625 431.878906 1490.421875 C 418.992188 1481.921875 409.859375 1475.910156 409.859375 1475.910156 Z M 614.296875 1611.429688 C 625.683594 1608.179688 638.101562 1609.21875 649.082031 1614.78125 L 666.039062 1623.378906 L 671.429688 1626.929688 C 671.429688 1626.929688 661.65625 1622.03125 647.859375 1615.109375 C 637.28125 1609.808594 625.363281 1608.648438 614.296875 1611.429688 Z M 764.28125 1491.5 Z M 486.179688 1344.21875 L 504.710938 1434.039062 C 508.464844 1452.238281 501.578125 1470.960938 486.976562 1482.238281 C 481.539062 1486.441406 475.386719 1489.328125 468.953125 1490.878906 C 474.558594 1489.21875 479.90625 1486.53125 484.710938 1482.851562 C 499.457031 1471.53125 506.441406 1452.789062 502.695312 1434.578125 C 491.867188 1381.960938 480.722656 1327.78125 480.722656 1327.78125 Z M 613.261719 1426.398438 L 602.871094 1442.328125 C 596.144531 1452.640625 585.910156 1459.75 574.425781 1462.628906 C 585.402344 1459.5 595.140625 1452.539062 601.648438 1442.660156 C 610.140625 1429.761719 616.152344 1420.628906 616.152344 1420.628906 L 613.261719 1426.398438 "/>
<path fill-rule="evenodd" fill="rgb(99.21875%, 89.451599%, 77.929688%)" fill-opacity="1" d="M 640.492188 1309.328125 C 640.492188 1309.328125 645.863281 1317.710938 651.550781 1326.601562 C 659.074219 1338.359375 672.820312 1343.269531 683.441406 1338.011719 C 691.472656 1334.03125 699.054688 1330.269531 699.054688 1330.269531 C 699.054688 1330.269531 692.007812 1334.960938 684.546875 1339.921875 C 674.679688 1346.488281 672.0625 1360.851562 678.480469 1373.238281 C 683.332031 1382.609375 687.914062 1391.460938 687.914062 1391.460938 C 687.914062 1391.460938 682.546875 1383.070312 676.855469 1374.179688 C 669.335938 1362.429688 655.585938 1357.511719 644.964844 1362.769531 C 636.933594 1366.761719 629.355469 1370.511719 629.355469 1370.511719 C 629.355469 1370.511719 636.398438 1365.828125 643.863281 1360.859375 C 653.730469 1354.300781 656.34375 1339.929688 649.929688 1327.539062 C 645.074219 1318.171875 640.492188 1309.328125 640.492188 1309.328125 "/>
<path fill-rule="evenodd" fill="rgb(99.21875%, 89.451599%, 77.929688%)" fill-opacity="1" d="M 389.320312 1698.351562 C 389.320312 1698.351562 392.335938 1707.839844 395.527344 1717.898438 C 399.753906 1731.199219 411.761719 1739.511719 423.378906 1737.171875 C 432.167969 1735.410156 440.460938 1733.738281 440.460938 1733.738281 C 440.460938 1733.738281 432.445312 1736.441406 423.953125 1739.308594 C 412.722656 1743.089844 406.476562 1756.289062 409.46875 1769.921875 C 411.730469 1780.230469 413.867188 1789.960938 413.867188 1789.960938 C 413.867188 1789.960938 410.851562 1780.46875 407.65625 1770.410156 C 403.433594 1757.109375 391.425781 1748.800781 379.804688 1751.140625 C 371.019531 1752.898438 362.722656 1754.570312 362.722656 1754.570312 C 362.722656 1754.570312 370.742188 1751.871094 379.234375 1749 C 390.464844 1745.21875 396.710938 1732.019531 393.71875 1718.390625 C 391.457031 1708.078125 389.320312 1698.351562 389.320312 1698.351562 "/>
<path fill-rule="evenodd" fill="rgb(99.21875%, 89.451599%, 77.929688%)" fill-opacity="1" d="M 385.121094 1298.878906 C 385.121094 1298.878906 387.253906 1305.589844 389.511719 1312.699219 C 392.496094 1322.101562 400.984375 1327.96875 409.199219 1326.320312 C 415.410156 1325.070312 421.273438 1323.890625 421.273438 1323.890625 C 421.273438 1323.890625 415.605469 1325.808594 409.601562 1327.828125 C 401.664062 1330.511719 397.25 1339.839844 399.363281 1349.46875 C 400.964844 1356.761719 402.472656 1363.628906 402.472656 1363.628906 C 402.472656 1363.628906 400.34375 1356.921875 398.085938 1349.808594 C 395.097656 1340.410156 386.609375 1334.539062 378.398438 1336.191406 C 372.183594 1337.441406 366.320312 1338.621094 366.320312 1338.621094 C 366.320312 1338.621094 371.988281 1336.710938 377.992188 1334.679688 C 385.929688 1332.011719 390.34375 1322.679688 388.230469 1313.039062 C 386.632812 1305.761719 385.121094 1298.878906 385.121094 1298.878906 "/>
<path fill-rule="evenodd" fill="rgb(99.21875%, 89.451599%, 77.929688%)" fill-opacity="1" d="M 320.3125 1433.820312 C 320.3125 1433.820312 323.328125 1443.320312 326.523438 1453.371094 C 330.746094 1466.671875 342.753906 1474.980469 354.371094 1472.648438 C 363.160156 1470.878906 371.453125 1469.210938 371.453125 1469.210938 C 371.453125 1469.210938 363.4375 1471.921875 354.945312 1474.78125 C 343.714844 1478.570312 337.46875 1491.769531 340.460938 1505.398438 C 342.722656 1515.699219 344.859375 1525.429688 344.859375 1525.429688 C 344.859375 1525.429688 341.84375 1515.941406 338.648438 1505.878906 C 334.425781 1492.578125 322.417969 1484.269531 310.800781 1486.609375 C 302.011719 1488.371094 293.71875 1490.039062 293.71875 1490.039062 C 293.71875 1490.039062 301.734375 1487.339844 310.226562 1484.46875 C 321.460938 1480.691406 327.703125 1467.488281 324.710938 1453.859375 C 322.449219 1443.550781 320.3125 1433.820312 320.3125 1433.820312 "/>
<path fill-rule="evenodd" fill="rgb(98.242188%, 84.179688%, 0%)" fill-opacity="1" d="M 589.867188 2439.738281 C 593.957031 2424.21875 594.335938 2407.5 590.257812 2390.859375 C 571.113281 2312.769531 546.792969 2213.53125 546.792969 2213.53125 C 546.792969 2213.53125 575.347656 2311.628906 597.816406 2388.828125 C 602.960938 2406.511719 612.605469 2421.691406 625.164062 2433.46875 C 633.628906 2423.601562 640.167969 2411.820312 644.03125 2398.550781 C 640.445312 2413.179688 640.492188 2427.890625 643.617188 2441.679688 C 660.121094 2437.691406 675.808594 2429.421875 688.910156 2416.871094 C 713.140625 2393.648438 734.46875 2373.21875 734.46875 2373.21875 C 734.46875 2373.21875 714.035156 2394.550781 690.824219 2418.78125 C 680.035156 2430.039062 672.410156 2443.199219 667.945312 2457.160156 C 683.46875 2461.25 700.191406 2461.621094 716.828125 2457.550781 C 794.921875 2438.410156 894.160156 2414.078125 894.160156 2414.078125 C 894.160156 2414.078125 796.054688 2442.640625 718.855469 2465.109375 C 701.179688 2470.25 685.996094 2479.898438 674.214844 2492.460938 C 684.085938 2500.921875 695.871094 2507.460938 709.140625 2511.320312 C 694.507812 2507.730469 679.804688 2507.789062 666.007812 2510.910156 C 669.996094 2527.410156 678.269531 2543.101562 690.824219 2556.199219 C 714.035156 2580.429688 734.46875 2601.761719 734.46875 2601.761719 C 734.46875 2601.761719 713.140625 2581.328125 688.910156 2558.109375 C 677.652344 2547.328125 664.484375 2539.699219 650.53125 2535.238281 C 646.441406 2550.761719 646.0625 2567.480469 650.140625 2584.121094 C 669.28125 2662.210938 693.605469 2761.449219 693.605469 2761.449219 C 693.605469 2761.449219 665.050781 2663.351562 642.582031 2586.140625 C 637.4375 2568.46875 627.792969 2553.289062 615.230469 2541.511719 C 606.769531 2551.378906 600.230469 2563.160156 596.367188 2576.429688 C 599.953125 2561.800781 599.902344 2547.089844 596.777344 2533.300781 C 580.273438 2537.289062 564.589844 2545.558594 551.488281 2558.109375 C 527.257812 2581.328125 505.929688 2601.761719 505.929688 2601.761719 C 505.929688 2601.761719 526.363281 2580.429688 549.574219 2556.199219 C 560.363281 2544.941406 567.988281 2531.78125 572.449219 2517.820312 C 556.929688 2513.730469 540.207031 2513.359375 523.570312 2517.429688 C 445.476562 2536.570312 346.238281 2560.898438 346.238281 2560.898438 C 346.238281 2560.898438 444.34375 2532.339844 521.542969 2509.871094 C 539.21875 2504.730469 554.402344 2495.078125 566.183594 2482.519531 C 556.3125 2474.058594 544.523438 2467.519531 531.257812 2463.660156 C 545.890625 2467.238281 560.59375 2467.191406 574.390625 2464.070312 C 570.398438 2447.570312 562.128906 2431.878906 549.574219 2418.78125 C 526.363281 2394.550781 505.929688 2373.21875 505.929688 2373.21875 C 505.929688 2373.21875 527.257812 2393.648438 551.488281 2416.871094 C 562.746094 2427.648438 575.910156 2435.28125 589.867188 2439.738281 "/>
<path fill-rule="evenodd" fill="rgb(98.242188%, 84.179688%, 0%)" fill-opacity="1" d="M 794.710938 2286.441406 L 805.304688 2307.121094 L 828.515625 2305.949219 L 807.828125 2316.550781 L 808.996094 2339.761719 L 798.402344 2319.070312 L 775.191406 2320.238281 L 795.878906 2309.648438 L 794.710938 2286.441406 "/>
<path fill-rule="evenodd" fill="rgb(98.242188%, 84.179688%, 0%)" fill-opacity="1" d="M 315.191406 2564.671875 L 325.785156 2585.359375 L 348.996094 2584.191406 L 328.308594 2594.78125 L 329.476562 2618 L 318.882812 2597.308594 L 295.671875 2598.480469 L 316.359375 2587.878906 L 315.191406 2564.671875 "/>
<path fill-rule="evenodd" fill="rgb(98.242188%, 84.179688%, 0%)" fill-opacity="1" d="M 1536.570312 2299.820312 L 1610.609375 2449.570312 L 1754.300781 2526.738281 L 1610.609375 2603.910156 L 1536.570312 2753.660156 L 1462.53125 2603.910156 L 1318.839844 2526.738281 L 1462.53125 2449.570312 L 1536.570312 2299.820312 "/>
<path fill-rule="evenodd" fill="rgb(99.21875%, 89.451599%, 77.929688%)" fill-opacity="1" d="M 1541.660156 2310.121094 L 1475.871094 2449.570312 L 1338.75 2526.738281 L 1475.871094 2603.910156 L 1541.660156 2743.359375 L 1536.570312 2753.660156 L 1462.53125 2603.910156 L 1318.839844 2526.738281 L 1462.53125 2449.570312 L 1536.570312 2299.820312 L 1541.660156 2310.121094 "/>
<path fill-rule="evenodd" fill="rgb(98.242188%, 84.179688%, 0%)" fill-opacity="1" d="M 1728.339844 2221.320312 L 1754.140625 2273.121094 L 1804.210938 2299.820312 L 1754.140625 2326.511719 L 1728.339844 2378.320312 L 1702.539062 2326.511719 L 1652.46875 2299.820312 L 1702.539062 2273.121094 L 1728.339844 2221.320312 "/>
<path fill-rule="evenodd" fill="rgb(99.21875%, 89.451599%, 77.929688%)" fill-opacity="1" d="M 1730.109375 2224.878906 L 1707.191406 2273.121094 L 1659.398438 2299.820312 L 1707.191406 2326.511719 L 1730.109375 2374.75 L 1728.339844 2378.320312 L 1702.539062 2326.511719 L 1652.46875 2299.820312 L 1702.539062 2273.121094 L 1728.339844 2221.320312 L 1730.109375 2224.878906 "/>
<path fill-rule="evenodd" fill="rgb(98.242188%, 84.179688%, 0%)" fill-opacity="1" d="M 2495.070312 2221.320312 L 2518.921875 2463.640625 L 2761.238281 2487.488281 L 2518.921875 2511.339844 L 2495.070312 2753.660156 L 2471.21875 2511.339844 L 2228.898438 2487.488281 L 2471.21875 2463.640625 L 2495.070312 2221.320312 "/>
<path fill-rule="evenodd" fill="rgb(99.21875%, 89.451599%, 77.929688%)" fill-opacity="1" d="M 2498.558594 2256.800781 L 2478.730469 2463.640625 L 2242.691406 2487.488281 L 2478.730469 2511.339844 L 2498.558594 2718.179688 L 2495.070312 2753.660156 L 2471.21875 2511.339844 L 2228.898438 2487.488281 L 2471.21875 2463.640625 L 2495.070312 2221.320312 L 2498.558594 2256.800781 "/>
<path fill-rule="evenodd" fill="rgb(98.242188%, 84.179688%, 0%)" fill-opacity="1" d="M 2306.160156 2626.710938 C 2306.160156 2626.710938 2308.058594 2645.960938 2309.660156 2662.238281 C 2310.929688 2675.179688 2321.171875 2685.421875 2334.109375 2686.691406 C 2350.390625 2688.289062 2369.640625 2690.191406 2369.640625 2690.191406 C 2369.640625 2690.191406 2350.390625 2692.078125 2334.109375 2693.691406 C 2321.171875 2694.960938 2310.929688 2705.199219 2309.660156 2718.140625 C 2308.058594 2734.421875 2306.160156 2753.660156 2306.160156 2753.660156 C 2306.160156 2753.660156 2304.269531 2734.421875 2302.660156 2718.140625 C 2301.390625 2705.199219 2291.148438 2694.960938 2278.210938 2693.691406 C 2261.929688 2692.078125 2242.691406 2690.191406 2242.691406 2690.191406 C 2242.691406 2690.191406 2261.929688 2688.289062 2278.210938 2686.691406 C 2291.148438 2685.421875 2301.390625 2675.179688 2302.660156 2662.238281 C 2304.269531 2645.960938 2306.160156 2626.710938 2306.160156 2626.710938 "/>
<path fill-rule="evenodd" fill="rgb(98.242188%, 84.179688%, 0%)" fill-opacity="1" d="M 2672.390625 2260.480469 C 2672.390625 2260.480469 2674.289062 2279.71875 2675.890625 2296 C 2677.171875 2308.941406 2687.410156 2319.179688 2700.351562 2320.460938 C 2716.621094 2322.058594 2735.871094 2323.949219 2735.871094 2323.949219 C 2735.871094 2323.949219 2716.621094 2325.851562 2700.351562 2327.449219 C 2687.410156 2328.71875 2677.171875 2338.960938 2675.890625 2351.910156 C 2674.289062 2368.179688 2672.390625 2387.429688 2672.390625 2387.429688 C 2672.390625 2387.429688 2670.5 2368.179688 2668.898438 2351.910156 C 2667.621094 2338.960938 2657.390625 2328.71875 2644.441406 2327.449219 C 2628.171875 2325.851562 2608.921875 2323.949219 2608.921875 2323.949219 C 2608.921875 2323.949219 2628.171875 2322.058594 2644.441406 2320.460938 C 2657.390625 2319.179688 2667.621094 2308.941406 2668.898438 2296 C 2670.5 2279.71875 2672.390625 2260.480469 2672.390625 2260.480469 "/>
<path fill-rule="evenodd" fill="rgb(98.242188%, 84.179688%, 0%)" fill-opacity="1" d="M 3406.910156 2418.011719 C 3423.539062 2394.320312 3433.859375 2365.871094 3435.449219 2335.070312 C 3438.160156 2282.640625 3440.578125 2235.871094 3440.578125 2235.871094 C 3440.578125 2235.871094 3443 2282.640625 3445.710938 2335.070312 C 3447.300781 2365.871094 3457.621094 2394.320312 3474.25 2418.011719 C 3500.519531 2412.320312 3525.640625 2399.910156 3546.871094 2380.761719 C 3567.128906 2362.488281 3582.148438 2348.949219 3582.148438 2348.949219 C 3582.148438 2348.949219 3568.601562 2363.96875 3550.339844 2384.230469 C 3531.191406 2405.460938 3518.78125 2430.578125 3513.089844 2456.851562 C 3536.78125 2473.46875 3565.230469 2483.800781 3596.03125 2485.390625 C 3648.460938 2488.101562 3695.230469 2490.519531 3695.230469 2490.519531 C 3695.230469 2490.519531 3648.460938 2492.941406 3596.03125 2495.648438 C 3565.230469 2497.238281 3536.78125 2507.558594 3513.089844 2524.191406 C 3518.78125 2550.460938 3531.191406 2575.570312 3550.339844 2596.808594 C 3568.601562 2617.070312 3582.148438 2632.089844 3582.148438 2632.089844 C 3582.148438 2632.089844 3567.128906 2618.539062 3546.871094 2600.28125 C 3525.640625 2581.128906 3500.519531 2568.71875 3474.25 2563.03125 C 3457.621094 2586.71875 3447.300781 2615.171875 3445.710938 2645.96875 C 3443 2698.398438 3440.578125 2745.171875 3440.578125 2745.171875 C 3440.578125 2745.171875 3438.160156 2698.398438 3435.449219 2645.96875 C 3433.859375 2615.171875 3423.539062 2586.71875 3406.910156 2563.03125 C 3380.640625 2568.71875 3355.53125 2581.128906 3334.289062 2600.28125 C 3314.03125 2618.539062 3299.011719 2632.089844 3299.011719 2632.089844 C 3299.011719 2632.089844 3312.558594 2617.070312 3330.820312 2596.808594 C 3349.96875 2575.570312 3362.378906 2550.460938 3368.070312 2524.191406 C 3344.378906 2507.558594 3315.929688 2497.238281 3285.128906 2495.648438 C 3232.699219 2492.941406 3185.929688 2490.519531 3185.929688 2490.519531 C 3185.929688 2490.519531 3232.699219 2488.101562 3285.128906 2485.390625 C 3315.929688 2483.800781 3344.378906 2473.46875 3368.070312 2456.851562 C 3362.378906 2430.578125 3349.96875 2405.460938 3330.820312 2384.230469 C 3312.558594 2363.96875 3299.011719 2348.949219 3299.011719 2348.949219 C 3299.011719 2348.949219 3314.03125 2362.488281 3334.289062 2380.761719 C 3355.53125 2399.910156 3380.640625 2412.320312 3406.910156 2418.011719 "/>
<path fill-rule="evenodd" fill="rgb(99.21875%, 89.451599%, 77.929688%)" fill-opacity="1" d="M 3440.578125 2287.878906 L 3438.128906 2335.210938 C 3436.511719 2366.53125 3426.019531 2395.460938 3409.109375 2419.550781 C 3408.480469 2420.429688 3407.390625 2420.859375 3406.339844 2420.628906 C 3380.75 2415.089844 3356.21875 2403.269531 3335.21875 2385.160156 C 3353.328125 2406.160156 3365.148438 2430.679688 3370.691406 2456.28125 C 3370.921875 2457.328125 3370.488281 2458.421875 3369.609375 2459.039062 C 3345.519531 2475.960938 3316.589844 2486.449219 3285.269531 2488.070312 L 3237.941406 2490.519531 L 3285.269531 2492.96875 C 3316.589844 2494.589844 3345.519531 2505.078125 3369.609375 2521.988281 C 3370.488281 2522.609375 3370.921875 2523.710938 3370.691406 2524.761719 C 3365.148438 2550.351562 3353.328125 2574.878906 3335.21875 2595.878906 C 3356.21875 2577.769531 3380.75 2565.949219 3406.339844 2560.410156 C 3407.390625 2560.179688 3408.480469 2560.609375 3409.109375 2561.488281 C 3426.019531 2585.578125 3436.511719 2614.511719 3438.128906 2645.828125 L 3440.578125 2693.160156 L 3440.578125 2745.171875 C 3440.578125 2745.171875 3438.160156 2698.398438 3435.449219 2645.96875 C 3433.859375 2615.171875 3423.539062 2586.71875 3406.910156 2563.03125 C 3380.640625 2568.71875 3355.53125 2581.128906 3334.289062 2600.28125 C 3314.03125 2618.539062 3299.011719 2632.089844 3299.011719 2632.089844 C 3299.011719 2632.089844 3312.558594 2617.070312 3330.820312 2596.808594 C 3349.96875 2575.570312 3362.378906 2550.460938 3368.070312 2524.191406 C 3344.378906 2507.558594 3315.929688 2497.238281 3285.128906 2495.648438 C 3232.699219 2492.941406 3185.929688 2490.519531 3185.929688 2490.519531 C 3185.929688 2490.519531 3232.699219 2488.101562 3285.128906 2485.390625 C 3315.929688 2483.800781 3344.378906 2473.46875 3368.070312 2456.851562 C 3362.378906 2430.578125 3349.96875 2405.460938 3330.820312 2384.230469 C 3312.558594 2363.96875 3299.011719 2348.949219 3299.011719 2348.949219 C 3299.011719 2348.949219 3314.03125 2362.488281 3334.289062 2380.761719 C 3355.53125 2399.910156 3380.640625 2412.320312 3406.910156 2418.011719 C 3423.539062 2394.320312 3433.859375 2365.871094 3435.449219 2335.070312 C 3438.160156 2282.640625 3440.578125 2235.871094 3440.578125 2235.871094 L 3440.578125 2287.878906 "/>
<path fill-rule="evenodd" fill="rgb(98.242188%, 84.179688%, 0%)" fill-opacity="1" d="M 3649.320312 2229.808594 L 3658.28125 2277.351562 L 3700 2287.558594 L 3658.28125 2297.761719 L 3649.320312 2345.300781 L 3640.359375 2297.761719 L 3598.640625 2287.558594 L 3640.359375 2277.351562 L 3649.320312 2229.808594 "/>
<path fill-rule="evenodd" fill="rgb(98.242188%, 84.179688%, 0%)" fill-opacity="1" d="M 1536.511719 3380.289062 C 1546.46875 3367.1875 1552.699219 3351.082031 1553.628906 3333.550781 C 1557.730469 3255.996094 1563.488281 3147 1563.488281 3147 C 1563.488281 3147 1569.25 3255.996094 1573.351562 3333.550781 C 1574.28125 3351.082031 1580.511719 3367.1875 1590.46875 3380.289062 C 1601.148438 3376.707031 1611.269531 3370.933594 1620.121094 3362.96875 C 1640.691406 3344.460938 1658.980469 3328.007812 1658.980469 3328.007812 C 1658.980469 3328.007812 1642.53125 3346.296875 1624.019531 3366.871094 C 1616.058594 3375.726562 1610.28125 3385.839844 1606.699219 3396.519531 C 1619.800781 3406.480469 1635.910156 3412.710938 1653.441406 3413.636719 C 1730.988281 3417.738281 1839.988281 3423.5 1839.988281 3423.5 C 1839.988281 3423.5 1730.988281 3429.261719 1653.441406 3433.363281 C 1635.910156 3434.289062 1619.800781 3440.519531 1606.699219 3450.480469 C 1610.28125 3461.160156 1616.058594 3471.277344 1624.019531 3480.132812 C 1642.53125 3500.703125 1658.980469 3518.992188 1658.980469 3518.992188 C 1658.980469 3518.992188 1640.691406 3502.539062 1620.121094 3484.035156 C 1611.269531 3476.066406 1601.148438 3470.292969 1590.46875 3466.710938 C 1580.511719 3479.8125 1574.28125 3495.917969 1573.351562 3513.449219 C 1569.25 3591.003906 1563.488281 3700 1563.488281 3700 C 1563.488281 3700 1557.730469 3591.003906 1553.628906 3513.449219 C 1552.699219 3495.917969 1546.46875 3479.8125 1536.511719 3466.710938 C 1525.828125 3470.292969 1515.710938 3476.066406 1506.859375 3484.035156 C 1486.289062 3502.539062 1467.988281 3518.992188 1467.988281 3518.992188 C 1467.988281 3518.992188 1484.449219 3500.703125 1502.960938 3480.132812 C 1510.921875 3471.277344 1516.699219 3461.160156 1520.28125 3450.480469 C 1507.179688 3440.519531 1491.070312 3434.289062 1473.539062 3433.363281 C 1395.988281 3429.261719 1286.988281 3423.5 1286.988281 3423.5 C 1286.988281 3423.5 1395.988281 3417.738281 1473.539062 3413.636719 C 1491.070312 3412.710938 1507.179688 3406.480469 1520.28125 3396.519531 C 1516.699219 3385.839844 1510.921875 3375.726562 1502.960938 3366.871094 C 1484.449219 3346.296875 1467.988281 3328.007812 1467.988281 3328.007812 C 1467.988281 3328.007812 1486.289062 3344.460938 1506.859375 3362.96875 C 1515.710938 3370.933594 1525.828125 3376.707031 1536.511719 3380.289062 "/>
<path fill-rule="evenodd" fill="rgb(99.21875%, 89.451599%, 77.929688%)" fill-opacity="1" d="M 1563.488281 3197.140625 L 1556.269531 3333.691406 C 1555.308594 3351.769531 1548.890625 3368.378906 1538.621094 3381.890625 C 1537.929688 3382.796875 1536.738281 3383.160156 1535.671875 3382.800781 C 1524.648438 3379.105469 1514.21875 3373.148438 1505.089844 3364.933594 L 1503.449219 3363.460938 L 1504.921875 3365.101562 C 1513.140625 3374.230469 1519.089844 3384.664062 1522.789062 3395.675781 C 1523.148438 3396.753906 1522.78125 3397.9375 1521.878906 3398.625 C 1508.371094 3408.898438 1491.761719 3415.324219 1473.679688 3416.28125 C 1429.738281 3418.605469 1375.710938 3421.460938 1337.128906 3423.5 L 1473.679688 3430.71875 C 1491.761719 3431.675781 1508.371094 3438.101562 1521.878906 3448.375 C 1522.78125 3449.0625 1523.148438 3450.246094 1522.789062 3451.324219 C 1519.089844 3462.339844 1513.140625 3472.769531 1504.921875 3481.902344 L 1503.449219 3483.539062 L 1505.089844 3482.066406 C 1514.21875 3473.851562 1524.648438 3467.894531 1535.671875 3464.199219 C 1536.738281 3463.839844 1537.929688 3464.203125 1538.621094 3465.109375 C 1548.890625 3478.621094 1555.308594 3495.230469 1556.269531 3513.3125 C 1558.589844 3557.246094 1561.449219 3611.277344 1563.488281 3649.859375 L 1563.488281 3700 C 1563.488281 3700 1557.730469 3591.003906 1553.628906 3513.449219 C 1552.699219 3495.917969 1546.46875 3479.8125 1536.511719 3466.710938 C 1525.828125 3470.292969 1515.710938 3476.066406 1506.859375 3484.035156 C 1486.289062 3502.539062 1467.988281 3518.992188 1467.988281 3518.992188 C 1467.988281 3518.992188 1484.449219 3500.703125 1502.960938 3480.132812 C 1510.921875 3471.277344 1516.699219 3461.160156 1520.28125 3450.480469 C 1507.179688 3440.519531 1491.070312 3434.289062 1473.539062 3433.363281 C 1395.988281 3429.261719 1286.988281 3423.5 1286.988281 3423.5 C 1286.988281 3423.5 1395.988281 3417.738281 1473.539062 3413.636719 C 1491.070312 3412.710938 1507.179688 3406.480469 1520.28125 3396.519531 C 1516.699219 3385.839844 1510.921875 3375.726562 1502.960938 3366.871094 C 1484.449219 3346.296875 1467.988281 3328.007812 1467.988281 3328.007812 C 1467.988281 3328.007812 1486.289062 3344.460938 1506.859375 3362.96875 C 1515.710938 3370.933594 1525.828125 3376.707031 1536.511719 3380.289062 C 1546.46875 3367.1875 1552.699219 3351.082031 1553.628906 3333.550781 C 1557.730469 3255.996094 1563.488281 3147 1563.488281 3147 L 1563.488281 3197.140625 "/>
<path fill-rule="evenodd" fill="rgb(98.242188%, 84.179688%, 0%)" fill-opacity="1" d="M 1723.03125 3222.292969 L 1728.789062 3249.105469 L 1755.601562 3254.863281 L 1728.789062 3260.617188 L 1723.03125 3287.429688 L 1717.269531 3260.617188 L 1690.460938 3254.863281 L 1717.269531 3249.105469 L 1723.03125 3222.292969 "/>
<path fill-rule="evenodd" fill="rgb(98.242188%, 84.179688%, 0%)" fill-opacity="1" d="M 2507.769531 3228.378906 C 2507.769531 3228.378906 2523.101562 3299.765625 2534.128906 3351.117188 C 2540.839844 3382.386719 2565.269531 3406.816406 2596.539062 3413.53125 C 2647.898438 3424.558594 2719.28125 3439.886719 2719.28125 3439.886719 C 2719.28125 3439.886719 2647.898438 3455.214844 2596.539062 3466.242188 C 2565.269531 3472.957031 2540.839844 3497.382812 2534.128906 3528.652344 C 2523.101562 3580.007812 2507.769531 3651.394531 2507.769531 3651.394531 C 2507.769531 3651.394531 2492.449219 3580.007812 2481.421875 3528.652344 C 2474.699219 3497.382812 2450.28125 3472.957031 2419.011719 3466.242188 C 2367.648438 3455.214844 2296.269531 3439.886719 2296.269531 3439.886719 C 2296.269531 3439.886719 2367.648438 3424.558594 2419.011719 3413.53125 C 2450.28125 3406.816406 2474.699219 3382.386719 2481.421875 3351.117188 C 2492.449219 3299.765625 2507.769531 3228.378906 2507.769531 3228.378906 "/>
<path fill-rule="evenodd" fill="rgb(99.21875%, 89.451599%, 77.929688%)" fill-opacity="1" d="M 2511.480469 3245.632812 L 2488.28125 3353.679688 C 2481.761719 3384.046875 2458.03125 3407.769531 2427.671875 3414.289062 C 2377.789062 3425 2308.46875 3439.886719 2308.46875 3439.886719 C 2308.46875 3439.886719 2377.789062 3454.773438 2427.671875 3465.484375 C 2458.03125 3472.003906 2481.761719 3495.726562 2488.28125 3526.09375 L 2511.480469 3634.140625 L 2507.769531 3651.394531 C 2507.769531 3651.394531 2492.449219 3580.007812 2481.421875 3528.652344 C 2474.699219 3497.382812 2450.28125 3472.957031 2419.011719 3466.242188 C 2367.648438 3455.214844 2296.269531 3439.886719 2296.269531 3439.886719 C 2296.269531 3439.886719 2367.648438 3424.558594 2419.011719 3413.53125 C 2450.28125 3406.816406 2474.699219 3382.386719 2481.421875 3351.117188 C 2492.449219 3299.765625 2507.769531 3228.378906 2507.769531 3228.378906 L 2511.480469 3245.632812 "/>
<path fill-rule="evenodd" fill="rgb(98.242188%, 84.179688%, 0%)" fill-opacity="1" d="M 2679.640625 3195.609375 C 2679.640625 3195.609375 2684.660156 3219.019531 2688.28125 3235.863281 C 2690.480469 3246.117188 2698.488281 3254.128906 2708.75 3256.332031 C 2725.589844 3259.949219 2749 3264.976562 2749 3264.976562 C 2749 3264.976562 2725.589844 3270.003906 2708.75 3273.621094 C 2698.488281 3275.820312 2690.480469 3283.832031 2688.28125 3294.089844 C 2684.660156 3310.933594 2679.640625 3334.34375 2679.640625 3334.34375 C 2679.640625 3334.34375 2674.609375 3310.933594 2670.988281 3294.089844 C 2668.789062 3283.832031 2660.78125 3275.820312 2650.519531 3273.621094 C 2633.679688 3270.003906 2610.269531 3264.976562 2610.269531 3264.976562 C 2610.269531 3264.976562 2633.679688 3259.949219 2650.519531 3256.332031 C 2660.78125 3254.128906 2668.789062 3246.117188 2670.988281 3235.863281 C 2674.609375 3219.019531 2679.640625 3195.609375 2679.640625 3195.609375 "/>
<path fill-rule="evenodd" fill="rgb(98.242188%, 84.179688%, 0%)" fill-opacity="1" d="M 2321.429688 3601.066406 C 2321.429688 3601.066406 2323.261719 3609.558594 2324.570312 3615.667969 C 2325.371094 3619.386719 2328.269531 3622.292969 2331.988281 3623.09375 C 2338.101562 3624.40625 2346.601562 3626.230469 2346.601562 3626.230469 C 2346.601562 3626.230469 2338.101562 3628.054688 2331.988281 3629.363281 C 2328.269531 3630.164062 2325.371094 3633.070312 2324.570312 3636.789062 C 2323.261719 3642.898438 2321.429688 3651.394531 2321.429688 3651.394531 C 2321.429688 3651.394531 2319.609375 3642.898438 2318.300781 3636.789062 C 2317.5 3633.070312 2314.589844 3630.164062 2310.871094 3629.363281 C 2304.761719 3628.054688 2296.269531 3626.230469 2296.269531 3626.230469 C 2296.269531 3626.230469 2304.761719 3624.40625 2310.871094 3623.09375 C 2314.589844 3622.292969 2317.5 3619.386719 2318.300781 3615.667969 C 2319.609375 3609.558594 2321.429688 3601.066406 2321.429688 3601.066406 "/>
<path fill-rule="evenodd" fill="rgb(98.242188%, 84.179688%, 0%)" fill-opacity="1" d="M 3455.058594 3290.511719 C 3455.691406 3305.734375 3465.730469 3318.960938 3480.21875 3323.664062 C 3494.710938 3328.371094 3510.601562 3323.5625 3520.050781 3311.613281 C 3538.789062 3287.917969 3554.578125 3267.949219 3554.578125 3267.949219 C 3554.578125 3267.949219 3540.46875 3289.140625 3523.730469 3314.285156 C 3515.289062 3326.96875 3515.621094 3343.5625 3524.578125 3355.890625 C 3533.53125 3368.222656 3549.210938 3373.675781 3563.878906 3369.570312 C 3625.199219 3352.410156 3693.71875 3333.234375 3693.71875 3333.234375 C 3693.71875 3333.234375 3627.011719 3357.996094 3567.320312 3380.15625 C 3553.03125 3385.457031 3543.558594 3399.085938 3543.558594 3414.324219 C 3543.558594 3429.558594 3553.050781 3443.183594 3567.328125 3448.480469 C 3595.660156 3458.980469 3619.53125 3467.832031 3619.53125 3467.832031 C 3619.53125 3467.832031 3595.011719 3460.960938 3565.929688 3452.808594 C 3551.261719 3448.695312 3535.578125 3454.144531 3526.621094 3466.46875 C 3517.660156 3478.792969 3517.320312 3495.390625 3525.75 3508.074219 C 3561.019531 3561.089844 3600.429688 3620.328125 3600.429688 3620.328125 C 3600.429688 3620.328125 3556.269531 3564.539062 3516.75 3514.617188 C 3507.289062 3502.671875 3491.398438 3497.867188 3476.910156 3502.578125 C 3462.429688 3507.292969 3452.398438 3520.519531 3451.769531 3535.742188 C 3450.539062 3565.925781 3449.5 3591.363281 3449.5 3591.363281 C 3449.5 3591.363281 3448.460938 3565.925781 3447.230469 3535.742188 C 3446.601562 3520.519531 3436.570312 3507.292969 3422.089844 3502.578125 C 3407.601562 3497.867188 3391.710938 3502.671875 3382.25 3514.617188 C 3342.730469 3564.539062 3298.558594 3620.328125 3298.558594 3620.328125 C 3298.558594 3620.328125 3337.980469 3561.089844 3373.25 3508.074219 C 3381.679688 3495.390625 3381.339844 3478.792969 3372.378906 3466.46875 C 3363.421875 3454.144531 3347.738281 3448.695312 3333.070312 3452.808594 C 3303.988281 3460.960938 3279.46875 3467.832031 3279.46875 3467.832031 C 3279.46875 3467.832031 3303.339844 3458.980469 3331.671875 3448.480469 C 3345.949219 3443.183594 3355.441406 3429.558594 3355.441406 3414.324219 C 3355.441406 3399.085938 3345.960938 3385.457031 3331.679688 3380.15625 C 3271.988281 3357.996094 3205.28125 3333.234375 3205.28125 3333.234375 C 3205.28125 3333.234375 3273.800781 3352.410156 3335.121094 3369.570312 C 3349.789062 3373.675781 3365.46875 3368.222656 3374.421875 3355.890625 C 3383.378906 3343.5625 3383.710938 3326.96875 3375.269531 3314.285156 C 3358.53125 3289.140625 3344.421875 3267.949219 3344.421875 3267.949219 C 3344.421875 3267.949219 3360.210938 3287.917969 3378.949219 3311.613281 C 3388.398438 3323.5625 3404.289062 3328.371094 3418.78125 3323.664062 C 3433.269531 3318.960938 3443.308594 3305.734375 3443.941406 3290.511719 C 3446.558594 3226.890625 3449.5 3155.800781 3449.5 3155.800781 C 3449.5 3155.800781 3452.441406 3226.890625 3455.058594 3290.511719 "/>
<path fill-rule="evenodd" fill="rgb(99.21875%, 89.451599%, 77.929688%)" fill-opacity="1" d="M 3472.078125 3504.542969 C 3474.121094 3503.398438 3476.289062 3502.445312 3478.570312 3501.703125 C 3492.949219 3497.027344 3508.71875 3501.792969 3518.109375 3513.648438 L 3589.261719 3603.53125 L 3600.429688 3620.328125 C 3600.429688 3620.328125 3556.269531 3564.539062 3516.75 3514.617188 C 3507.289062 3502.671875 3491.398438 3497.867188 3476.910156 3502.578125 C 3475.238281 3503.125 3473.628906 3503.78125 3472.078125 3504.542969 Z M 3337.871094 3451.804688 C 3351.820312 3448.746094 3366.359375 3454.207031 3374.839844 3465.867188 C 3383.730469 3478.097656 3384.070312 3494.566406 3375.699219 3507.15625 L 3310.109375 3605.746094 L 3298.558594 3620.328125 C 3298.558594 3620.328125 3337.980469 3561.089844 3373.25 3508.074219 C 3381.679688 3495.390625 3381.339844 3478.792969 3372.378906 3466.46875 C 3364.390625 3455.480469 3351.058594 3449.957031 3337.871094 3451.804688 Z M 3398.738281 3502.855469 C 3406.621094 3499.476562 3415.640625 3498.929688 3424.160156 3501.703125 C 3438.539062 3506.378906 3448.5 3519.507812 3449.109375 3534.613281 L 3450.46875 3567.722656 L 3449.5 3591.363281 C 3449.5 3591.363281 3448.460938 3565.925781 3447.230469 3535.742188 C 3446.601562 3520.519531 3436.570312 3507.292969 3422.089844 3502.578125 C 3414.300781 3500.050781 3406.121094 3500.265625 3398.738281 3502.855469 Z M 3542.089844 3454.253906 C 3549.710938 3450.765625 3558.46875 3449.945312 3566.910156 3452.3125 L 3611.011719 3464.675781 L 3619.53125 3467.832031 C 3619.53125 3467.832031 3595.011719 3460.960938 3565.929688 3452.808594 C 3557.859375 3450.546875 3549.480469 3451.175781 3542.089844 3454.253906 Z M 3215.878906 3336.199219 L 3334.449219 3380.214844 C 3348.628906 3385.476562 3358.03125 3399.003906 3358.03125 3414.121094 C 3358.03125 3429.242188 3348.609375 3442.761719 3334.441406 3448.019531 L 3285.71875 3466.078125 L 3279.46875 3467.832031 C 3279.46875 3467.832031 3303.339844 3458.980469 3331.671875 3448.480469 C 3345.949219 3443.183594 3355.441406 3429.558594 3355.441406 3414.324219 C 3355.441406 3399.085938 3345.960938 3385.457031 3331.679688 3380.15625 C 3271.988281 3357.996094 3205.28125 3333.234375 3205.28125 3333.234375 Z M 3357.460938 3284.4375 L 3377.710938 3314.851562 C 3386.089844 3327.433594 3385.75 3343.90625 3376.871094 3356.140625 C 3369.328125 3366.523438 3356.980469 3371.996094 3344.511719 3370.917969 C 3356.128906 3371.054688 3367.371094 3365.609375 3374.421875 3355.890625 C 3383.378906 3343.5625 3383.710938 3326.96875 3375.269531 3314.285156 C 3358.53125 3289.140625 3344.421875 3267.949219 3344.421875 3267.949219 Z M 3689.121094 3334.941406 L 3564.871094 3369.710938 C 3560.011719 3371.070312 3555.039062 3371.375 3550.25 3370.71875 C 3554.730469 3371.195312 3559.359375 3370.835938 3563.878906 3369.570312 C 3625.199219 3352.410156 3693.71875 3333.234375 3693.71875 3333.234375 Z M 3545.039062 3282.285156 L 3521.378906 3312.195312 C 3512 3324.054688 3496.230469 3328.828125 3481.851562 3324.15625 L 3481.769531 3324.132812 C 3495.828125 3328.019531 3510.941406 3323.136719 3520.050781 3311.613281 C 3538.789062 3287.917969 3554.578125 3267.949219 3554.578125 3267.949219 Z M 3450.46875 3179.324219 L 3445.851562 3291.257812 C 3445.21875 3306.363281 3435.269531 3319.488281 3420.890625 3324.15625 C 3414.289062 3326.296875 3407.410156 3326.453125 3400.980469 3324.851562 C 3406.800781 3325.914062 3412.898438 3325.574219 3418.78125 3323.664062 C 3433.269531 3318.960938 3443.308594 3305.734375 3443.941406 3290.511719 C 3446.558594 3226.890625 3449.5 3155.800781 3449.5 3155.800781 L 3450.46875 3179.324219 "/>
<path fill-rule="evenodd" fill="rgb(98.242188%, 84.179688%, 0%)" fill-opacity="1" d="M 3576.070312 3190.234375 C 3576.070312 3190.234375 3577.191406 3197.121094 3578.320312 3204.070312 C 3579.691406 3212.558594 3586.339844 3219.210938 3594.828125 3220.585938 C 3601.78125 3221.710938 3608.671875 3222.828125 3608.671875 3222.828125 C 3608.671875 3222.828125 3601.78125 3223.945312 3594.828125 3225.070312 C 3586.339844 3226.445312 3579.691406 3233.097656 3578.320312 3241.585938 C 3577.191406 3248.53125 3576.070312 3255.421875 3576.070312 3255.421875 C 3576.070312 3255.421875 3574.960938 3248.53125 3573.828125 3241.585938 C 3572.460938 3233.097656 3565.800781 3226.445312 3557.320312 3225.070312 C 3550.371094 3223.945312 3543.480469 3222.828125 3543.480469 3222.828125 C 3543.480469 3222.828125 3550.371094 3221.710938 3557.320312 3220.585938 C 3565.800781 3219.210938 3572.460938 3212.558594 3573.828125 3204.070312 C 3574.960938 3197.121094 3576.070312 3190.234375 3576.070312 3190.234375 "/>
<path fill-rule="evenodd" fill="rgb(98.242188%, 84.179688%, 0%)" fill-opacity="1" d="M 3408.738281 3609.671875 C 3408.738281 3609.671875 3410.128906 3618.289062 3411.539062 3626.980469 C 3413.261719 3637.589844 3421.578125 3645.910156 3432.191406 3647.632812 C 3440.890625 3649.039062 3449.5 3650.4375 3449.5 3650.4375 C 3449.5 3650.4375 3440.890625 3651.832031 3432.191406 3653.242188 C 3421.578125 3654.960938 3413.261719 3663.28125 3411.539062 3673.894531 C 3410.128906 3682.585938 3408.738281 3691.199219 3408.738281 3691.199219 C 3408.738281 3691.199219 3407.339844 3682.585938 3405.929688 3673.894531 C 3404.210938 3663.28125 3395.890625 3654.960938 3385.28125 3653.242188 C 3376.589844 3651.832031 3367.96875 3650.4375 3367.96875 3650.4375 C 3367.96875 3650.4375 3376.589844 3649.039062 3385.28125 3647.632812 C 3395.890625 3645.910156 3404.210938 3637.589844 3405.929688 3626.980469 C 3407.339844 3618.289062 3408.738281 3609.671875 3408.738281 3609.671875 "/>
<path fill-rule="evenodd" fill="rgb(98.242188%, 84.179688%, 0%)" fill-opacity="1" d="M 556.164062 3166.308594 C 556.164062 3166.308594 566.464844 3235.339844 575.738281 3297.496094 C 584.351562 3355.234375 629.683594 3400.566406 687.421875 3409.179688 C 749.578125 3418.453125 818.609375 3428.753906 818.609375 3428.753906 C 818.609375 3428.753906 749.578125 3439.054688 687.421875 3448.328125 C 629.683594 3456.941406 584.351562 3502.273438 575.738281 3560.011719 C 566.464844 3622.167969 556.164062 3691.199219 556.164062 3691.199219 C 556.164062 3691.199219 545.863281 3622.167969 536.589844 3560.011719 C 527.972656 3502.273438 482.644531 3456.941406 424.902344 3448.328125 C 362.746094 3439.054688 293.71875 3428.753906 293.71875 3428.753906 C 293.71875 3428.753906 362.746094 3418.453125 424.902344 3409.179688 C 482.644531 3400.566406 527.972656 3355.234375 536.589844 3297.496094 C 545.863281 3235.339844 556.164062 3166.308594 556.164062 3166.308594 "/>
<path fill-rule="evenodd" fill="rgb(99.21875%, 89.451599%, 77.929688%)" fill-opacity="1" d="M 556.164062 3198.171875 L 541.238281 3298.1875 C 532.320312 3357.972656 485.382812 3404.910156 425.597656 3413.832031 L 325.578125 3428.753906 L 425.597656 3443.675781 C 485.382812 3452.597656 532.320312 3499.535156 541.238281 3559.320312 L 556.164062 3659.335938 L 556.164062 3691.199219 C 556.164062 3691.199219 545.863281 3622.167969 536.589844 3560.011719 C 527.972656 3502.273438 482.644531 3456.941406 424.902344 3448.328125 C 362.746094 3439.054688 293.71875 3428.753906 293.71875 3428.753906 C 293.71875 3428.753906 362.746094 3418.453125 424.902344 3409.179688 C 482.644531 3400.566406 527.972656 3355.234375 536.589844 3297.496094 C 545.863281 3235.339844 556.164062 3166.308594 556.164062 3166.308594 L 556.164062 3198.171875 "/>
<path fill-rule="evenodd" fill="rgb(98.242188%, 84.179688%, 0%)" fill-opacity="1" d="M 780.046875 3155.800781 C 780.046875 3155.800781 782.035156 3169.128906 783.824219 3181.125 C 785.488281 3192.273438 794.238281 3201.023438 805.386719 3202.6875 C 817.386719 3204.476562 830.710938 3206.464844 830.710938 3206.464844 C 830.710938 3206.464844 817.386719 3208.453125 805.386719 3210.242188 C 794.238281 3211.90625 785.488281 3220.65625 783.824219 3231.804688 C 782.035156 3243.800781 780.046875 3257.128906 780.046875 3257.128906 C 780.046875 3257.128906 778.058594 3243.800781 776.269531 3231.804688 C 774.605469 3220.65625 765.855469 3211.90625 754.707031 3210.242188 C 742.710938 3208.453125 729.382812 3206.464844 729.382812 3206.464844 C 729.382812 3206.464844 742.710938 3204.476562 754.707031 3202.6875 C 765.855469 3201.023438 774.605469 3192.273438 776.269531 3181.125 C 778.058594 3169.128906 780.046875 3155.800781 780.046875 3155.800781 "/>
<path fill-rule="evenodd" fill="rgb(99.21875%, 89.451599%, 77.929688%)" fill-opacity="1" d="M 780.046875 3161.953125 L 777.164062 3181.257812 C 775.445312 3192.800781 766.382812 3201.859375 754.84375 3203.582031 L 735.535156 3206.464844 L 754.84375 3209.34375 C 766.382812 3211.066406 775.445312 3220.128906 777.164062 3231.667969 L 780.046875 3250.976562 L 780.046875 3257.128906 C 780.046875 3257.128906 778.058594 3243.800781 776.269531 3231.804688 C 774.605469 3220.65625 765.855469 3211.90625 754.707031 3210.242188 C 742.710938 3208.453125 729.382812 3206.464844 729.382812 3206.464844 C 729.382812 3206.464844 742.710938 3204.476562 754.707031 3202.6875 C 765.855469 3201.023438 774.605469 3192.273438 776.269531 3181.125 C 778.058594 3169.128906 780.046875 3155.800781 780.046875 3155.800781 L 780.046875 3161.953125 "/>
</svg>
