<?xml version="1.0" encoding="UTF-8"?><svg id="a" xmlns="http://www.w3.org/2000/svg" viewBox="0 0 708.67 708.67"><g id="b"><g id="c"><g id="d"><path d="M102.59,104.96l3.73,3.65-.85.87-3.6-.3,1.99,1.94-1.01,1.03-3.73-3.64.85-.87,3.6.3-1.99-1.94,1.01-1.03h0Z" fill="#fff"/><path d="M109.79,103.61l.79.82-3.02,2.9-3.61-3.76,2.95-2.83.79.82-1.9,1.82.61.63,1.67-1.6.76.8-1.67,1.6.66.69,1.97-1.89h0Z" fill="#fff"/><path d="M111.3,604.96c.21.35.34.68.4.98l-1.11.44c-.06-.27-.17-.55-.32-.83-.15-.28-.34-.53-.55-.74-.4-.39-.71-.49-.9-.29-.1.11-.12.24-.06.41s.2.4.4.71c.22.33.39.63.51.88s.17.52.16.81-.15.56-.4.82c-.22.23-.49.37-.79.43s-.63.03-.98-.11-.71-.38-1.06-.73c-.25-.24-.46-.5-.64-.79s-.31-.57-.39-.86l1.09-.47c.17.54.42.97.75,1.3.21.2.39.32.55.35.16.03.28,0,.38-.1s.11-.23.05-.39c-.07-.16-.2-.39-.4-.69-.22-.34-.4-.63-.52-.88-.12-.25-.17-.52-.16-.81,0-.28.14-.56.4-.81.22-.22.48-.37.78-.43s.63-.02.98.11c.35.13.71.38,1.06.72.3.3.56.62.77.97Z" fill="#fff"/><path d="M104.05,599.32l.8-.81,2.99,2.93-3.64,3.73-2.93-2.86.8-.81,1.88,1.84.61-.63-1.66-1.62.77-.79,1.66,1.62.67-.68-1.95-1.91h0Z" fill="#fff"/><path d="M606.24,595.94c.35-.21.67-.35.97-.41l.45,1.1c-.27.06-.55.17-.83.32-.28.16-.53.34-.73.55-.39.41-.49.71-.29.91.11.1.24.12.41.06s.4-.2.71-.4c.33-.22.63-.4.88-.52s.52-.18.81-.16c.29.01.56.14.82.4.23.22.37.48.44.79.06.3.03.63-.1.98s-.37.71-.72,1.07c-.24.25-.5.46-.79.65s-.57.32-.85.4l-.47-1.09c.54-.17.97-.42,1.3-.76.2-.21.32-.39.35-.55.03-.16,0-.28-.1-.38s-.23-.11-.39-.05c-.16.07-.39.2-.69.4-.34.23-.63.4-.88.52s-.52.18-.8.17c-.28-.01-.56-.14-.82-.39-.23-.22-.37-.48-.43-.78-.06-.3-.03-.63.11-.98.13-.36.37-.71.72-1.07.29-.3.62-.56.97-.77h-.05Z" fill="#fff"/><path d="M600.74,608.9l-2.55-4.85,1.1-1.13,2.97,1.5-1.54-2.96,1.1-1.13,4.91,2.43-1.06,1.09-3.11-1.58,1.61,3.12-.95.97-3.14-1.6,1.64,3.13-.99,1.01h.01Z" fill="#fff"/><path d="M602.22,101.22l-3.62,3.75-.87-.84.28-3.6-1.93,2-1.04-1.01,3.62-3.75.87.84-.28,3.6,1.93-2,1.04,1.01Z" fill="#fff"/><path d="M609.28,108.4l-4.93,2.39-1.09-1.14,1.6-2.92-3.01,1.44-1.09-1.14,2.59-4.83,1.05,1.1-1.68,3.06,3.17-1.51.94.98-1.7,3.08,3.18-1.54.97,1.02h0Z" fill="#fff"/><path d="M32.63,492.63l1.04-.46,1.68,3.84-4.78,2.09-1.64-3.75,1.04-.46,1.05,2.41.81-.35-.93-2.12,1.01-.44.93,2.12.87-.38-1.09-2.5h0Z" fill="#fff"/><path d="M32.8,490.22c.06.41.06.76,0,1.05l-1.19-.02c.05-.28.06-.57.02-.89-.03-.32-.11-.62-.23-.89-.22-.52-.46-.72-.72-.61-.14.06-.21.18-.21.35,0,.18.03.45.1.81.08.39.12.73.14,1.01.01.28-.04.55-.16.81s-.35.46-.68.6c-.29.12-.59.16-.89.1s-.59-.22-.86-.48c-.27-.26-.51-.62-.7-1.08-.13-.31-.23-.64-.29-.98-.06-.34-.07-.65-.03-.94h1.19c-.05.55.01,1.05.2,1.47.12.27.24.45.37.54.13.09.26.11.39.05s.19-.17.19-.34-.03-.44-.1-.79c-.08-.4-.12-.74-.14-1.01-.01-.28.04-.55.16-.81s.34-.46.68-.6c.29-.12.58-.15.88-.09.3.06.59.22.87.48.28.26.51.62.71,1.08.17.39.28.78.34,1.19h-.04Z" fill="#fff"/><path d="M28.36,482.19l1.06-.41,1.52,3.9-4.86,1.9-1.49-3.81,1.06-.41.96,2.45.82-.32-.84-2.16,1.03-.4.84,2.16.89-.35-.99-2.54h0Z" fill="#fff"/><path d="M497.14,672.87c.41-.07.76-.07,1.06-.01v1.19c-.28-.05-.58-.05-.9-.01s-.62.12-.89.24c-.52.23-.72.47-.6.73.06.14.18.21.36.21s.44-.04.8-.11c.39-.08.73-.13,1.01-.15s.55.03.81.15.46.34.61.67c.13.29.17.59.11.89-.05.3-.21.59-.47.87-.25.28-.61.52-1.07.72-.31.14-.64.24-.97.3-.34.06-.65.08-.94.05l-.03-1.18c.56.04,1.06-.03,1.48-.22.27-.12.45-.24.53-.38.09-.13.1-.26.05-.39-.06-.13-.17-.19-.34-.19s-.44.04-.79.11c-.4.08-.73.13-1.01.15s-.55-.03-.81-.15-.46-.34-.61-.67c-.13-.29-.16-.58-.11-.88s.21-.59.47-.87.61-.52,1.06-.72c.39-.17.78-.29,1.19-.35h0Z" fill="#fff"/><path d="M492.09,675.09c.41-.06.76-.06,1.05,0l-.02,1.19c-.27-.05-.57-.06-.89-.02-.32.03-.62.11-.89.23-.52.22-.73.46-.61.72.06.14.18.21.35.21.18,0,.45-.03.81-.1.39-.08.73-.12,1.01-.14s.55.04.81.16.46.35.6.68c.13.29.16.59.1.89s-.22.59-.48.86c-.26.27-.62.51-1.08.7-.31.14-.64.23-.98.29s-.65.07-.94.03v-1.19c.55.05,1.04-.01,1.47-.2.27-.12.45-.24.54-.37.09-.13.11-.26.05-.39s-.17-.19-.34-.19-.44.03-.79.1c-.4.08-.74.12-1.01.14-.28.01-.55-.04-.8-.16s-.46-.34-.6-.68c-.12-.29-.15-.58-.09-.88s.22-.59.48-.87.62-.51,1.08-.71c.39-.17.78-.28,1.19-.34l-.02.04Z" fill="#fff"/><path d="M481.81,684.83l-.32-5.47,1.47-.57,2.08,2.59-.18-3.34,1.47-.57,3.47,4.24-1.42.55-2.19-2.72.18,3.5-1.26.49-2.2-2.75.2,3.53-1.31.51h.01Z" fill="#fff"/><path d="M679.61,213.93l-5.45.58-.64-1.44,2.49-2.2-3.32.34-.64-1.44,4.08-3.67.62,1.39-2.62,2.31,3.49-.35.55,1.24-2.64,2.33,3.51-.37.57,1.29h0Z" fill="#fff"/><path d="M682.06,219.75l-4.79,2.05-.48-1.12,1.65-3.21-2.55,1.09-.57-1.33,4.8-2.05.48,1.12-1.65,3.21,2.55-1.09.57,1.33h-.01Z" fill="#fff"/><path d="M685.74,229.11l-5.47.32-.57-1.47,2.59-2.08-3.34.18-.57-1.47,4.24-3.47.55,1.42-2.72,2.19,3.5-.18.49,1.26-2.75,2.2,3.53-.2.51,1.31h0Z" fill="#fff"/><path d="M214.07,28.94l2.1,4.78-1.11.49-3.22-1.62,1.12,2.54-1.32.58-2.1-4.78,1.11-.49,3.22,1.62-1.12-2.54,1.32-.58Z" fill="#fff"/><path d="M220.3,26.29l2.05,4.79-1.12.48-3.21-1.65,1.09,2.55-1.33.57-2.05-4.79,1.12-.48,3.21,1.65-1.09-2.55,1.33-.57Z" fill="#fff"/><path d="M227.46,27.87l.41,1.06-3.9,1.52-1.89-4.86,3.81-1.48.41,1.06-2.45.95.32.82,2.16-.84.4,1.03-2.16.84.35.89,2.54-.99h0Z" fill="#fff"/><path d="M228.25,679.95c.33.24.58.49.75.74l-.85.84c-.16-.23-.37-.44-.62-.64s-.52-.36-.79-.46c-.53-.21-.84-.18-.95.09-.06.14-.02.27.1.4s.34.29.64.49c.34.22.61.43.82.61.21.19.36.41.46.68s.08.57-.05.91c-.12.3-.3.53-.56.71-.25.17-.57.27-.94.28-.38.01-.8-.07-1.26-.26-.32-.12-.62-.28-.9-.48s-.51-.41-.7-.64l.82-.85c.37.43.76.73,1.2.9.27.11.49.14.64.11.16-.03.26-.11.31-.24s.01-.26-.11-.38-.33-.28-.64-.48c-.34-.22-.61-.43-.82-.61-.21-.19-.36-.41-.46-.68s-.09-.57.05-.91c.11-.29.3-.52.55-.69s.57-.27.95-.28.8.07,1.26.25c.39.15.76.35,1.09.59h0Z" fill="#fff"/><path d="M223.09,677.89c.33.25.58.49.74.75l-.85.83c-.16-.23-.36-.45-.62-.65-.25-.2-.51-.36-.79-.47-.53-.21-.84-.19-.95.08-.06.14-.02.27.1.4s.34.29.64.5c.33.22.6.43.81.62s.36.42.46.68c.1.27.08.57-.06.91-.12.29-.31.53-.56.7-.26.17-.57.26-.95.27s-.8-.08-1.26-.27c-.32-.13-.62-.29-.9-.48s-.51-.41-.69-.64l.83-.85c.36.43.76.74,1.19.91.27.11.49.15.64.12.16-.03.26-.11.31-.24s.02-.26-.11-.38c-.12-.12-.33-.29-.63-.49-.34-.23-.61-.43-.81-.62-.21-.19-.36-.41-.46-.68s-.08-.57.05-.9c.12-.29.3-.52.56-.69s.57-.26.95-.27.8.07,1.26.26c.39.16.75.36,1.08.6h.02Z" fill="#fff"/><path d="M214.27,675.36l.46-1.04,3.83,1.68-2.1,4.78-3.74-1.65.46-1.04,2.41,1.06.35-.81-2.12-.93.44-1.01,2.12.93.38-.87-2.5-1.09h.01Z" fill="#fff"/><path d="M683.29,485.72l-4.26-3.46.57-1.47,3.32.21-2.59-2.12.57-1.47,5.47.3-.55,1.42-3.49-.22,2.71,2.23-.49,1.27-3.51-.23,2.74,2.23-.51,1.31h.02Z" fill="#fff"/><path d="M677.75,485.59c.24-.33.49-.58.75-.74l.83.85c-.23.16-.45.36-.65.62s-.36.51-.47.79c-.21.52-.18.84.08.95.14.06.27.02.4-.1s.29-.34.5-.64c.22-.33.43-.6.62-.81s.42-.36.68-.46.57-.08.91.06c.29.12.53.3.7.56s.26.57.27.95-.08.8-.26,1.26c-.13.32-.29.62-.49.9-.19.28-.41.51-.64.69l-.85-.83c.43-.36.74-.76.91-1.19.11-.27.15-.49.12-.64-.03-.16-.11-.26-.24-.31s-.26-.02-.38.1c-.13.12-.29.33-.49.63-.23.34-.43.61-.62.82s-.41.36-.68.46c-.27.1-.57.08-.9-.05-.29-.12-.52-.3-.69-.56s-.26-.57-.27-.95.07-.8.26-1.26c.16-.39.36-.75.6-1.08v-.02Z" fill="#fff"/><path d="M677.35,499.71l-4.1-3.64.64-1.45,3.31.36-2.49-2.23.63-1.45,5.46.55-.61,1.39-3.47-.38,2.61,2.35-.55,1.24-3.5-.39,2.64,2.35-.57,1.29h0Z" fill="#fff"/><path d="M483.34,24.39l-1.87,4.87-1.13-.44-1.15-3.42-1,2.59-1.35-.52,1.87-4.87,1.13.44,1.15,3.42,1-2.59,1.35.52Z" fill="#fff"/><path d="M489.64,26.92l-1.94,4.84-1.13-.45-1.1-3.44-1.03,2.58-1.34-.54,1.94-4.84,1.13.45,1.1,3.44,1.03-2.58,1.34.54Z" fill="#fff"/><path d="M498.9,30.92l-3.64,4.09-1.45-.63.36-3.31-2.23,2.49-1.45-.63.55-5.46,1.39.61-.38,3.47,2.35-2.61,1.24.55-.39,3.5,2.35-2.64,1.29.57h.01Z" fill="#fff"/><path d="M28.78,225.22l1.06.41-1.52,3.9-4.86-1.9,1.49-3.81,1.06.41-.95,2.45.82.32.84-2.16,1.03.4-.84,2.16.89.35.99-2.54h0Z" fill="#fff"/><path d="M27.43,217.67l4.84,1.94-.45,1.13-3.44,1.1,2.58,1.03-.54,1.34-4.84-1.94.45-1.13,3.44-1.1-2.58-1.03.54-1.34Z" fill="#fff"/><path d="M33.6,213.71l1.04.46-1.68,3.83-4.77-2.1,1.64-3.74,1.04.46-1.06,2.41.8.35.93-2.12,1.01.44-.93,2.12.87.38,1.1-2.5h0Z" fill="#fff"/><path d="M342.71.21l.2,5.21-1.21.05-2.41-2.69.11,2.78-1.44.06-.2-5.21,1.21-.05,2.41,2.69-.11-2.78,1.44-.06Z" fill="#fff"/><path d="M345.81,5.1c-.44-.22-.8-.54-1.05-.95-.26-.41-.39-.87-.4-1.38-.01-.52.11-.98.35-1.4.24-.42.58-.75,1.02-.99.43-.24.93-.37,1.48-.38.55-.01,1.05.1,1.49.32s.8.54,1.05.95c.26.41.39.87.4,1.39.01.52-.11.98-.35,1.4-.24.42-.58.75-1.02.99-.43.24-.93.37-1.48.38-.55.01-1.05-.1-1.49-.32h0ZM347.99,4c.21-.13.38-.31.5-.54s.18-.49.17-.78c0-.29-.07-.55-.2-.77-.13-.22-.3-.4-.52-.51s-.46-.18-.72-.17c-.26,0-.5.07-.71.2s-.38.31-.5.54-.18.49-.17.78c0,.29.07.55.2.77.13.22.3.4.52.52.22.12.46.18.72.17.26,0,.5-.07.71-.2h0Z" fill="#fff"/><path d="M353.98,3.87h-.8l.02,1.39-1.48.02-.06-5.21,2.38-.03c.47,0,.88.07,1.23.22s.62.37.81.66.29.63.3,1.02c0,.38-.08.71-.25.99s-.42.51-.75.67l1.14,1.63-1.58.02-.96-1.37h0ZM354.65,1.39c-.16-.13-.38-.2-.69-.19h-.82l.02,1.54h.82c.3-.01.53-.08.68-.21s.23-.32.22-.57c0-.24-.08-.43-.24-.56h.01Z" fill="#fff"/><path d="M359.05,1.23l-1.6-.03.02-1.17,4.67.1-.02,1.17-1.59-.03-.09,4.04-1.47-.03.09-4.04h-.01Z" fill="#fff"/><path d="M368.42.3l-.17,5.21-1.47-.05.06-2.03-2.01-.07-.07,2.03-1.47-.05.17-5.21,1.47.05-.06,1.96,2.01.06.06-1.96,1.47.05h.01Z" fill="#fff"/><path d="M4.25,362.15l1.14-.03.12,4.19-5.21.15-.11-4.09,1.14-.03.07,2.63.88-.02-.06-2.32,1.1-.03.07,2.32.95-.03-.08-2.73h0Z" fill="#fff"/><path d="M4.31,357.11l.03,2.21,1.02.4.02,1.5-5.24-2.24-.02-1.45,5.19-2.37.02,1.53-1.01.42h0ZM3.23,357.55l-1.66.69,1.68.65-.02-1.34Z" fill="#fff"/><path d="M5.24,353.44c-.11.4-.26.72-.44.96l-1.08-.51c.16-.23.29-.5.39-.8.1-.31.16-.61.16-.91.01-.57-.12-.85-.41-.86-.15,0-.26.08-.34.24-.08.16-.16.42-.24.77-.09.39-.19.72-.29.98s-.26.48-.48.67c-.22.18-.51.27-.87.26-.32,0-.6-.1-.85-.28s-.45-.44-.59-.79-.21-.77-.2-1.28c0-.34.05-.68.14-1.01.08-.33.2-.62.36-.87l1.09.48c-.28.49-.42.97-.43,1.44,0,.29.03.51.12.64s.2.21.33.21c.14,0,.24-.07.32-.23.07-.16.15-.41.23-.76.09-.4.19-.72.29-.98s.26-.48.48-.67c.21-.19.5-.28.87-.27.31,0,.59.1.84.28s.45.44.59.79.21.77.2,1.27c0,.42-.07.83-.18,1.23h-.01Z" fill="#fff"/><path d="M1.34,347.34l-.03,1.6-1.17-.03.1-4.67,1.17.02-.03,1.59,4.04.09-.03,1.48-4.04-.09h-.01Z" fill="#fff"/><path d="M369.71,703.15c.4.09.73.21.98.38l-.44,1.11c-.24-.14-.51-.26-.83-.34-.31-.08-.62-.12-.91-.11-.57.02-.84.18-.83.46,0,.15.09.26.26.32s.43.13.79.2c.4.07.73.15.99.23.27.09.5.23.7.44s.3.49.32.85c.01.32-.06.61-.23.87-.16.26-.41.47-.75.64-.34.16-.76.25-1.26.27-.34.01-.68-.01-1.02-.08-.33-.06-.63-.16-.89-.3l.41-1.11c.51.25.99.36,1.46.35.29-.01.5-.06.64-.16.13-.09.19-.21.19-.35s-.09-.24-.25-.3-.42-.13-.77-.19c-.4-.07-.73-.15-1-.23-.26-.09-.5-.23-.7-.43s-.31-.49-.32-.85c-.01-.31.06-.6.23-.86.16-.26.42-.47.76-.64.34-.16.76-.26,1.26-.28.42-.02.83.02,1.24.11h-.03Z" fill="#fff"/><path d="M363.65,703.55c.44.22.8.54,1.06.95.26.41.39.87.41,1.38.01.52-.1.98-.35,1.4-.24.42-.58.75-1.01.99-.43.24-.93.37-1.48.38-.55.01-1.05-.09-1.49-.32-.44-.22-.8-.54-1.06-.95-.26-.41-.39-.87-.41-1.39,0-.52.11-.98.35-1.4.24-.42.58-.75,1.01-.99.43-.24.93-.37,1.48-.38.55-.01,1.05.09,1.49.32h0ZM361.47,704.66c-.21.13-.38.31-.49.54-.12.23-.18.49-.17.78,0,.29.07.55.2.77.13.22.3.39.52.51s.46.18.72.17c.26,0,.5-.07.71-.2s.38-.31.5-.54.18-.49.17-.78c0-.29-.07-.55-.2-.77-.13-.22-.3-.39-.52-.51s-.46-.18-.72-.17c-.26,0-.5.07-.71.2h-.01Z" fill="#fff"/><path d="M357.15,703.93c.44.42.66,1.01.67,1.79l.03,2.89-1.48.02-.03-2.85c0-.83-.34-1.25-1-1.24-.66,0-.98.43-.97,1.26l.03,2.85-1.45.02-.03-2.89c0-.77.2-1.38.62-1.8s1.02-.64,1.8-.65c.77,0,1.38.2,1.81.61h0Z" fill="#fff"/><path d="M350.1,707.45l1.6.03-.02,1.17-4.67-.1.02-1.17,1.59.03.09-4.04,1.47.03-.09,4.04h.01Z" fill="#fff"/><path d="M340.69,708.38l.16-5.21,1.47.05-.06,2.03,2.01.06.06-2.03,1.47.04-.16,5.21-1.47-.04.06-1.96-2.01-.06-.06,1.96-1.47-.05Z" fill="#fff"/><path d="M708.57,348.99l-5.26-1.55-.04-1.58,3.15-1.08-3.2-.96-.04-1.58,5.17-1.83.04,1.52-3.3,1.14,3.36,1.01.04,1.36-3.33,1.14,3.39,1.01.04,1.41h-.02Z" fill="#fff"/><path d="M704.53,354.55h-1.14l-.05-4.17,5.21-.06.05,4.09h-1.14l-.03-2.62h-.88l.03,2.33h-1.1l-.03-2.3h-.95l.03,2.74h0Z" fill="#fff"/><path d="M703.43,356.68c.11-.4.26-.72.44-.96l1.08.51c-.16.23-.29.5-.39.8-.1.31-.15.61-.16.91-.01.57.12.85.41.86.15,0,.26-.08.34-.24s.16-.42.24-.77c.09-.39.19-.72.29-.98s.26-.48.48-.67.51-.27.87-.26c.32,0,.6.1.85.28s.45.44.59.79.21.77.2,1.27c0,.34-.05.68-.14,1.01s-.2.62-.36.87l-1.09-.48c.28-.49.42-.97.43-1.44,0-.29-.03-.51-.12-.64-.08-.14-.2-.21-.33-.21-.14,0-.24.07-.32.23-.07.16-.15.41-.23.76-.09.4-.19.72-.29.98s-.26.48-.48.67c-.21.19-.5.28-.87.27-.31,0-.59-.1-.84-.28s-.45-.44-.59-.8-.21-.77-.2-1.27c0-.42.07-.83.18-1.23v.02Z" fill="#fff"/><path d="M707.32,362.75l.04-1.6,1.17.03-.12,4.67-1.17-.03.04-1.59-4.04-.1.04-1.47,4.04.1h0Z" fill="#fff"/></g><path d="M22.33,422.63l-4.15.82c5.87,28.28,15.35,56.01,28.46,82.6,6.35,12.87,13.42,25.23,21.17,37.04l3.5-2.34c-23.55-35.83-40.24-75.95-48.99-118.13h.01Z" fill="#fff"/><path d="M286.03,22.32l-.82-4.15c-28.28,5.87-56.01,15.35-82.6,28.46-12.87,6.35-25.23,13.42-37.04,21.17l2.34,3.5c35.83-23.55,75.95-40.24,118.13-48.99h0Z" fill="#fff"/><path d="M21.37,290.36l-3.97-.79c-8.37,43.05-8.37,86.88-.1,129.53l4.15-.83c-8.03-41.44-8.39-84.77-.08-127.91Z" fill="#fff"/><path d="M164.2,73.78l-2.33-3.49c-36.36,24.53-67.35,55.52-91.66,91.52l3.44,2.3c24.47-36.08,55.37-66.54,90.55-90.33Z" fill="#fff"/><path d="M290.37,687.29l-.79,3.97c43.05,8.37,86.89,8.37,129.53.1l-.83-4.15c-41.44,8.03-84.77,8.39-127.91.08h0Z" fill="#fff"/><path d="M418.3,21.36l.79-3.97c-43.05-8.37-86.88-8.37-129.53-.1l.83,4.15c41.44-8.03,84.77-8.39,127.91-.08Z" fill="#fff"/><path d="M73.78,544.46l-3.49,2.33c24.53,36.36,55.52,67.35,91.52,91.66l2.3-3.44c-36.08-24.46-66.54-55.37-90.33-90.55h0Z" fill="#fff"/><path d="M544.46,634.87l2.33,3.49c36.36-24.53,67.35-55.52,91.66-91.52l-3.44-2.3c-24.46,36.08-55.37,66.54-90.55,90.33h0Z" fill="#fff"/><path d="M686.34,286.02l4.15-.82c-5.87-28.28-15.35-56.01-28.46-82.6-6.35-12.87-13.42-25.23-21.17-37.04l-3.5,2.34c23.55,35.83,40.24,75.95,48.99,118.12h-.01Z" fill="#fff"/><path d="M245.35,675.39c-28-9.5-53.94-22.34-77.55-37.89l-2.28,3.41c24.15,15.85,50.46,28.75,78.54,38.28,13.59,4.61,27.33,8.35,41.16,11.22l.79-3.97c-13.6-2.81-27.18-6.47-40.66-11.05h0Z" fill="#fff"/><path d="M687.3,418.29l3.97.79c8.37-43.05,8.37-86.88.1-129.53l-4.15.82c8.03,41.44,8.39,84.77.08,127.91h0Z" fill="#fff"/><path d="M422.64,686.33l.82,4.15c28.28-5.87,56.01-15.35,82.6-28.46,12.87-6.35,25.23-13.42,37.04-21.17l-2.34-3.5c-35.83,23.55-75.95,40.24-118.13,48.99h.01Z" fill="#fff"/><path d="M463.32,33.27c28,9.5,53.94,22.34,77.55,37.9l2.28-3.41c-24.15-15.85-50.46-28.75-78.54-38.28-13.59-4.61-27.33-8.35-41.16-11.22l-.79,3.97c13.6,2.81,27.18,6.47,40.66,11.05h0Z" fill="#fff"/><path d="M33.27,245.34c9.5-28,22.34-53.94,37.9-77.55l-3.41-2.28c-15.85,24.15-28.75,50.46-38.28,78.54-4.61,13.59-8.35,27.33-11.22,41.16l3.98.79c2.81-13.6,6.47-27.18,11.05-40.66h-.02Z" fill="#fff"/><path d="M634.88,164.2l3.49-2.33c-24.53-36.36-55.52-67.35-91.52-91.66l-2.3,3.44c36.08,24.46,66.54,55.37,90.33,90.55Z" fill="#fff"/><path d="M675.39,463.31c-9.5,28-22.34,53.94-37.9,77.55l3.41,2.28c15.85-24.15,28.75-50.46,38.28-78.54,4.61-13.59,8.35-27.33,11.22-41.16l-3.98-.79c-2.81,13.6-6.47,27.18-11.05,40.66h.02Z" fill="#fff"/></g><circle id="e" cx="354.33" cy="354.33" r="334.48" fill="none" stroke="#fff" stroke-miterlimit="10"/><g id="f"><path d="M192.44,76.2c.26.06.46.22.6.47.11.18.16.37.15.56,0,.2-.07.39-.2.58s-.32.36-.58.51c-.22.13-.46.22-.7.28-.24.05-.47.06-.67.02v-.47c.16.04.35.04.55,0,.2-.04.4-.11.59-.22.23-.14.38-.29.46-.47.07-.17.06-.35-.05-.52-.1-.17-.24-.27-.43-.29-.18-.02-.41.05-.66.2l-.25.15-.18-.31.22-1.43-1.51.89-.23-.39,2.06-1.22.18.3-.22,1.49c.32-.15.61-.19.87-.13h0Z" fill="#fff"/><path d="M194.97,76.6c-.27,0-.53-.11-.78-.29s-.48-.43-.67-.76c-.2-.33-.31-.65-.34-.96-.03-.31.01-.58.13-.82s.3-.43.55-.58c.24-.14.5-.21.77-.2.27,0,.53.11.78.28.25.18.47.43.67.76s.31.65.34.96c.03.3-.01.58-.13.82s-.3.43-.54.57c-.25.15-.5.21-.77.2v.02ZM195.93,75.34c.03-.29-.07-.64-.3-1.03-.23-.39-.48-.64-.75-.76s-.53-.1-.78.05c-.25.15-.39.37-.42.67s.07.64.3,1.03c.23.39.48.64.75.76s.53.1.79-.05c.25-.15.39-.37.42-.66h-.01Z" fill="#fff"/><path d="M74.73,194.36c.17-.12.36-.19.55-.2.2-.01.39.04.58.15.2.11.35.26.44.44.1.18.14.38.12.6,0,.22-.08.43-.2.64-.24.42-.56.67-.97.75-.4.08-.86-.03-1.36-.31-.35-.2-.62-.43-.79-.7s-.27-.55-.27-.84.08-.59.25-.89c.09-.15.18-.29.29-.41s.22-.21.34-.28l.26.37c-.19.09-.35.27-.49.52-.19.33-.23.64-.13.95.1.3.34.56.73.78.05.03.09.05.11.06-.09-.17-.12-.35-.1-.55.02-.2.09-.4.2-.59.12-.21.26-.37.43-.49h.01ZM75.97,195.21c-.04-.19-.15-.34-.34-.45-.19-.11-.37-.12-.56-.06-.18.07-.34.21-.46.43-.08.14-.12.28-.13.42,0,.14.02.27.07.38.06.11.15.2.26.27.11.06.23.09.35.09s.25-.05.37-.13.22-.2.31-.36c.12-.21.16-.41.12-.6h.01Z" fill="#fff"/><path d="M77.5,193.37c-.24.12-.51.17-.82.14-.31-.03-.63-.13-.96-.32s-.59-.41-.77-.66c-.18-.25-.28-.51-.3-.77-.02-.27.04-.52.19-.77.14-.25.33-.43.57-.55s.51-.17.82-.14c.31.03.63.13.96.32s.59.41.77.66c.18.25.28.51.3.77.02.27-.04.52-.18.77s-.33.44-.57.56h-.01ZM77.7,191.8c-.12-.27-.38-.52-.77-.74s-.74-.32-1.03-.28c-.29.03-.51.18-.65.43-.15.26-.16.52-.04.79.12.27.38.52.77.74s.74.32,1.03.28c.29-.03.51-.18.66-.44.14-.25.15-.51.03-.78h0Z" fill="#fff"/><path d="M31.04,355.51c.31-.27.76-.4,1.33-.41.4,0,.75.07,1.04.21.29.14.5.34.65.6s.22.56.23.9c0,.18-.02.34-.05.5-.04.16-.09.29-.16.41l-.41-.19c.11-.18.17-.41.17-.7,0-.38-.12-.67-.36-.88s-.58-.31-1.02-.31h-.13c.16.1.28.25.36.43s.13.39.13.62-.04.45-.13.64-.22.34-.38.44c-.17.11-.36.16-.58.16s-.43-.05-.6-.16c-.17-.11-.31-.26-.41-.46-.1-.19-.15-.41-.15-.65,0-.49.15-.86.46-1.13v-.02ZM32.3,356.15c-.06-.13-.15-.23-.26-.3-.11-.07-.23-.1-.36-.1s-.24.04-.35.1c-.11.07-.19.17-.25.3-.06.13-.09.29-.09.47,0,.24.07.43.2.58s.3.22.52.22.38-.08.51-.23c.12-.15.19-.35.18-.6,0-.16-.03-.31-.1-.43h0Z" fill="#fff"/><path d="M34.07,353.36c-.14.22-.36.4-.64.53s-.61.2-.99.2-.72-.06-1-.18c-.28-.13-.5-.3-.64-.52s-.22-.48-.23-.76c0-.28.07-.54.21-.76s.36-.4.64-.53.61-.2.99-.2.72.06,1,.18c.28.13.5.3.65.52s.22.48.23.76c0,.29-.07.54-.21.77h-.01ZM33.46,351.9c-.24-.17-.59-.26-1.04-.25-.45,0-.8.09-1.04.27s-.35.41-.35.7.12.53.36.7.59.26,1.04.25.8-.09,1.04-.27.35-.41.35-.71-.12-.52-.36-.69h0Z" fill="#fff"/><path d="M75.78,519.19l3.12-1.85.26.44-2.74,1.62.42.71-.39.23-.68-1.15h.01Z" fill="#fff"/><path d="M76.56,514.24l.39-.23,1.32,2.25-.3.18-1.98-.55c-.24-.07-.43-.1-.57-.08-.14,0-.27.05-.38.11-.16.1-.26.23-.28.4-.02.17.03.36.15.57.2.35.47.55.81.6l-.09.46c-.22-.03-.43-.13-.63-.27-.2-.15-.37-.35-.52-.59-.19-.33-.27-.64-.23-.92.04-.29.2-.51.47-.67.17-.1.35-.15.54-.17.19-.02.44.02.75.11l1.49.41-.94-1.6h0Z" fill="#fff"/><path d="M75.99,512.7c-.02.27-.13.52-.31.77-.19.25-.45.46-.78.65-.34.18-.66.29-.97.31s-.58-.03-.81-.15-.42-.31-.56-.57c-.14-.25-.19-.51-.17-.77.02-.27.12-.52.31-.77s.45-.46.78-.64c.34-.19.66-.29.97-.31s.58.03.81.16c.24.13.42.31.56.56s.19.51.17.78v-.02ZM74.76,511.7c-.29-.04-.64.05-1.04.27-.4.22-.66.46-.79.73-.13.27-.12.53.02.78.14.26.36.41.65.45.29.04.64-.05,1.04-.27.4-.22.66-.46.79-.73.13-.27.12-.53-.02-.79-.14-.26-.36-.4-.65-.44h0Z" fill="#fff"/><path d="M195.54,636.39l1.78-3.17.45.25-1.56,2.77.71.4-.22.39-1.16-.65h0Z" fill="#fff"/><path d="M193.34,633.15c-.12-.29-.09-.58.08-.88.11-.19.25-.33.42-.43s.37-.14.6-.12.47.1.73.25c.22.13.42.28.59.47.17.18.29.38.35.57l-.41.24c-.05-.16-.14-.32-.28-.48-.13-.16-.29-.29-.48-.39-.24-.13-.45-.19-.64-.16s-.33.13-.43.3c-.11.19-.12.37-.03.55s.31.37.66.57l.72.41-1.1,1.56-1.78-1.01.22-.39,1.4.8.58-.82-.35-.2c-.45-.26-.73-.53-.85-.82v-.02Z" fill="#fff"/><path d="M192.44,630.65c.12.24.15.52.12.82-.04.3-.15.62-.35.95s-.43.58-.68.75-.51.26-.78.27-.52-.06-.77-.21c-.24-.15-.42-.34-.53-.58s-.15-.52-.12-.82.15-.62.35-.95.43-.58.68-.75c.26-.17.52-.26.78-.27.27,0,.52.06.76.21.25.15.42.34.54.59h0ZM190.88,630.4c-.27.11-.53.36-.76.75-.24.39-.34.73-.32,1.02.03.29.16.52.41.67.25.15.51.17.79.06.27-.11.53-.36.76-.75.24-.39.34-.73.32-1.02-.02-.3-.16-.52-.41-.67-.25-.15-.51-.17-.78-.06h-.01Z" fill="#fff"/><path d="M357.97,678.01l-.04-3.63h.51l.04,3.17h.82v.44l-1.33.02h0Z" fill="#fff"/><path d="M353.95,675.97c-.11-.15-.17-.32-.17-.53s.05-.41.17-.57c.12-.16.28-.29.5-.38s.47-.13.77-.14c.29,0,.55.04.76.12.22.08.39.21.5.37.12.16.18.35.18.57s-.05.38-.16.54c-.11.15-.27.27-.47.35.17.08.3.18.38.31.09.13.13.29.13.47,0,.2-.05.38-.16.53s-.26.27-.46.35c-.2.08-.42.12-.68.13-.26,0-.49-.04-.69-.11-.2-.08-.35-.19-.46-.34s-.17-.32-.17-.52c0-.18.04-.33.13-.47.09-.13.21-.24.38-.32-.21-.08-.37-.19-.48-.34v-.02ZM354.55,674.96c-.17.12-.25.28-.25.49s.09.36.25.47.39.17.68.17.51-.06.67-.18.24-.28.24-.48-.08-.37-.25-.48-.39-.17-.68-.17-.51.06-.68.19h.02ZM355.83,677.49c.14-.11.21-.25.21-.43s-.07-.32-.21-.42c-.14-.1-.34-.15-.58-.15s-.45.05-.59.16c-.14.11-.21.25-.21.43s.08.32.22.43c.15.1.34.15.59.15s.44-.06.58-.16h-.01Z" fill="#fff"/><path d="M352.06,674.58c.22.15.39.37.51.65s.18.62.17,1c0,.38-.08.71-.22.99-.13.28-.32.49-.54.63-.23.14-.48.21-.77.2-.28,0-.53-.09-.75-.24-.22-.15-.39-.37-.51-.65s-.18-.62-.17-1c0-.38.08-.72.21-.99.13-.28.32-.49.54-.63.23-.14.48-.21.77-.2.29,0,.54.09.76.24ZM350.58,675.14c-.18.23-.28.58-.29,1.03s.07.8.24,1.04c.17.24.4.37.69.38.29,0,.53-.11.71-.34.18-.23.28-.58.29-1.03s-.07-.8-.24-1.04c-.17-.24-.4-.37-.69-.38-.29,0-.53.11-.71.34Z" fill="#fff"/><path d="M516.37,630.9l-.23-.39,2.25-1.33.18.3-.55,1.98c-.07.24-.09.43-.08.57s.05.27.11.38c.1.16.23.26.4.28.17.02.36-.03.57-.16.35-.2.55-.47.6-.81l.46.08c-.03.22-.13.43-.27.63-.15.2-.35.37-.59.52-.33.19-.63.27-.92.23-.29-.04-.51-.2-.67-.47-.1-.17-.16-.35-.17-.54-.02-.19.02-.44.1-.75l.41-1.49-1.6.95v.02Z" fill="#fff"/><path d="M516.19,634.69l-1.84-3.13.44-.26,1.61,2.74.71-.42.23.39-1.15.68h0Z" fill="#fff"/><path d="M512.71,632.71c.27.02.52.13.77.31s.46.45.65.78c.18.34.29.66.31.97s-.03.58-.15.81c-.13.24-.31.42-.57.56-.25.14-.51.19-.77.17-.27-.02-.52-.13-.77-.31-.25-.19-.46-.45-.65-.78-.18-.34-.29-.66-.31-.97s.03-.58.15-.81.31-.42.56-.56.51-.2.78-.17ZM511.71,633.94c-.04.29.05.64.27,1.04.22.4.46.66.73.78.27.13.53.12.79-.02.26-.14.41-.36.45-.65.04-.29-.05-.64-.27-1.04-.22-.4-.46-.66-.73-.79-.27-.13-.53-.12-.79.02-.25.14-.4.36-.44.65h-.01Z" fill="#fff"/><path d="M633.29,512.18l-.39-.22,1.28-2.27.31.17.52,1.99c.06.24.13.42.21.54s.17.21.29.27c.17.09.33.11.48.04.16-.06.3-.21.42-.42.2-.35.23-.68.11-1l.44-.16c.08.21.11.44.08.68-.03.25-.11.5-.25.74-.19.33-.41.55-.68.66s-.54.08-.81-.07c-.17-.1-.31-.22-.42-.38-.11-.16-.21-.39-.29-.7l-.39-1.49-.91,1.62h0Z" fill="#fff"/><path d="M631.69,515.88l.34-.6-.78-.44.25-.44.78.44.99-1.76.32.18,1.15,2.79-.28.49-1.12-2.68-.69,1.21.69.39-.24.42-.69-.39-.34.6-.39-.22h.01Z" fill="#fff"/><path d="M630.28,516.87c.24-.11.52-.15.82-.12.31.04.62.16.95.36s.58.43.75.68.26.52.27.78-.06.52-.21.77c-.15.24-.34.42-.58.53-.24.11-.52.15-.82.12s-.62-.15-.95-.35c-.33-.2-.58-.43-.75-.68-.17-.26-.26-.52-.27-.78,0-.27.06-.52.21-.76s.35-.42.59-.54h-.01ZM630.03,518.43c.11.27.36.53.75.76.39.24.73.34,1.02.32.29-.02.52-.16.67-.41.15-.25.17-.51.06-.79-.11-.27-.36-.53-.75-.76-.39-.24-.73-.34-1.02-.32s-.52.16-.67.41c-.15.25-.17.51-.06.78h0Z" fill="#fff"/><path d="M674.81,351.76h-.45l-.03-2.6h.35l1.44,1.46c.18.18.33.3.45.36.13.06.25.09.38.09.19,0,.34-.07.44-.21.1-.13.15-.33.15-.58,0-.4-.14-.71-.41-.92l.3-.36c.17.14.31.32.41.55.1.23.15.48.15.77,0,.38-.08.68-.26.91s-.42.34-.74.35c-.19,0-.38-.04-.55-.12s-.37-.24-.6-.47l-1.08-1.1.02,1.86h.03Z" fill="#fff"/><path d="M678.01,355.32h-.35l-3.29-1.44v-.55l3.19,1.41v-1.66h-.66v-.5h1.09l.02,2.74h0Z" fill="#fff"/><path d="M674.55,356.93c.15-.22.37-.39.65-.51s.62-.18,1-.17c.38,0,.71.08.99.22s.49.32.63.54c.14.23.21.48.2.77,0,.28-.09.54-.24.75-.15.22-.37.39-.65.51s-.62.18-1,.17c-.38,0-.72-.08-.99-.22-.28-.13-.49-.32-.63-.54-.14-.23-.21-.48-.2-.77,0-.29.09-.54.24-.76h0ZM675.11,358.41c.23.18.58.28,1.03.29s.8-.07,1.04-.24c.24-.17.37-.4.38-.69,0-.29-.11-.53-.34-.71-.23-.18-.58-.28-1.03-.29s-.8.07-1.04.24c-.24.17-.37.4-.38.69,0,.29.11.53.34.71Z" fill="#fff"/><path d="M631.49,190.7c-.06.26-.22.46-.47.6-.18.11-.37.16-.56.15-.2,0-.39-.07-.58-.2s-.36-.32-.51-.57c-.13-.22-.23-.46-.28-.7-.05-.25-.06-.47-.02-.67h.47c-.04.16-.04.35,0,.55.04.2.11.4.22.58.14.23.3.38.47.46.18.07.35.05.52-.05.17-.1.27-.25.29-.43.02-.18-.05-.41-.2-.67l-.15-.25.31-.19,1.43.21-.89-1.5.39-.23,1.23,2.06-.3.18-1.49-.22c.15.32.2.61.13.87v.02Z" fill="#fff"/><path d="M631.13,193.25c.01-.27.11-.53.29-.78s.43-.48.76-.67.65-.31.96-.34.58.01.82.13.43.3.58.55c.14.25.21.5.19.77-.01.27-.11.53-.28.78-.18.25-.43.48-.76.67s-.65.31-.96.34-.58-.01-.82-.13-.43-.3-.58-.54c-.14-.25-.21-.5-.2-.77h0ZM632.38,194.21c.3.03.64-.07,1.03-.3.39-.23.64-.48.76-.75s.1-.53-.05-.78c-.15-.25-.37-.39-.66-.42s-.64.07-1.03.3c-.39.23-.64.48-.76.75s-.1.53.05.79c.15.25.37.39.66.42h0Z" fill="#fff"/><path d="M633.11,196.67c.02-.27.13-.52.31-.77s.45-.46.78-.65c.34-.18.66-.29.97-.31s.58.03.81.15c.24.13.42.31.56.57.14.25.19.51.17.77-.02.27-.13.52-.31.77s-.45.46-.78.65c-.34.18-.66.29-.97.31s-.58-.03-.81-.16c-.24-.12-.42-.31-.56-.56s-.2-.51-.17-.78h0ZM634.33,197.67c.29.04.64-.05,1.04-.27.4-.22.66-.46.79-.73.13-.27.12-.53-.02-.78-.14-.26-.36-.41-.65-.45s-.64.05-1.04.27c-.4.22-.66.46-.79.73-.13.27-.12.53.02.79s.35.4.65.44Z" fill="#fff"/><path d="M512.74,74.17c.07.25.04.5-.1.75-.1.18-.24.32-.41.41-.17.1-.37.14-.6.12s-.47-.1-.73-.24c-.23-.13-.42-.28-.59-.47-.17-.19-.29-.38-.35-.57l.41-.24c.05.16.14.32.28.48.13.16.3.29.49.4.23.13.45.18.63.16.19-.03.33-.13.43-.3s.11-.35.04-.52c-.08-.17-.24-.33-.51-.48l-.25-.14.18-.32,1.34-.53-1.52-.86.22-.39,2.09,1.17-.17.31-1.4.56c.29.2.48.43.55.69h-.03Z" fill="#fff"/><path d="M515.74,75.88c.07.25.04.5-.11.75-.1.18-.24.32-.41.41s-.37.13-.6.12c-.23-.02-.47-.1-.73-.24-.23-.13-.42-.28-.59-.47s-.29-.38-.35-.57l.41-.24c.05.16.14.32.28.48s.3.29.48.4c.23.13.45.19.63.16.19-.03.33-.12.43-.3.1-.17.11-.35.04-.52s-.24-.33-.51-.48l-.25-.14.18-.32,1.35-.52-1.52-.86.22-.39,2.09,1.18-.17.31-1.4.55c.29.21.48.44.55.69h-.02Z" fill="#fff"/><path d="M516.68,78.27c-.11-.24-.15-.52-.12-.82.04-.31.15-.62.36-.95.2-.33.43-.58.68-.75.26-.17.52-.26.78-.27s.52.06.77.21c.24.15.42.34.53.58.11.24.15.51.12.82-.04.31-.15.62-.36.95-.2.33-.43.58-.68.75-.26.17-.52.26-.78.27-.27,0-.52-.06-.76-.21-.24-.15-.42-.35-.54-.59h0ZM518.24,78.52c.27-.11.53-.36.76-.75.24-.39.34-.73.32-1.02-.03-.29-.16-.52-.41-.67s-.51-.17-.79-.06c-.27.11-.53.36-.76.75-.24.39-.34.73-.32,1.02.03.3.16.52.42.67.25.15.51.17.78.06h0Z" fill="#fff"/><path d="M353.4,34.1c-.22-.14-.4-.36-.53-.64s-.2-.61-.2-.99.06-.72.18-1c.13-.28.3-.5.52-.64.22-.15.48-.22.76-.23.28,0,.54.07.76.21s.4.36.53.64.2.61.2.99-.06.72-.18,1-.3.5-.52.65-.47.22-.76.23c-.29,0-.54-.07-.77-.21h0ZM354.86,33.49c.17-.24.26-.59.25-1.04,0-.45-.09-.8-.27-1.04s-.41-.35-.7-.35-.53.12-.7.36-.26.59-.25,1.04c0,.45.09.8.27,1.04s.41.35.71.35.52-.12.69-.36h0Z" fill="#fff"/><path d="M147.66,108.76l-.52.45.58.68-.38.33-.58-.68-1.54,1.31-.24-.28-.13-3.01.43-.36.13,2.9,1.06-.91-.51-.6.37-.32.51.6.52-.45.29.34h.01Z" fill="#fff"/><path d="M149.34,108.3c-.27.03-.54-.02-.82-.15-.28-.13-.54-.34-.79-.63-.25-.29-.42-.59-.5-.88-.08-.3-.09-.57-.02-.83.07-.26.22-.48.44-.66.22-.18.46-.29.72-.33.27-.03.54.02.82.14.28.13.54.34.79.63.25.29.42.59.5.88.08.3.09.57.02.83-.08.26-.22.48-.44.66-.22.19-.46.3-.72.33h0ZM150.06,106.9c-.02-.3-.18-.61-.47-.96-.29-.34-.59-.55-.87-.62-.29-.07-.54,0-.76.18-.22.19-.32.43-.3.73s.18.61.47.96c.29.34.59.55.87.62.29.07.54,0,.77-.18.22-.19.32-.43.3-.72h-.01Z" fill="#fff"/><path d="M49.91,244.35l.33.12,2.6,2.48-.18.52-2.52-2.42-.56,1.56.61.22-.17.47-1.04-.37.92-2.58h0Z" fill="#fff"/><path d="M53.73,244c-.21.16-.47.26-.78.28-.31.03-.64-.02-1-.15s-.65-.3-.87-.51c-.22-.21-.36-.45-.43-.71-.06-.26-.05-.52.05-.79.09-.27.25-.48.46-.64s.47-.26.78-.28c.31-.03.64.02,1,.15s.65.3.87.51c.22.21.37.45.43.71.06.26.05.52-.05.79-.1.27-.25.49-.46.65h0ZM53.66,242.42c-.17-.25-.46-.44-.89-.59s-.78-.18-1.07-.1c-.28.09-.47.26-.57.54s-.06.54.1.78c.17.24.46.44.89.59s.78.18,1.07.1c.28-.09.47-.27.57-.54.1-.27.06-.53-.1-.78Z" fill="#fff"/><path d="M36.21,414.2l3.57-.67.1.5-3.12.59.15.81-.44.08-.25-1.31h0Z" fill="#fff"/><path d="M39.25,411.58c-.1.25-.28.46-.53.63-.25.18-.57.3-.94.37-.38.07-.72.07-1.01,0-.3-.08-.54-.21-.73-.4s-.3-.43-.36-.71c-.05-.28-.03-.54.08-.79.1-.25.28-.46.53-.63.25-.18.57-.3.94-.37.38-.07.72-.07,1.01,0,.3.07.54.21.73.4s.3.43.35.71c.05.28.03.55-.08.79h.01ZM38.39,410.25c-.27-.13-.62-.15-1.07-.07s-.77.23-.97.45c-.2.21-.28.47-.23.75.05.29.21.5.48.63.27.13.62.15,1.07.07.44-.08.77-.23.97-.45.2-.22.28-.47.22-.76-.05-.29-.21-.49-.48-.62h.01Z" fill="#fff"/><path d="M38.55,407.69c-.11.24-.3.45-.55.62-.26.17-.58.28-.96.34s-.72.04-1.01-.04c-.3-.08-.53-.23-.71-.42-.18-.2-.29-.44-.33-.72s0-.54.1-.78c.11-.24.3-.45.55-.62.26-.17.58-.28.96-.34s.72-.04,1.01.04c.3.08.53.23.71.42.18.2.29.44.33.72s0,.55-.1.79h0ZM37.74,406.33c-.26-.14-.62-.17-1.07-.1s-.78.21-.99.41c-.21.21-.29.46-.25.74.04.29.2.5.46.64s.62.17,1.06.1c.45-.07.78-.21.99-.41.21-.21.29-.46.25-.75s-.2-.5-.46-.64h.01Z" fill="#fff"/><path d="M108.61,565.04l2.76-2.37.33.39-2.41,2.07.53.62-.34.29-.87-1.01h0Z" fill="#fff"/><path d="M107.75,561.17c.02-.26.14-.49.36-.67.16-.13.33-.22.53-.25s.4,0,.6.09c.21.09.41.25.6.48.17.2.3.41.4.64s.14.45.13.66l-.47.09c0-.17-.02-.35-.1-.55-.07-.19-.18-.37-.32-.54-.17-.2-.35-.33-.54-.37-.18-.04-.35,0-.51.13-.15.13-.22.29-.21.47s.12.39.31.62l.19.22-.28.24-1.44.03,1.14,1.33-.34.29-1.56-1.82.27-.23,1.51-.04c-.21-.29-.3-.57-.28-.83h0Z" fill="#fff"/><path d="M107.69,558.6c.02.27-.03.54-.17.81s-.36.53-.66.77-.6.4-.9.47c-.3.08-.58.07-.83-.01s-.47-.24-.65-.46c-.18-.22-.28-.47-.3-.73-.03-.27.03-.54.17-.81.14-.28.36-.53.66-.77s.6-.4.9-.47c.3-.08.58-.07.83.01s.47.23.65.46c.18.23.28.47.31.74h0ZM106.31,557.84c-.3.01-.62.16-.97.44s-.57.57-.65.85c-.08.29-.03.54.16.77.18.23.42.34.72.33s.62-.16.97-.44.57-.57.65-.85c.08-.29.02-.54-.16-.77-.18-.23-.42-.33-.71-.32h0Z" fill="#fff"/><path d="M247.04,659.74l1.2-3.43.49.17-1.05,3,.77.27-.15.43-1.26-.44Z" fill="#fff"/><path d="M244.25,657.08c-.15-.15-.24-.32-.29-.51-.05-.2-.03-.39.04-.6.08-.21.2-.38.36-.51.16-.13.35-.2.57-.22.22-.02.44,0,.67.08.46.16.76.44.91.82.14.38.12.85-.07,1.39-.13.38-.32.68-.55.9-.23.22-.49.36-.78.41s-.6.02-.92-.09c-.17-.06-.32-.13-.45-.22-.13-.09-.24-.18-.33-.28l.32-.32c.12.17.32.3.6.39.36.13.67.12.95-.03s.5-.43.65-.85c.02-.05.03-.09.04-.12-.15.11-.32.18-.52.19-.2.02-.41-.01-.62-.09-.23-.08-.41-.19-.56-.34h-.02ZM244.86,655.71c-.18.07-.31.21-.38.41-.07.2-.06.39.04.56s.27.3.51.38c.15.05.3.07.44.06.14-.02.26-.06.36-.14.1-.08.18-.18.22-.3s.05-.24.02-.36-.09-.23-.19-.34c-.1-.1-.24-.19-.41-.25-.22-.08-.43-.08-.61-.01h0Z" fill="#fff"/><path d="M242.78,654.53c.15.22.24.48.26.79.02.31-.04.64-.18,1s-.32.64-.54.86c-.22.21-.46.35-.72.41-.26.05-.53.03-.79-.07-.26-.1-.47-.26-.63-.48s-.24-.48-.26-.79c-.02-.31.04-.64.18-1,.14-.36.32-.64.54-.86.22-.21.46-.35.72-.4.26-.06.53-.03.79.07.27.11.48.27.63.48h0ZM241.2,654.56c-.25.16-.46.45-.62.87s-.21.78-.13,1.06c.08.29.25.48.52.59.27.11.53.08.78-.08s.46-.45.62-.87c.17-.42.21-.78.13-1.06-.08-.29-.25-.48-.52-.59-.27-.11-.53-.08-.78.08Z" fill="#fff"/><path d="M414.08,672.45l-.67-3.57.5-.09.59,3.12.81-.15.08.44-1.31.25h0Z" fill="#fff"/><path d="M410.45,672.68c-.32-.26-.53-.68-.63-1.24-.07-.4-.06-.75.02-1.06.09-.31.25-.56.47-.75.23-.19.51-.32.85-.38.17-.03.34-.04.5-.04s.3.04.43.08l-.12.43c-.19-.08-.43-.09-.72-.04-.37.07-.64.24-.81.5-.17.27-.21.62-.13,1.06l.02.13c.07-.17.19-.31.36-.43.17-.11.36-.19.59-.23s.45-.04.65.02c.2.05.37.15.5.3.14.15.22.33.26.54.04.22.02.43-.06.62s-.21.35-.38.48-.38.21-.62.26c-.48.09-.88,0-1.2-.26h.02ZM410.85,671.32c-.12.08-.2.19-.25.3-.05.12-.06.24-.04.37s.08.23.16.33c.08.09.2.16.34.2.14.04.3.04.48,0,.23-.04.41-.14.53-.3.12-.15.16-.33.12-.54-.04-.21-.14-.37-.31-.46-.17-.1-.38-.12-.63-.08-.16.03-.3.09-.41.17h.01Z" fill="#fff"/><path d="M407.79,670.08c.24.11.45.3.62.55.17.26.28.58.34.96s.04.72-.04,1.01c-.08.3-.23.53-.42.71-.2.18-.44.29-.72.33-.28.04-.54,0-.78-.1s-.45-.3-.62-.55c-.17-.26-.28-.58-.34-.96s-.04-.72.04-1.01c.08-.3.23-.53.42-.71.2-.18.44-.29.72-.33.29-.04.55,0,.79.1h-.01ZM406.43,670.89c-.14.26-.17.62-.1,1.06.07.45.21.78.41.99.21.21.46.29.74.25.29-.04.5-.2.64-.46s.17-.62.1-1.06c-.07-.45-.21-.78-.41-.99-.21-.21-.46-.29-.75-.25s-.5.2-.64.46h.01Z" fill="#fff"/><path d="M562.3,598.21l-.29-.34,1.98-1.7.23.27-.19,2.05c-.02.25-.02.44.02.58s.09.25.18.35c.12.14.27.21.44.21s.35-.09.54-.25c.3-.26.45-.56.45-.9h.47c0,.23-.05.45-.16.67s-.27.43-.49.61c-.29.25-.58.38-.87.39-.29,0-.54-.1-.74-.34-.13-.15-.21-.31-.26-.5s-.06-.44-.03-.76l.14-1.53-1.41,1.21v-.02Z" fill="#fff"/><path d="M559.64,600.47l-.29-.34,1.99-1.69.23.27-.2,2.05c-.02.25-.02.44.01.58.04.14.09.25.18.35.12.14.27.21.44.21s.35-.09.54-.25c.3-.26.46-.56.45-.9h.47c0,.23-.05.45-.16.67s-.28.43-.49.61c-.29.25-.58.38-.87.38s-.53-.11-.74-.34c-.13-.15-.21-.31-.26-.5s-.06-.44-.02-.76l.15-1.53-1.42,1.21v-.02Z" fill="#fff"/><path d="M558.22,601.29c.27-.03.54.03.81.17.28.14.53.36.77.66s.4.6.47.9c.07.3.07.57-.01.83-.08.25-.24.47-.46.65-.22.18-.47.28-.73.3s-.54-.03-.81-.17c-.27-.14-.53-.36-.77-.66s-.4-.6-.47-.9c-.08-.3-.07-.58.01-.83s.23-.47.46-.65c.22-.18.47-.28.74-.3h-.01ZM557.45,602.67c.01.3.16.62.44.97.28.36.57.57.85.65.29.08.54.03.77-.16.23-.18.34-.42.33-.72s-.16-.62-.44-.97-.57-.57-.85-.65-.54-.02-.77.16c-.23.18-.33.42-.32.72h-.01Z" fill="#fff"/><path d="M656.42,461.55l-.42-.15.86-2.46.33.12.86,1.87c.1.23.2.39.3.49s.21.17.33.21c.18.06.34.05.48-.04.14-.09.26-.25.34-.49.13-.38.11-.71-.06-1.01l.4-.23c.12.19.18.41.2.66.01.25-.02.51-.12.77-.13.36-.31.61-.56.77-.25.15-.52.18-.81.07-.18-.06-.34-.16-.48-.3-.14-.13-.27-.35-.4-.64l-.64-1.4-.62,1.76h0Z" fill="#fff"/><path d="M656.71,464.99c-.27.16-.56.19-.88.08-.2-.07-.37-.18-.49-.34s-.2-.34-.23-.57c-.03-.23.01-.48.11-.77.08-.24.2-.46.36-.66.15-.2.32-.35.5-.45l.31.36c-.15.08-.3.2-.43.36s-.23.34-.3.54c-.09.26-.11.48-.05.66s.18.3.37.37c.21.07.39.05.55-.07s.31-.37.44-.75l.28-.78,1.73.82-.69,1.93-.43-.15.54-1.52-.91-.43-.13.38c-.17.49-.39.82-.66.98h0Z" fill="#fff"/><path d="M654.4,466.32c.22-.15.48-.24.79-.26s.64.04,1,.18.64.32.86.54c.21.22.35.46.4.72.06.26.03.53-.07.79-.1.26-.26.47-.48.63-.22.15-.48.24-.79.26s-.64-.04-1-.18-.64-.32-.86-.54c-.21-.22-.35-.46-.41-.72-.05-.26-.03-.52.07-.79.11-.27.27-.48.48-.63h0ZM654.42,467.89c.16.25.45.46.87.62s.78.21,1.06.13c.29-.08.48-.25.59-.52.11-.27.08-.54-.08-.79-.16-.25-.45-.46-.87-.62-.42-.17-.78-.21-1.06-.13-.29.08-.48.25-.59.52-.11.27-.08.53.08.78h0Z" fill="#fff"/><path d="M669.49,295.97l-.44.09-.48-2.56.35-.07,1.68,1.19c.2.15.37.24.51.27.14.04.27.04.39.02.19-.03.32-.13.4-.28s.1-.35.05-.59c-.07-.39-.26-.67-.56-.84l.24-.4c.2.11.36.26.5.47s.23.45.29.73c.07.37.04.69-.1.94-.14.26-.36.41-.66.47-.19.04-.38.03-.56-.02s-.41-.17-.67-.35l-1.26-.89.35,1.83h-.03Z" fill="#fff"/><path d="M671.23,299.35c-.13.14-.29.22-.49.26-.21.04-.41.02-.59-.07-.18-.09-.33-.23-.46-.43-.12-.2-.21-.44-.27-.73-.05-.29-.06-.54-.01-.77.04-.23.14-.41.27-.56.14-.15.31-.24.53-.28.2-.04.39-.02.55.06.17.08.31.22.42.41.05-.18.13-.32.24-.43s.26-.18.44-.21c.2-.04.38-.02.55.07.17.08.31.21.42.39s.2.4.24.65c.05.26.05.49,0,.7-.04.21-.13.38-.25.52-.13.13-.29.22-.48.26-.17.03-.33.02-.48-.05-.15-.06-.27-.17-.38-.32-.04.22-.12.39-.25.53h0ZM670.14,298.94c.15.14.32.19.52.16.2-.04.34-.15.42-.33.08-.18.1-.42.05-.7s-.15-.49-.29-.63c-.14-.14-.31-.19-.51-.15s-.34.15-.43.33c-.09.18-.11.41-.05.7.05.28.15.49.3.64v-.02ZM672.4,297.24c-.13-.12-.28-.17-.46-.13-.18.03-.3.13-.38.28-.08.16-.09.36-.05.6.04.25.13.43.26.55s.28.17.46.13c.18-.03.3-.13.38-.29s.09-.37.05-.61c-.05-.24-.13-.42-.26-.54h0Z" fill="#fff"/><path d="M670.18,301.43c.11-.24.3-.45.55-.62.26-.17.58-.28.96-.34s.72-.04,1.01.04c.3.08.53.23.71.42.18.2.29.44.33.72.04.28,0,.54-.1.78-.11.24-.3.45-.55.62-.26.17-.58.28-.96.34s-.72.04-1.01-.04c-.3-.08-.53-.23-.71-.42-.18-.2-.29-.44-.33-.72-.04-.28,0-.55.1-.79h0ZM670.99,302.78c.26.14.62.17,1.06.1.45-.07.78-.21.99-.41.21-.21.29-.46.25-.74-.04-.29-.2-.51-.46-.64-.26-.14-.62-.17-1.07-.1s-.78.21-.99.41c-.21.21-.29.46-.25.75s.2.5.46.64h.01Z" fill="#fff"/><path d="M599.34,145.63c-.02.26-.14.49-.36.67-.16.13-.33.22-.53.25s-.4,0-.61-.09c-.21-.09-.41-.25-.6-.48-.17-.2-.3-.41-.4-.64-.1-.23-.14-.45-.13-.66l.47-.09c0,.17.02.35.1.55.07.19.18.37.32.54.18.21.36.33.54.37.19.04.35,0,.51-.14s.22-.29.21-.47c-.01-.18-.12-.39-.31-.62l-.19-.22.28-.24,1.45-.04-1.14-1.33.34-.29,1.56,1.82-.27.23-1.51.04c.21.29.3.57.28.83h-.01Z" fill="#fff"/><path d="M602.31,146.27l-2.76,2.36-.33-.39,2.42-2.06-.53-.62.34-.29.87,1.02v-.02Z" fill="#fff"/><path d="M600.98,150.04c-.03-.27.03-.54.17-.81.14-.27.36-.53.66-.77s.6-.4.9-.47c.3-.08.58-.07.83,0s.47.24.65.46c.18.22.28.47.3.73.03.27-.03.54-.17.81-.14.27-.36.53-.66.77s-.6.4-.9.47c-.3.07-.58.07-.83,0s-.47-.24-.65-.46c-.18-.22-.28-.47-.3-.73ZM602.36,150.81c.3,0,.62-.16.97-.44.36-.28.57-.57.65-.85.08-.29.03-.54-.16-.77-.18-.23-.42-.34-.72-.33s-.62.16-.97.44-.57.57-.65.85c-.08.29-.03.54.16.77.18.23.42.33.72.32h0Z" fill="#fff"/><path d="M461.46,50.85c.12.24.12.49.03.76-.07.2-.18.36-.33.48s-.34.2-.57.22c-.23.02-.48-.01-.76-.11-.24-.09-.47-.2-.67-.36-.2-.15-.35-.32-.45-.5l.36-.31c.08.15.2.29.36.42s.34.23.55.3c.26.09.47.11.65.05.18-.06.3-.18.37-.37s.05-.36-.06-.51c-.1-.15-.3-.28-.58-.38l-.27-.1.12-.34,1.23-.76-1.65-.58.15-.43,2.26.79-.12.33-1.28.79c.33.15.54.34.66.58v.03Z" fill="#fff"/><path d="M465.36,53.18l-.65-.23-.3.84-.47-.17.3-.84-1.9-.67.12-.34,2.55-1.62.53.19-2.44,1.57,1.31.47.26-.74.46.16-.26.74.65.23-.15.42h-.01Z" fill="#fff"/><path d="M466.54,54.38c-.16-.22-.24-.48-.26-.79s.04-.64.18-1,.32-.64.54-.86c.22-.21.46-.35.72-.4.26-.05.53-.03.79.07.26.1.47.26.63.48.15.22.24.48.26.79s-.04.64-.18,1-.32.64-.54.86c-.22.21-.46.35-.72.4-.26.06-.52.03-.79-.07-.27-.11-.48-.27-.63-.48ZM468.12,54.36c.25-.16.46-.45.62-.87.17-.42.21-.78.13-1.06-.08-.29-.25-.48-.52-.59-.27-.11-.54-.08-.78.08-.25.16-.46.45-.62.87-.17.42-.21.78-.14,1.06.08.29.25.48.52.59.27.11.53.08.78-.08h.01Z" fill="#fff"/><path d="M296.42,35.84l.66,3.57-.51.09-.58-3.13-.81.15-.08-.44,1.31-.24h0Z" fill="#fff"/><path d="M299.04,38.89c-.25-.1-.46-.28-.63-.53-.18-.25-.3-.57-.37-.94-.07-.38-.07-.72,0-1.01.08-.3.21-.54.4-.73.19-.18.43-.3.71-.36.28-.05.54-.03.79.08s.46.28.63.53c.18.25.3.57.37.94.07.38.07.72,0,1.01-.08.3-.21.54-.4.73-.19.18-.43.3-.71.35-.28.05-.55.03-.79-.08h0ZM300.37,38.04c.13-.27.15-.62.07-1.07s-.23-.77-.45-.97c-.22-.2-.47-.28-.75-.23-.29.05-.5.21-.63.48-.13.27-.15.62-.07,1.07s.23.77.45.97c.22.2.47.28.76.22.28-.05.49-.21.62-.48h0Z" fill="#fff"/><path d="M106.9,148.24c.31-.06.59,0,.85.23.17.14.28.3.35.49s.07.39.02.61-.18.45-.37.68c-.16.2-.35.36-.56.5-.21.13-.42.22-.63.25l-.17-.45c.17-.02.34-.08.52-.19.18-.1.33-.24.47-.4.17-.21.26-.41.27-.6,0-.19-.07-.35-.22-.48-.17-.14-.35-.18-.54-.12-.19.06-.42.24-.67.55l-.53.64-1.34-1.36,1.3-1.58.35.29-1.03,1.24.71.71.26-.31c.33-.4.65-.63.95-.7h0Z" fill="#fff"/><path d="M109.52,147.8c-.26.08-.53.08-.83,0s-.6-.24-.89-.49c-.3-.24-.51-.51-.65-.78s-.19-.55-.16-.81c.03-.27.13-.51.32-.73.18-.22.4-.37.65-.45s.53-.08.83,0,.59.24.89.49c.3.24.51.51.65.78.13.28.19.55.16.81-.03.27-.13.51-.31.73s-.4.37-.66.45ZM109.99,146.29c-.07-.29-.28-.57-.63-.86s-.67-.44-.97-.46-.54.09-.72.31c-.19.23-.24.48-.17.77.07.29.28.57.63.86s.67.44.97.46.54-.09.72-.31c.18-.22.24-.48.17-.77Z" fill="#fff"/><path d="M37.41,299.28c.17-.08.35-.11.55-.07.21.04.39.12.53.27s.23.33.28.56c.05.23.05.49,0,.78s-.13.53-.25.73-.27.34-.45.43-.37.12-.59.08c-.2-.03-.37-.12-.5-.25s-.22-.31-.26-.52c-.11.15-.23.26-.38.32-.14.06-.3.08-.48.05-.2-.03-.36-.12-.49-.25s-.22-.3-.26-.51c-.05-.21-.05-.44,0-.69.04-.26.12-.48.23-.66s.25-.32.41-.4c.17-.08.35-.11.54-.07.17.03.32.1.44.21s.2.25.25.43c.11-.19.25-.33.42-.41v-.03ZM35.6,300.86c.08.16.21.25.39.28s.33-.02.46-.14c.12-.12.21-.3.25-.55s.02-.45-.06-.61c-.08-.16-.21-.25-.38-.28-.18-.03-.33.02-.46.15s-.21.31-.25.55-.02.44.06.6h-.01ZM38.31,300.04c-.09-.18-.24-.29-.44-.33-.2-.03-.37.02-.51.17-.14.14-.24.36-.28.64-.05.28-.03.51.06.69s.23.29.43.32.37-.02.52-.16c.14-.14.24-.35.29-.64.05-.28.03-.52-.06-.7h0Z" fill="#fff"/><path d="M39.12,297.67c-.18.2-.42.33-.72.41-.3.08-.64.09-1.01.03-.38-.06-.7-.18-.95-.35-.26-.17-.44-.38-.55-.63-.11-.24-.14-.51-.09-.79s.16-.52.34-.71c.18-.2.42-.33.72-.41.3-.08.64-.09,1.01-.02.38.06.7.18.95.35.26.17.44.38.54.63.11.24.14.51.09.79s-.16.52-.34.72v-.02ZM38.77,296.13c-.21-.21-.53-.36-.98-.43-.45-.08-.8-.05-1.07.09-.27.13-.42.34-.47.63s.03.54.24.75.53.36.98.43c.45.07.8.05,1.07-.09.26-.13.42-.34.47-.63s-.03-.54-.24-.75Z" fill="#fff"/><path d="M51.18,467.81l3.4-1.28.18.48-2.98,1.12.29.77-.42.16-.47-1.25h0Z" fill="#fff"/><path d="M50.34,465.53l3.4-1.27.18.48-2.98,1.11.29.77-.42.16-.47-1.25h0Z" fill="#fff"/><path d="M52.89,462.39c-.06.26-.2.5-.42.72s-.51.39-.87.53c-.36.13-.69.19-1,.17s-.57-.11-.78-.27c-.22-.16-.37-.37-.47-.64s-.12-.53-.06-.79c.06-.26.2-.5.42-.72s.51-.39.87-.53c.36-.13.69-.19,1-.17s.57.11.78.27c.22.16.37.37.47.64s.12.53.06.79ZM51.82,461.23c-.28-.08-.64-.04-1.06.12s-.72.36-.88.61c-.16.25-.19.51-.09.78.1.27.3.45.58.53s.64.04,1.06-.12.72-.36.88-.61c.16-.25.19-.51.09-.78-.1-.27-.3-.45-.58-.53Z" fill="#fff"/><path d="M149.1,604.63l2.3-2.81.4.32-2.01,2.46.63.52-.29.35-1.03-.84h0Z" fill="#fff"/><path d="M147.4,599.67l.53.44.57-.69.39.32-.57.69,1.56,1.28-.23.28-2.95.65-.43-.36,2.83-.64-1.08-.89-.5.61-.38-.31.5-.61-.53-.44.28-.34h0Z" fill="#fff"/><path d="M146.67,598.12c.07.26.06.53-.03.83s-.26.59-.52.87c-.25.29-.52.49-.8.62s-.55.17-.82.13-.5-.15-.72-.34c-.21-.19-.35-.41-.42-.67-.07-.26-.06-.53.03-.83s.26-.59.51-.87c.25-.29.52-.49.8-.62s.55-.17.82-.13c.26.04.5.15.72.34s.36.41.43.67h0ZM145.18,597.6c-.29.06-.58.26-.88.61-.3.34-.46.66-.49.95-.03.3.07.54.29.73.22.19.47.26.76.2s.58-.26.88-.6.46-.66.49-.95c.03-.3-.07-.54-.29-.73-.22-.19-.47-.26-.76-.19v-.02Z" fill="#fff"/><path d="M301.55,673.66l.59-3.58.51.08-.51,3.14.81.13-.07.45-1.31-.22h-.02Z" fill="#fff"/><path d="M297.64,673l.06-.35,1.99-2.99.54.09-1.94,2.9,1.64.27.11-.64.49.08-.18,1.08-2.7-.45h0Z" fill="#fff"/><path d="M296.65,669.32c.19.19.32.43.39.73s.07.64,0,1.01c-.08.38-.2.69-.39.94-.18.25-.39.42-.64.52-.25.1-.51.12-.79.07-.28-.06-.51-.18-.7-.37s-.32-.43-.39-.73-.07-.64,0-1.01c.08-.38.2-.69.38-.94s.39-.42.64-.52c.25-.1.51-.12.79-.07.28.06.52.18.71.37h0ZM295.09,669.62c-.22.2-.37.52-.46.97-.09.44-.07.8.05,1.07s.33.43.61.49c.29.06.54-.01.76-.21s.37-.52.46-.97c.09-.44.07-.8-.05-1.07-.13-.27-.33-.43-.62-.49-.28-.06-.54.01-.75.21Z" fill="#fff"/><path d="M466.59,654.55l-.16-.42,2.44-.92.12.33-.88,1.86c-.11.22-.17.41-.18.55s0,.27.05.39c.07.18.18.29.34.35.16.05.36.03.59-.06.38-.14.62-.37.73-.7l.44.16c-.07.21-.2.4-.38.57s-.4.31-.67.41c-.36.13-.67.16-.95.07-.27-.09-.47-.28-.58-.57-.07-.18-.09-.37-.08-.56s.09-.43.23-.72l.66-1.39-1.74.66h.02Z" fill="#fff"/><path d="M464.93,654.86c.26.06.5.2.72.42s.39.51.53.87c.13.36.19.69.17,1s-.11.57-.27.79c-.16.21-.37.37-.64.47s-.53.12-.79.06c-.26-.06-.5-.2-.72-.42s-.39-.51-.53-.87-.19-.69-.17-1,.11-.57.27-.78.37-.37.64-.47.53-.12.79-.06h0ZM463.76,655.94c-.08.29-.04.64.12,1.06.16.43.36.72.61.88.25.16.51.19.78.09.28-.1.45-.3.53-.58s.04-.64-.12-1.06-.36-.72-.61-.88c-.25-.16-.51-.19-.78-.09s-.45.29-.53.58Z" fill="#fff"/><path d="M461.21,656.22c.26.07.49.21.7.44.21.22.38.52.5.88s.17.7.14,1.01c-.03.31-.13.56-.29.77s-.38.36-.65.45-.53.1-.79.03c-.26-.07-.49-.21-.7-.44-.21-.22-.38-.52-.5-.88s-.17-.7-.14-1.01c.03-.31.13-.56.29-.78.16-.21.38-.36.65-.45s.54-.1.8-.04v.02ZM460.02,657.25c-.09.28-.06.64.08,1.07s.34.73.58.9c.24.17.5.21.78.12s.46-.28.55-.56c.09-.28.06-.64-.08-1.07s-.34-.73-.58-.9c-.24-.17-.5-.21-.78-.12-.27.09-.46.28-.55.56Z" fill="#fff"/><path d="M601.45,558.35l-.35-.29,1.65-2.02.27.22.17,2.05c.02.25.06.44.12.56.06.13.14.23.24.31.15.12.3.16.47.13.17-.04.33-.15.49-.34.25-.31.35-.63.28-.97l.46-.08c.04.22.03.45-.04.69s-.2.47-.38.69c-.24.3-.5.47-.79.53-.28.06-.54,0-.79-.21-.15-.12-.26-.27-.35-.45-.08-.17-.13-.42-.16-.74l-.12-1.54-1.18,1.44v.02Z" fill="#fff"/><path d="M600.46,561.61c-.26.03-.5-.05-.72-.23-.16-.13-.27-.29-.34-.48-.06-.19-.07-.39-.01-.61.05-.22.18-.45.37-.68.17-.2.35-.37.57-.5.21-.13.42-.22.62-.25l.16.44c-.17.02-.34.08-.52.19-.18.1-.34.24-.47.41-.17.21-.26.41-.27.6,0,.19.06.35.22.47.15.13.32.17.5.13s.37-.18.56-.41l.18-.22.28.23.28,1.42,1.11-1.35.35.29-1.52,1.85-.27-.22-.3-1.48c-.25.25-.51.39-.77.42v-.02Z" fill="#fff"/><path d="M597.96,562.09c.26-.07.53-.06.83.03.29.09.59.26.87.51.29.25.49.52.62.8.12.28.17.55.13.82-.04.26-.15.5-.34.72-.19.21-.41.35-.67.42s-.53.06-.83-.03-.59-.26-.88-.51-.49-.52-.62-.8c-.13-.28-.17-.55-.13-.82.04-.26.15-.5.34-.72s.41-.36.67-.43h.01ZM597.45,563.59c.06.29.26.58.61.88.34.3.66.46.95.49.29.03.54-.07.73-.29s.26-.48.2-.76-.27-.58-.61-.88c-.34-.3-.66-.46-.95-.49-.3-.03-.54.07-.73.29s-.26.47-.19.76h-.01Z" fill="#fff"/><path d="M670.41,407.32l-.45-.07.42-2.58.35.06,1.17,1.69c.14.21.27.35.38.43s.23.13.36.15c.19.03.34-.01.47-.12.13-.11.21-.29.25-.54.06-.4-.02-.72-.24-.98l.36-.3c.15.17.25.37.31.62s.06.5.02.78c-.06.38-.2.66-.41.85-.22.19-.48.26-.79.21-.19-.03-.37-.1-.52-.21-.16-.11-.33-.3-.51-.56l-.88-1.27-.3,1.84h.01Z" fill="#fff"/><path d="M671.47,410.7c-.12.17-.27.3-.45.37-.18.08-.38.1-.6.06-.23-.04-.41-.13-.57-.27-.15-.14-.26-.31-.32-.52s-.07-.43-.03-.67c.08-.48.3-.83.65-1.03.35-.21.82-.26,1.39-.17.4.07.73.19.99.38s.44.42.54.7.12.59.07.92c-.03.17-.07.33-.14.48-.06.15-.14.27-.22.37l-.37-.26c.14-.15.24-.37.28-.66.06-.37,0-.68-.2-.93s-.51-.41-.95-.48c-.05,0-.1-.02-.13-.02.14.13.23.29.28.48.05.19.05.4.02.63-.04.24-.12.44-.24.61h0ZM670.01,410.34c.1.17.26.27.47.31.21.04.39-.01.54-.14.15-.13.24-.32.29-.56.03-.16.02-.31-.02-.44-.04-.14-.11-.25-.2-.33-.09-.09-.21-.14-.34-.16s-.25,0-.36.04c-.12.05-.21.13-.3.25-.09.12-.14.26-.17.44-.04.24,0,.44.09.6h0Z" fill="#fff"/><path d="M669.21,412.56c.19-.19.43-.32.73-.39s.64-.07,1.01,0,.69.2.94.39c.25.18.42.39.52.64.1.25.12.51.07.79-.06.28-.18.51-.37.7s-.43.32-.73.39-.64.07-1.01,0c-.38-.08-.69-.2-.94-.38s-.42-.39-.53-.64c-.1-.25-.12-.51-.07-.79.06-.28.18-.52.37-.71h.01ZM669.51,414.11c.2.22.52.37.97.46.44.09.8.07,1.07-.05s.43-.33.49-.61c.06-.29-.01-.54-.21-.76s-.52-.37-.97-.46c-.44-.09-.8-.07-1.07.05s-.43.33-.49.62c-.06.28.01.54.21.75Z" fill="#fff"/><path d="M654.6,242.2l-.42.16-.92-2.44.33-.12,1.86.88c.22.11.41.17.55.18.14.01.27,0,.39-.05.18-.07.29-.18.34-.34.05-.16.03-.36-.05-.59-.14-.38-.37-.62-.7-.73l.16-.44c.21.07.4.2.58.38.17.18.31.4.41.67.13.36.16.67.07.95-.09.27-.28.47-.57.58-.18.07-.37.09-.56.08-.19-.02-.43-.09-.72-.23l-1.39-.66.66,1.74-.02-.02Z" fill="#fff"/><path d="M658.31,244.29c-.2.36-.57.64-1.11.84-.38.14-.73.2-1.05.16-.32-.03-.59-.15-.82-.34s-.4-.45-.52-.77c-.06-.17-.1-.33-.12-.49s-.02-.3,0-.43l.45.04c-.04.21-.02.44.08.72.13.35.35.59.64.7.29.12.65.1,1.07-.06l.12-.04c-.18-.04-.34-.14-.48-.28-.14-.14-.25-.32-.33-.54s-.12-.44-.1-.65.09-.39.21-.55c.12-.16.28-.27.49-.35.21-.08.42-.1.62-.05.2.04.38.14.54.29s.28.34.36.56c.17.46.15.86-.05,1.22v.02ZM656.9,244.13c.1.1.22.16.34.19.13.03.25.02.37-.03.12-.04.22-.12.29-.22.08-.1.12-.22.13-.37.01-.14,0-.3-.07-.47-.08-.22-.21-.38-.38-.47s-.36-.1-.56-.03c-.2.08-.33.2-.4.39-.07.18-.05.39.03.63.06.15.14.28.24.38h.01Z" fill="#fff"/><path d="M656.19,247.33c.07-.26.21-.49.44-.7.22-.21.52-.38.88-.5s.7-.17,1-.14c.31.03.56.13.78.29.21.17.36.38.45.66.09.27.1.53.03.79-.07.26-.21.49-.44.7-.22.21-.52.38-.88.5s-.7.17-1.01.14-.56-.13-.78-.3c-.21-.16-.36-.38-.45-.65s-.1-.54-.03-.8h.01ZM657.22,248.53c.28.09.64.06,1.07-.08.43-.14.73-.34.9-.58.17-.24.21-.5.12-.78s-.28-.46-.56-.55c-.28-.09-.64-.06-1.07.08-.43.14-.73.34-.9.58-.17.24-.21.5-.11.78.09.28.28.46.56.55h-.01Z" fill="#fff"/><path d="M558.94,105.89c.03.26-.05.5-.23.73-.13.16-.29.27-.48.34-.19.06-.39.07-.61.02s-.45-.18-.68-.36c-.2-.17-.37-.35-.5-.56-.14-.21-.22-.42-.25-.62l.44-.17c.02.17.08.34.19.52.1.18.24.34.41.47.21.17.41.26.6.27.19,0,.35-.07.47-.22.13-.15.17-.32.13-.5s-.18-.37-.42-.56l-.22-.18.23-.28,1.42-.29-1.35-1.11.29-.35,1.85,1.52-.22.27-1.48.3c.25.25.39.51.42.77h-.01Z" fill="#fff"/><path d="M561.02,109.33l-.29.35-2.01-1.66.22-.27,2.05-.16c.25-.02.44-.06.57-.11.13-.06.23-.14.31-.24.12-.15.17-.3.13-.47s-.15-.33-.34-.49c-.31-.26-.63-.35-.97-.29l-.08-.46c.22-.04.45-.03.69.04.24.07.47.2.69.38.29.24.47.5.53.79.06.28-.01.54-.21.79-.12.15-.27.26-.45.34-.17.08-.42.13-.74.16l-1.54.12,1.44,1.19h0Z" fill="#fff"/><path d="M562.11,110.61c-.07-.26-.06-.53.03-.83s.26-.59.52-.87c.25-.29.52-.5.8-.62.28-.13.55-.17.82-.13s.5.15.72.34c.21.19.35.41.42.67s.06.53-.03.83c-.09.29-.26.59-.51.87-.25.29-.52.5-.8.62-.28.13-.55.17-.82.13-.26-.04-.5-.15-.72-.34s-.36-.41-.43-.67ZM563.6,111.13c.29-.06.58-.26.88-.61.3-.34.46-.66.49-.95.03-.29-.07-.54-.29-.73s-.47-.26-.76-.2c-.29.06-.58.26-.88.61-.3.34-.46.66-.49.95-.03.29.07.54.29.73s.47.26.76.19h0Z" fill="#fff"/><path d="M407.34,36.86c.15.21.21.46.16.74-.03.21-.12.38-.24.53-.13.15-.3.26-.52.32s-.47.07-.77.02c-.26-.04-.5-.12-.72-.24-.22-.12-.4-.25-.53-.42l.3-.37c.1.14.24.25.42.36.18.1.38.17.59.21.27.04.48.02.65-.07.17-.09.27-.23.3-.43s-.02-.36-.14-.5-.34-.22-.64-.27l-.29-.05.06-.36,1.08-.96-1.73-.28.07-.45,2.37.39-.06.35-1.13,1c.34.09.6.24.75.46l.02.02Z" fill="#fff"/><path d="M410.74,37.32c.21.23.29.52.23.85-.04.21-.12.39-.25.55-.13.15-.3.26-.52.32s-.48.07-.77.02c-.25-.04-.49-.12-.71-.24-.22-.12-.4-.26-.53-.42l.3-.36c.1.14.24.26.42.36.18.1.38.17.59.21.27.04.49.02.66-.07s.27-.23.3-.43c.04-.21-.02-.39-.16-.53s-.41-.24-.81-.31l-.81-.14.5-1.84,2.02.34-.07.45-1.59-.27-.26.97.4.07c.51.09.87.24,1.08.48h-.02Z" fill="#fff"/><path d="M412.41,39.36c-.19-.19-.32-.43-.39-.73s-.07-.64,0-1.01c.07-.38.2-.69.39-.94.18-.25.39-.42.64-.52s.51-.12.79-.07c.28.06.51.18.7.37s.32.43.39.73.07.64,0,1.01c-.07.38-.2.69-.39.94-.18.25-.39.42-.64.52s-.51.12-.79.07c-.28-.06-.52-.18-.71-.37h0ZM413.96,39.06c.22-.2.37-.52.46-.97.09-.44.07-.8-.05-1.07s-.33-.43-.61-.49c-.29-.06-.54.01-.76.21s-.37.52-.46.97c-.09.44-.07.8.05,1.07s.33.43.62.49.54-.01.76-.21h-.01Z" fill="#fff"/><path d="M243.96,53.41l.16.42-2.44.91-.12-.33.89-1.85c.11-.22.17-.41.18-.55.01-.14,0-.27-.05-.39-.07-.18-.18-.29-.34-.35-.16-.05-.36-.03-.59.05-.38.14-.62.37-.73.69l-.44-.16c.07-.21.2-.4.38-.57s.41-.31.67-.41c.36-.13.67-.15.95-.06.27.09.47.28.57.57.07.18.09.37.08.56s-.1.43-.24.72l-.67,1.39,1.74-.65h0Z" fill="#fff"/><path d="M245.6,53.12c-.26-.06-.5-.2-.72-.42s-.39-.51-.53-.87c-.13-.36-.19-.69-.17-1s.11-.57.27-.78c.16-.22.37-.37.64-.47.27-.1.53-.12.79-.06.26.06.5.2.72.42s.39.51.53.87c.13.36.19.69.17,1s-.11.57-.27.78c-.16.22-.37.37-.63.47-.27.1-.53.12-.79.06h-.01ZM246.76,52.05c.08-.28.04-.64-.12-1.06s-.36-.72-.61-.88c-.25-.16-.51-.19-.78-.09-.28.1-.45.3-.53.58-.08.29-.04.64.12,1.06s.36.72.61.88c.25.16.51.19.78.09.27-.1.45-.29.53-.58Z" fill="#fff"/></g><g id="g"><path d="M354.19,42.98c42.12,0,82.97,8.25,121.43,24.52,37.15,15.71,70.51,38.21,99.16,66.86,28.65,28.65,51.15,62.01,66.86,99.16,16.27,38.46,24.52,79.32,24.52,121.43s-8.25,82.97-24.52,121.43c-15.71,37.15-38.21,70.51-66.86,99.16-28.65,28.65-62.02,51.15-99.16,66.86-38.46,16.27-79.32,24.52-121.43,24.52s-82.97-8.25-121.43-24.52c-37.15-15.71-70.51-38.21-99.16-66.86-28.65-28.65-51.15-62.01-66.86-99.16-16.27-38.46-24.52-79.32-24.52-121.43s8.25-82.97,24.52-121.43c15.71-37.15,38.21-70.51,66.86-99.16s62.01-51.15,99.16-66.86c38.46-16.27,79.32-24.52,121.43-24.52M354.19,42.42c-172.61,0-312.53,139.93-312.53,312.53s139.93,312.53,312.53,312.53,312.53-139.93,312.53-312.53S526.8,42.42,354.19,42.42h0Z" fill="#fff"/><line x1="375.97" y1="666.69" x2="332.37" y2="43.18" fill="none" stroke="#fff" stroke-miterlimit="10" stroke-width=".5"/><line x1="381.41" y1="666.26" x2="326.93" y2="43.61" fill="none" stroke="#fff" stroke-miterlimit="10" stroke-width=".5"/><line x1="386.84" y1="665.74" x2="321.5" y2="44.13" fill="none" stroke="#fff" stroke-miterlimit="10" stroke-width=".5"/><line x1="392.26" y1="665.12" x2="316.09" y2="44.75" fill="none" stroke="#fff" stroke-miterlimit="10" stroke-width=".5"/><line x1="397.67" y1="664.41" x2="310.68" y2="45.46" fill="none" stroke="#fff" stroke-miterlimit="10" stroke-width=".5"/><line x1="403.06" y1="663.6" x2="305.28" y2="46.26" fill="none" stroke="#fff" stroke-miterlimit="10" stroke-width=".5"/><line x1="409.27" y1="667.43" x2="299.07" y2="42.43" fill="none" stroke="#fff" stroke-miterlimit="10" stroke-width=".5"/><line x1="413.8" y1="661.71" x2="294.54" y2="48.16" fill="none" stroke="#fff" stroke-miterlimit="10" stroke-width=".5"/><line x1="419.15" y1="660.62" x2="289.2" y2="49.25" fill="none" stroke="#fff" stroke-miterlimit="10" stroke-width=".5"/><line x1="424.47" y1="659.44" x2="283.87" y2="50.43" fill="none" stroke="#fff" stroke-miterlimit="10" stroke-width=".5"/><line x1="429.78" y1="658.17" x2="278.57" y2="51.7" fill="none" stroke="#fff" stroke-miterlimit="10" stroke-width=".5"/><line x1="435.06" y1="656.8" x2="273.29" y2="53.07" fill="none" stroke="#fff" stroke-miterlimit="10" stroke-width=".5"/><line x1="440.31" y1="655.34" x2="268.03" y2="54.52" fill="none" stroke="#fff" stroke-miterlimit="10" stroke-width=".5"/><line x1="445.54" y1="653.79" x2="262.8" y2="56.07" fill="none" stroke="#fff" stroke-miterlimit="10" stroke-width=".5"/><line x1="450.75" y1="652.15" x2="257.6" y2="57.71" fill="none" stroke="#fff" stroke-miterlimit="10" stroke-width=".5"/><line x1="455.92" y1="650.42" x2="252.43" y2="59.44" fill="none" stroke="#fff" stroke-miterlimit="10" stroke-width=".5"/><line x1="462.71" y1="653.15" x2="245.63" y2="56.72" fill="none" stroke="#fff" stroke-miterlimit="10" stroke-width=".5"/><line x1="466.17" y1="646.69" x2="242.18" y2="63.17" fill="none" stroke="#fff" stroke-miterlimit="10" stroke-width=".5"/><line x1="471.24" y1="644.69" x2="237.1" y2="65.17" fill="none" stroke="#fff" stroke-miterlimit="10" stroke-width=".5"/><line x1="476.28" y1="642.61" x2="232.06" y2="67.26" fill="none" stroke="#fff" stroke-miterlimit="10" stroke-width=".5"/><line x1="481.28" y1="640.43" x2="227.06" y2="69.44" fill="none" stroke="#fff" stroke-miterlimit="10" stroke-width=".5"/><line x1="486.25" y1="638.17" x2="222.1" y2="71.7" fill="none" stroke="#fff" stroke-miterlimit="10" stroke-width=".5"/><line x1="491.17" y1="635.82" x2="217.17" y2="74.05" fill="none" stroke="#fff" stroke-miterlimit="10" stroke-width=".5"/><line x1="496.05" y1="633.39" x2="212.29" y2="76.48" fill="none" stroke="#fff" stroke-miterlimit="10" stroke-width=".5"/><line x1="500.89" y1="630.87" x2="207.45" y2="79" fill="none" stroke="#fff" stroke-miterlimit="10" stroke-width=".5"/><line x1="505.68" y1="628.27" x2="202.66" y2="81.6" fill="none" stroke="#fff" stroke-miterlimit="10" stroke-width=".5"/><line x1="512.83" y1="629.74" x2="195.51" y2="80.13" fill="none" stroke="#fff" stroke-miterlimit="10" stroke-width=".5"/><line x1="515.13" y1="622.81" x2="193.21" y2="87.05" fill="none" stroke="#fff" stroke-miterlimit="10" stroke-width=".5"/><line x1="519.78" y1="619.96" x2="188.56" y2="89.9" fill="none" stroke="#fff" stroke-miterlimit="10" stroke-width=".5"/><line x1="524.38" y1="617.03" x2="183.96" y2="92.84" fill="none" stroke="#fff" stroke-miterlimit="10" stroke-width=".5"/><line x1="528.93" y1="614.02" x2="179.41" y2="95.85" fill="none" stroke="#fff" stroke-miterlimit="10" stroke-width=".5"/><line x1="533.42" y1="610.93" x2="174.92" y2="98.94" fill="none" stroke="#fff" stroke-miterlimit="10" stroke-width=".5"/><line x1="537.87" y1="607.76" x2="170.48" y2="102.1" fill="none" stroke="#fff" stroke-miterlimit="10" stroke-width=".5"/><line x1="542.25" y1="604.52" x2="166.09" y2="105.35" fill="none" stroke="#fff" stroke-miterlimit="10" stroke-width=".5"/><line x1="546.58" y1="601.2" x2="161.77" y2="108.67" fill="none" stroke="#fff" stroke-miterlimit="10" stroke-width=".5"/><line x1="550.85" y1="597.8" x2="157.5" y2="112.06" fill="none" stroke="#fff" stroke-miterlimit="10" stroke-width=".5"/><line x1="558.11" y1="597.98" x2="150.23" y2="111.89" fill="none" stroke="#fff" stroke-miterlimit="10" stroke-width=".5"/><line x1="559.2" y1="590.79" x2="149.14" y2="119.07" fill="none" stroke="#fff" stroke-miterlimit="10" stroke-width=".5"/><line x1="563.29" y1="587.18" x2="145.06" y2="122.69" fill="none" stroke="#fff" stroke-miterlimit="10" stroke-width=".5"/><line x1="567.31" y1="583.49" x2="141.03" y2="126.37" fill="none" stroke="#fff" stroke-miterlimit="10" stroke-width=".5"/><line x1="571.27" y1="579.74" x2="137.08" y2="130.13" fill="none" stroke="#fff" stroke-miterlimit="10" stroke-width=".5"/><line x1="575.16" y1="575.92" x2="133.19" y2="133.95" fill="none" stroke="#fff" stroke-miterlimit="10" stroke-width=".5"/><line x1="578.98" y1="572.02" x2="129.36" y2="137.84" fill="none" stroke="#fff" stroke-miterlimit="10" stroke-width=".5"/><line x1="582.73" y1="568.07" x2="125.61" y2="141.8" fill="none" stroke="#fff" stroke-miterlimit="10" stroke-width=".5"/><line x1="586.42" y1="564.05" x2="121.93" y2="145.82" fill="none" stroke="#fff" stroke-miterlimit="10" stroke-width=".5"/><line x1="590.03" y1="559.96" x2="118.31" y2="149.9" fill="none" stroke="#fff" stroke-miterlimit="10" stroke-width=".5"/><line x1="597.22" y1="558.87" x2="111.13" y2="151" fill="none" stroke="#fff" stroke-miterlimit="10" stroke-width=".5"/><line x1="597.04" y1="551.61" x2="111.3" y2="158.26" fill="none" stroke="#fff" stroke-miterlimit="10" stroke-width=".5"/><line x1="600.44" y1="547.34" x2="107.9" y2="162.53" fill="none" stroke="#fff" stroke-miterlimit="10" stroke-width=".5"/><line x1="603.76" y1="543.01" x2="104.58" y2="166.86" fill="none" stroke="#fff" stroke-miterlimit="10" stroke-width=".5"/><line x1="607" y1="538.63" x2="101.34" y2="171.24" fill="none" stroke="#fff" stroke-miterlimit="10" stroke-width=".5"/><line x1="610.17" y1="534.18" x2="98.17" y2="175.68" fill="none" stroke="#fff" stroke-miterlimit="10" stroke-width=".5"/><line x1="613.26" y1="529.69" x2="95.08" y2="180.18" fill="none" stroke="#fff" stroke-miterlimit="10" stroke-width=".5"/><line x1="616.27" y1="525.14" x2="92.07" y2="184.72" fill="none" stroke="#fff" stroke-miterlimit="10" stroke-width=".5"/><line x1="619.2" y1="520.54" x2="89.14" y2="189.32" fill="none" stroke="#fff" stroke-miterlimit="10" stroke-width=".5"/><line x1="622.05" y1="515.89" x2="86.29" y2="193.98" fill="none" stroke="#fff" stroke-miterlimit="10" stroke-width=".5"/><line x1="628.98" y1="513.59" x2="79.37" y2="196.28" fill="none" stroke="#fff" stroke-miterlimit="10" stroke-width=".5"/><line x1="627.51" y1="506.44" x2="80.84" y2="203.42" fill="none" stroke="#fff" stroke-miterlimit="10" stroke-width=".5"/><line x1="630.11" y1="501.65" x2="78.23" y2="208.22" fill="none" stroke="#fff" stroke-miterlimit="10" stroke-width=".5"/><line x1="632.63" y1="496.81" x2="75.72" y2="213.05" fill="none" stroke="#fff" stroke-miterlimit="10" stroke-width=".5"/><line x1="635.06" y1="491.93" x2="73.28" y2="217.94" fill="none" stroke="#fff" stroke-miterlimit="10" stroke-width=".5"/><line x1="637.41" y1="487.01" x2="70.93" y2="222.86" fill="none" stroke="#fff" stroke-miterlimit="10" stroke-width=".5"/><line x1="639.67" y1="482.04" x2="68.67" y2="227.82" fill="none" stroke="#fff" stroke-miterlimit="10" stroke-width=".5"/><line x1="641.85" y1="477.04" x2="66.5" y2="232.82" fill="none" stroke="#fff" stroke-miterlimit="10" stroke-width=".5"/><line x1="643.93" y1="472" x2="64.41" y2="237.86" fill="none" stroke="#fff" stroke-miterlimit="10" stroke-width=".5"/><line x1="645.93" y1="466.93" x2="62.41" y2="242.94" fill="none" stroke="#fff" stroke-miterlimit="10" stroke-width=".5"/><line x1="652.39" y1="463.47" x2="55.96" y2="246.39" fill="none" stroke="#fff" stroke-miterlimit="10" stroke-width=".5"/><line x1="649.66" y1="456.68" x2="58.68" y2="253.19" fill="none" stroke="#fff" stroke-miterlimit="10" stroke-width=".5"/><line x1="651.39" y1="451.51" x2="56.95" y2="258.36" fill="none" stroke="#fff" stroke-miterlimit="10" stroke-width=".5"/><line x1="653.03" y1="446.3" x2="55.31" y2="263.56" fill="none" stroke="#fff" stroke-miterlimit="10" stroke-width=".5"/><line x1="654.58" y1="441.07" x2="53.76" y2="268.79" fill="none" stroke="#fff" stroke-miterlimit="10" stroke-width=".5"/><line x1="656.04" y1="435.82" x2="52.3" y2="274.05" fill="none" stroke="#fff" stroke-miterlimit="10" stroke-width=".5"/><line x1="657.41" y1="430.54" x2="50.94" y2="279.33" fill="none" stroke="#fff" stroke-miterlimit="10" stroke-width=".5"/><line x1="658.68" y1="425.23" x2="49.66" y2="284.63" fill="none" stroke="#fff" stroke-miterlimit="10" stroke-width=".5"/><line x1="659.86" y1="419.91" x2="48.48" y2="289.96" fill="none" stroke="#fff" stroke-miterlimit="10" stroke-width=".5"/><line x1="660.95" y1="414.56" x2="47.4" y2="295.3" fill="none" stroke="#fff" stroke-miterlimit="10" stroke-width=".5"/><line x1="666.6" y1="410.02" x2="41.75" y2="299.84" fill="none" stroke="#fff" stroke-miterlimit="10" stroke-width=".5"/><line x1="662.84" y1="403.82" x2="45.5" y2="306.04" fill="none" stroke="#fff" stroke-miterlimit="10" stroke-width=".5"/><line x1="663.65" y1="398.43" x2="44.69" y2="311.44" fill="none" stroke="#fff" stroke-miterlimit="10" stroke-width=".5"/><line x1="664.36" y1="393.02" x2="43.98" y2="316.85" fill="none" stroke="#fff" stroke-miterlimit="10" stroke-width=".5"/><line x1="664.98" y1="387.6" x2="43.37" y2="322.27" fill="none" stroke="#fff" stroke-miterlimit="10" stroke-width=".5"/><line x1="665.5" y1="382.17" x2="42.84" y2="327.7" fill="none" stroke="#fff" stroke-miterlimit="10" stroke-width=".5"/><line x1="665.93" y1="376.73" x2="42.41" y2="333.13" fill="none" stroke="#fff" stroke-miterlimit="10" stroke-width=".5"/><line x1="666.26" y1="371.29" x2="42.08" y2="338.58" fill="none" stroke="#fff" stroke-miterlimit="10" stroke-width=".5"/><line x1="666.5" y1="365.84" x2="41.84" y2="344.03" fill="none" stroke="#fff" stroke-miterlimit="10" stroke-width=".5"/><line x1="666.64" y1="360.39" x2="41.7" y2="349.48" fill="none" stroke="#fff" stroke-miterlimit="10" stroke-width=".5"/><line x1="671.45" y1="354.93" x2="36.9" y2="354.93" fill="none" stroke="#fff" stroke-miterlimit="10" stroke-width=".5"/><line x1="666.64" y1="349.48" x2="41.7" y2="360.39" fill="none" stroke="#fff" stroke-miterlimit="10" stroke-width=".5"/><line x1="666.5" y1="344.03" x2="41.84" y2="365.84" fill="none" stroke="#fff" stroke-miterlimit="10" stroke-width=".5"/><line x1="666.26" y1="338.58" x2="42.08" y2="371.29" fill="none" stroke="#fff" stroke-miterlimit="10" stroke-width=".5"/><line x1="665.93" y1="333.13" x2="42.41" y2="376.73" fill="none" stroke="#fff" stroke-miterlimit="10" stroke-width=".5"/><line x1="665.5" y1="327.7" x2="42.84" y2="382.17" fill="none" stroke="#fff" stroke-miterlimit="10" stroke-width=".5"/><line x1="664.98" y1="322.27" x2="43.37" y2="387.6" fill="none" stroke="#fff" stroke-miterlimit="10" stroke-width=".5"/><line x1="664.36" y1="316.85" x2="43.98" y2="393.02" fill="none" stroke="#fff" stroke-miterlimit="10" stroke-width=".5"/><line x1="663.65" y1="311.44" x2="44.69" y2="398.43" fill="none" stroke="#fff" stroke-miterlimit="10" stroke-width=".5"/><line x1="662.84" y1="306.04" x2="45.5" y2="403.82" fill="none" stroke="#fff" stroke-miterlimit="10" stroke-width=".5"/><line x1="41.75" y1="410.02" x2="666.6" y2="299.84" fill="none" stroke="#fff" stroke-miterlimit="10" stroke-width=".5"/><line x1="660.95" y1="295.3" x2="47.4" y2="414.56" fill="none" stroke="#fff" stroke-miterlimit="10" stroke-width=".5"/><line x1="659.86" y1="289.96" x2="48.48" y2="419.91" fill="none" stroke="#fff" stroke-miterlimit="10" stroke-width=".5"/><line x1="658.68" y1="284.63" x2="49.66" y2="425.23" fill="none" stroke="#fff" stroke-miterlimit="10" stroke-width=".5"/><line x1="657.41" y1="279.33" x2="50.94" y2="430.54" fill="none" stroke="#fff" stroke-miterlimit="10" stroke-width=".5"/><line x1="656.04" y1="274.05" x2="52.3" y2="435.82" fill="none" stroke="#fff" stroke-miterlimit="10" stroke-width=".5"/><line x1="654.58" y1="268.79" x2="53.76" y2="441.07" fill="none" stroke="#fff" stroke-miterlimit="10" stroke-width=".5"/><line x1="653.03" y1="263.56" x2="55.31" y2="446.3" fill="none" stroke="#fff" stroke-miterlimit="10" stroke-width=".5"/><line x1="651.39" y1="258.36" x2="56.95" y2="451.51" fill="none" stroke="#fff" stroke-miterlimit="10" stroke-width=".5"/><line x1="649.66" y1="253.19" x2="58.68" y2="456.68" fill="none" stroke="#fff" stroke-miterlimit="10" stroke-width=".5"/><line x1="55.94" y1="463.48" x2="652.4" y2="246.39" fill="none" stroke="#fff" stroke-miterlimit="10" stroke-width=".5"/><line x1="645.93" y1="242.94" x2="62.41" y2="466.93" fill="none" stroke="#fff" stroke-miterlimit="10" stroke-width=".5"/><line x1="643.93" y1="237.86" x2="64.41" y2="472" fill="none" stroke="#fff" stroke-miterlimit="10" stroke-width=".5"/><line x1="641.85" y1="232.82" x2="66.5" y2="477.04" fill="none" stroke="#fff" stroke-miterlimit="10" stroke-width=".5"/><line x1="639.67" y1="227.82" x2="68.67" y2="482.04" fill="none" stroke="#fff" stroke-miterlimit="10" stroke-width=".5"/><line x1="637.41" y1="222.86" x2="70.93" y2="487.01" fill="none" stroke="#fff" stroke-miterlimit="10" stroke-width=".5"/><line x1="635.06" y1="217.94" x2="73.28" y2="491.93" fill="none" stroke="#fff" stroke-miterlimit="10" stroke-width=".5"/><line x1="632.63" y1="213.05" x2="75.72" y2="496.81" fill="none" stroke="#fff" stroke-miterlimit="10" stroke-width=".5"/><line x1="630.11" y1="208.22" x2="78.23" y2="501.65" fill="none" stroke="#fff" stroke-miterlimit="10" stroke-width=".5"/><line x1="627.51" y1="203.42" x2="80.84" y2="506.44" fill="none" stroke="#fff" stroke-miterlimit="10" stroke-width=".5"/><line x1="79.35" y1="513.6" x2="629" y2="196.26" fill="none" stroke="#fff" stroke-miterlimit="10" stroke-width=".5"/><line x1="622.05" y1="193.98" x2="86.29" y2="515.89" fill="none" stroke="#fff" stroke-miterlimit="10" stroke-width=".5"/><line x1="619.2" y1="189.32" x2="89.14" y2="520.54" fill="none" stroke="#fff" stroke-miterlimit="10" stroke-width=".5"/><line x1="616.27" y1="184.72" x2="92.07" y2="525.14" fill="none" stroke="#fff" stroke-miterlimit="10" stroke-width=".5"/><line x1="613.26" y1="180.18" x2="95.08" y2="529.69" fill="none" stroke="#fff" stroke-miterlimit="10" stroke-width=".5"/><line x1="610.17" y1="175.68" x2="98.17" y2="534.18" fill="none" stroke="#fff" stroke-miterlimit="10" stroke-width=".5"/><line x1="607" y1="171.24" x2="101.34" y2="538.63" fill="none" stroke="#fff" stroke-miterlimit="10" stroke-width=".5"/><line x1="603.76" y1="166.86" x2="104.58" y2="543.01" fill="none" stroke="#fff" stroke-miterlimit="10" stroke-width=".5"/><line x1="600.44" y1="162.53" x2="107.9" y2="547.34" fill="none" stroke="#fff" stroke-miterlimit="10" stroke-width=".5"/><line x1="597.04" y1="158.26" x2="111.3" y2="551.61" fill="none" stroke="#fff" stroke-miterlimit="10" stroke-width=".5"/><line x1="111.11" y1="558.89" x2="597.24" y2="150.98" fill="none" stroke="#fff" stroke-miterlimit="10" stroke-width=".5"/><line x1="590.03" y1="149.9" x2="118.31" y2="559.96" fill="none" stroke="#fff" stroke-miterlimit="10" stroke-width=".5"/><line x1="586.42" y1="145.82" x2="121.93" y2="564.05" fill="none" stroke="#fff" stroke-miterlimit="10" stroke-width=".5"/><line x1="582.73" y1="141.8" x2="125.61" y2="568.07" fill="none" stroke="#fff" stroke-miterlimit="10" stroke-width=".5"/><line x1="578.98" y1="137.84" x2="129.36" y2="572.02" fill="none" stroke="#fff" stroke-miterlimit="10" stroke-width=".5"/><line x1="575.16" y1="133.95" x2="133.19" y2="575.92" fill="none" stroke="#fff" stroke-miterlimit="10" stroke-width=".5"/><line x1="571.27" y1="130.13" x2="137.08" y2="579.74" fill="none" stroke="#fff" stroke-miterlimit="10" stroke-width=".5"/><line x1="567.31" y1="126.37" x2="141.03" y2="583.49" fill="none" stroke="#fff" stroke-miterlimit="10" stroke-width=".5"/><line x1="563.29" y1="122.69" x2="145.06" y2="587.18" fill="none" stroke="#fff" stroke-miterlimit="10" stroke-width=".5"/><line x1="559.2" y1="119.07" x2="149.14" y2="590.79" fill="none" stroke="#fff" stroke-miterlimit="10" stroke-width=".5"/><line x1="558.13" y1="111.87" x2="150.21" y2="598" fill="none" stroke="#fff" stroke-miterlimit="10" stroke-width=".5"/><line x1="550.85" y1="112.06" x2="157.5" y2="597.8" fill="none" stroke="#fff" stroke-miterlimit="10" stroke-width=".5"/><line x1="546.58" y1="108.67" x2="161.77" y2="601.2" fill="none" stroke="#fff" stroke-miterlimit="10" stroke-width=".5"/><line x1="542.25" y1="105.35" x2="166.09" y2="604.52" fill="none" stroke="#fff" stroke-miterlimit="10" stroke-width=".5"/><line x1="537.87" y1="102.1" x2="170.48" y2="607.76" fill="none" stroke="#fff" stroke-miterlimit="10" stroke-width=".5"/><line x1="533.42" y1="98.94" x2="174.92" y2="610.93" fill="none" stroke="#fff" stroke-miterlimit="10" stroke-width=".5"/><line x1="528.93" y1="95.85" x2="179.41" y2="614.02" fill="none" stroke="#fff" stroke-miterlimit="10" stroke-width=".5"/><line x1="524.38" y1="92.84" x2="183.96" y2="617.03" fill="none" stroke="#fff" stroke-miterlimit="10" stroke-width=".5"/><line x1="519.78" y1="89.9" x2="188.56" y2="619.96" fill="none" stroke="#fff" stroke-miterlimit="10" stroke-width=".5"/><line x1="515.13" y1="87.05" x2="193.21" y2="622.81" fill="none" stroke="#fff" stroke-miterlimit="10" stroke-width=".5"/><line x1="512.84" y1="80.11" x2="195.5" y2="629.76" fill="none" stroke="#fff" stroke-miterlimit="10" stroke-width=".5"/><line x1="505.68" y1="81.6" x2="202.66" y2="628.27" fill="none" stroke="#fff" stroke-miterlimit="10" stroke-width=".5"/><line x1="500.89" y1="79" x2="207.45" y2="630.87" fill="none" stroke="#fff" stroke-miterlimit="10" stroke-width=".5"/><line x1="496.05" y1="76.48" x2="212.29" y2="633.39" fill="none" stroke="#fff" stroke-miterlimit="10" stroke-width=".5"/><line x1="491.17" y1="74.05" x2="217.17" y2="635.82" fill="none" stroke="#fff" stroke-miterlimit="10" stroke-width=".5"/><line x1="486.25" y1="71.7" x2="222.1" y2="638.17" fill="none" stroke="#fff" stroke-miterlimit="10" stroke-width=".5"/><line x1="481.28" y1="69.44" x2="227.06" y2="640.43" fill="none" stroke="#fff" stroke-miterlimit="10" stroke-width=".5"/><line x1="476.28" y1="67.26" x2="232.06" y2="642.61" fill="none" stroke="#fff" stroke-miterlimit="10" stroke-width=".5"/><line x1="471.24" y1="65.17" x2="237.1" y2="644.69" fill="none" stroke="#fff" stroke-miterlimit="10" stroke-width=".5"/><line x1="466.17" y1="63.17" x2="242.18" y2="646.69" fill="none" stroke="#fff" stroke-miterlimit="10" stroke-width=".5"/><line x1="462.72" y1="56.71" x2="245.63" y2="653.16" fill="none" stroke="#fff" stroke-miterlimit="10" stroke-width=".5"/><line x1="455.92" y1="59.44" x2="252.43" y2="650.42" fill="none" stroke="#fff" stroke-miterlimit="10" stroke-width=".5"/><line x1="450.75" y1="57.71" x2="257.6" y2="652.15" fill="none" stroke="#fff" stroke-miterlimit="10" stroke-width=".5"/><line x1="445.54" y1="56.07" x2="262.8" y2="653.79" fill="none" stroke="#fff" stroke-miterlimit="10" stroke-width=".5"/><line x1="440.31" y1="54.52" x2="268.03" y2="655.34" fill="none" stroke="#fff" stroke-miterlimit="10" stroke-width=".5"/><line x1="435.06" y1="53.07" x2="273.29" y2="656.8" fill="none" stroke="#fff" stroke-miterlimit="10" stroke-width=".5"/><line x1="429.78" y1="51.7" x2="278.57" y2="658.17" fill="none" stroke="#fff" stroke-miterlimit="10" stroke-width=".5"/><line x1="424.47" y1="50.43" x2="283.87" y2="659.44" fill="none" stroke="#fff" stroke-miterlimit="10" stroke-width=".5"/><line x1="419.15" y1="49.25" x2="289.2" y2="660.62" fill="none" stroke="#fff" stroke-miterlimit="10" stroke-width=".5"/><line x1="413.8" y1="48.16" x2="294.54" y2="661.71" fill="none" stroke="#fff" stroke-miterlimit="10" stroke-width=".5"/><line x1="409.26" y1="42.51" x2="299.08" y2="667.36" fill="none" stroke="#fff" stroke-miterlimit="10" stroke-width=".5"/><line x1="403.06" y1="46.26" x2="305.28" y2="663.6" fill="none" stroke="#fff" stroke-miterlimit="10" stroke-width=".5"/><line x1="397.67" y1="45.46" x2="310.68" y2="664.41" fill="none" stroke="#fff" stroke-miterlimit="10" stroke-width=".5"/><line x1="392.26" y1="44.75" x2="316.09" y2="665.12" fill="none" stroke="#fff" stroke-miterlimit="10" stroke-width=".5"/><line x1="386.84" y1="44.13" x2="321.5" y2="665.74" fill="none" stroke="#fff" stroke-miterlimit="10" stroke-width=".5"/><line x1="381.41" y1="43.61" x2="326.93" y2="666.26" fill="none" stroke="#fff" stroke-miterlimit="10" stroke-width=".5"/><line x1="375.97" y1="43.18" x2="332.37" y2="666.69" fill="none" stroke="#fff" stroke-miterlimit="10" stroke-width=".5"/><line x1="370.53" y1="42.85" x2="337.82" y2="667.02" fill="none" stroke="#fff" stroke-miterlimit="10" stroke-width=".5"/><line x1="365.08" y1="42.61" x2="343.26" y2="667.26" fill="none" stroke="#fff" stroke-miterlimit="10" stroke-width=".5"/><line x1="359.63" y1="42.47" x2="348.72" y2="667.4" fill="none" stroke="#fff" stroke-miterlimit="10" stroke-width=".5"/><line x1="354.17" y1="37.66" x2="354.17" y2="672.21" fill="none" stroke="#fff" stroke-miterlimit="10" stroke-width=".5"/><line x1="348.72" y1="42.47" x2="359.63" y2="667.4" fill="none" stroke="#fff" stroke-miterlimit="10" stroke-width=".5"/><line x1="343.26" y1="42.61" x2="365.08" y2="667.26" fill="none" stroke="#fff" stroke-miterlimit="10" stroke-width=".5"/><line x1="337.82" y1="42.85" x2="370.53" y2="667.02" fill="none" stroke="#fff" stroke-miterlimit="10" stroke-width=".5"/><circle cx="354.34" cy="354.33" r="305.18" fill="#010101" stroke="#fff" stroke-miterlimit="10" stroke-width=".5"/></g><g id="h"><path d="M354.33,51.66c167.16,0,302.67,135.51,302.67,302.67s-135.51,302.67-302.67,302.67S51.66,521.49,51.66,354.33,187.17,51.66,354.33,51.66M354.33,49.6c-41.14,0-81.04,8.06-118.61,23.95-36.29,15.35-68.87,37.32-96.86,65.3-27.99,27.99-49.96,60.57-65.3,96.86-15.89,37.57-23.95,77.48-23.95,118.61s8.06,81.04,23.95,118.61c15.35,36.29,37.32,68.87,65.3,96.86,27.99,27.99,60.57,49.96,96.86,65.3,37.57,15.89,77.48,23.95,118.61,23.95s81.04-8.06,118.61-23.95c36.29-15.35,68.87-37.32,96.86-65.3,27.99-27.99,49.96-60.57,65.3-96.86,15.89-37.57,23.95-77.48,23.95-118.61s-8.06-81.04-23.95-118.61c-15.35-36.29-37.32-68.87-65.3-96.86-27.99-27.99-60.57-49.96-96.86-65.3-37.57-15.89-77.48-23.95-118.61-23.95h0Z" fill="#fff"/></g></g><circle cx="354.34" cy="354.33" r="303.31" fill="#010101"/></svg>