<svg xmlns="http://www.w3.org/2000/svg" viewBox="0 0 600 120" opacity="0.3">
  <!-- "PREVIEW" written as dot patterns resembling star constellations -->
  <style>
    .dot { fill: white; }
  </style>
  <!-- P -->
  <circle class="dot" cx="20" cy="10" r="2.5"/>
  <circle class="dot" cx="20" cy="30" r="2.5"/>
  <circle class="dot" cx="20" cy="50" r="2.5"/>
  <circle class="dot" cx="20" cy="70" r="2.5"/>
  <circle class="dot" cx="20" cy="90" r="2.5"/>
  <circle class="dot" cx="35" cy="10" r="2"/>
  <circle class="dot" cx="50" cy="10" r="2"/>
  <circle class="dot" cx="60" cy="20" r="2"/>
  <circle class="dot" cx="60" cy="35" r="2"/>
  <circle class="dot" cx="50" cy="50" r="2"/>
  <circle class="dot" cx="35" cy="50" r="2"/>
  <!-- connecting lines for P -->
  <line x1="20" y1="10" x2="20" y2="90" stroke="white" stroke-width="0.5" opacity="0.4"/>
  <line x1="20" y1="10" x2="50" y2="10" stroke="white" stroke-width="0.5" opacity="0.4"/>
  <line x1="50" y1="10" x2="60" y2="20" stroke="white" stroke-width="0.5" opacity="0.4"/>
  <line x1="60" y1="20" x2="60" y2="35" stroke="white" stroke-width="0.5" opacity="0.4"/>
  <line x1="60" y1="35" x2="50" y2="50" stroke="white" stroke-width="0.5" opacity="0.4"/>
  <line x1="50" y1="50" x2="20" y2="50" stroke="white" stroke-width="0.5" opacity="0.4"/>

  <!-- R -->
  <circle class="dot" cx="85" cy="10" r="2.5"/>
  <circle class="dot" cx="85" cy="30" r="2.5"/>
  <circle class="dot" cx="85" cy="50" r="2.5"/>
  <circle class="dot" cx="85" cy="70" r="2.5"/>
  <circle class="dot" cx="85" cy="90" r="2.5"/>
  <circle class="dot" cx="100" cy="10" r="2"/>
  <circle class="dot" cx="115" cy="10" r="2"/>
  <circle class="dot" cx="125" cy="20" r="2"/>
  <circle class="dot" cx="125" cy="35" r="2"/>
  <circle class="dot" cx="115" cy="50" r="2"/>
  <circle class="dot" cx="100" cy="50" r="2"/>
  <circle class="dot" cx="110" cy="65" r="1.8"/>
  <circle class="dot" cx="125" cy="90" r="2"/>
  <line x1="85" y1="10" x2="85" y2="90" stroke="white" stroke-width="0.5" opacity="0.4"/>
  <line x1="85" y1="10" x2="115" y2="10" stroke="white" stroke-width="0.5" opacity="0.4"/>
  <line x1="115" y1="10" x2="125" y2="20" stroke="white" stroke-width="0.5" opacity="0.4"/>
  <line x1="125" y1="20" x2="125" y2="35" stroke="white" stroke-width="0.5" opacity="0.4"/>
  <line x1="125" y1="35" x2="115" y2="50" stroke="white" stroke-width="0.5" opacity="0.4"/>
  <line x1="115" y1="50" x2="85" y2="50" stroke="white" stroke-width="0.5" opacity="0.4"/>
  <line x1="100" y1="50" x2="125" y2="90" stroke="white" stroke-width="0.5" opacity="0.4"/>

  <!-- E -->
  <circle class="dot" cx="150" cy="10" r="2.5"/>
  <circle class="dot" cx="150" cy="50" r="2.5"/>
  <circle class="dot" cx="150" cy="90" r="2.5"/>
  <circle class="dot" cx="165" cy="10" r="2"/>
  <circle class="dot" cx="180" cy="10" r="2"/>
  <circle class="dot" cx="165" cy="50" r="1.8"/>
  <circle class="dot" cx="175" cy="50" r="1.8"/>
  <circle class="dot" cx="165" cy="90" r="2"/>
  <circle class="dot" cx="180" cy="90" r="2"/>
  <line x1="150" y1="10" x2="150" y2="90" stroke="white" stroke-width="0.5" opacity="0.4"/>
  <line x1="150" y1="10" x2="180" y2="10" stroke="white" stroke-width="0.5" opacity="0.4"/>
  <line x1="150" y1="50" x2="175" y2="50" stroke="white" stroke-width="0.5" opacity="0.4"/>
  <line x1="150" y1="90" x2="180" y2="90" stroke="white" stroke-width="0.5" opacity="0.4"/>

  <!-- V -->
  <circle class="dot" cx="205" cy="10" r="2.5"/>
  <circle class="dot" cx="230" cy="90" r="2.5"/>
  <circle class="dot" cx="255" cy="10" r="2.5"/>
  <circle class="dot" cx="215" cy="40" r="1.5"/>
  <circle class="dot" cx="245" cy="40" r="1.5"/>
  <line x1="205" y1="10" x2="230" y2="90" stroke="white" stroke-width="0.5" opacity="0.4"/>
  <line x1="230" y1="90" x2="255" y2="10" stroke="white" stroke-width="0.5" opacity="0.4"/>

  <!-- I -->
  <circle class="dot" cx="280" cy="10" r="2.5"/>
  <circle class="dot" cx="280" cy="30" r="2"/>
  <circle class="dot" cx="280" cy="50" r="2"/>
  <circle class="dot" cx="280" cy="70" r="2"/>
  <circle class="dot" cx="280" cy="90" r="2.5"/>
  <line x1="280" y1="10" x2="280" y2="90" stroke="white" stroke-width="0.5" opacity="0.4"/>

  <!-- E -->
  <circle class="dot" cx="305" cy="10" r="2.5"/>
  <circle class="dot" cx="305" cy="50" r="2.5"/>
  <circle class="dot" cx="305" cy="90" r="2.5"/>
  <circle class="dot" cx="320" cy="10" r="2"/>
  <circle class="dot" cx="335" cy="10" r="2"/>
  <circle class="dot" cx="320" cy="50" r="1.8"/>
  <circle class="dot" cx="330" cy="50" r="1.8"/>
  <circle class="dot" cx="320" cy="90" r="2"/>
  <circle class="dot" cx="335" cy="90" r="2"/>
  <line x1="305" y1="10" x2="305" y2="90" stroke="white" stroke-width="0.5" opacity="0.4"/>
  <line x1="305" y1="10" x2="335" y2="10" stroke="white" stroke-width="0.5" opacity="0.4"/>
  <line x1="305" y1="50" x2="330" y2="50" stroke="white" stroke-width="0.5" opacity="0.4"/>
  <line x1="305" y1="90" x2="335" y2="90" stroke="white" stroke-width="0.5" opacity="0.4"/>

  <!-- W -->
  <circle class="dot" cx="360" cy="10" r="2.5"/>
  <circle class="dot" cx="375" cy="90" r="2.5"/>
  <circle class="dot" cx="390" cy="45" r="2"/>
  <circle class="dot" cx="405" cy="90" r="2.5"/>
  <circle class="dot" cx="420" cy="10" r="2.5"/>
  <circle class="dot" cx="365" cy="45" r="1.5"/>
  <circle class="dot" cx="415" cy="45" r="1.5"/>
  <line x1="360" y1="10" x2="375" y2="90" stroke="white" stroke-width="0.5" opacity="0.4"/>
  <line x1="375" y1="90" x2="390" y2="45" stroke="white" stroke-width="0.5" opacity="0.4"/>
  <line x1="390" y1="45" x2="405" y2="90" stroke="white" stroke-width="0.5" opacity="0.4"/>
  <line x1="405" y1="90" x2="420" y2="10" stroke="white" stroke-width="0.5" opacity="0.4"/>

  <!-- Decorative scatter stars -->
  <circle class="dot" cx="45" cy="75" r="1"/>
  <circle class="dot" cx="108" cy="80" r="1"/>
  <circle class="dot" cx="170" cy="72" r="1"/>
  <circle class="dot" cx="240" cy="60" r="1"/>
  <circle class="dot" cx="295" cy="75" r="1"/>
  <circle class="dot" cx="350" cy="65" r="1"/>
  <circle class="dot" cx="390" cy="15" r="1"/>
  <circle class="dot" cx="30" cy="105" r="0.8"/>
  <circle class="dot" cx="140" cy="105" r="0.8"/>
  <circle class="dot" cx="260" cy="105" r="0.8"/>
  <circle class="dot" cx="380" cy="105" r="0.8"/>
</svg>
